<svg width="20" height="20" viewBox="0 0 20 20" fill="none" xmlns="http://www.w3.org/2000/svg">
<g clip-path="url(#clip0_2078_5360)">
<path d="M0 10.0002C0 11.2234 0.220039 12.3952 0.622031 13.4785L10 14.348L19.378 13.4785C19.78 12.3952 20 11.2234 20 10.0002C20 8.79371 19.7863 7.63719 19.3948 6.56637L10 5.65234L0.605234 6.56641C0.213711 7.63719 0 8.79371 0 10.0002H0Z" fill="#FFDA44"/>
<path d="M10.0001 19.9998C14.2997 19.9998 17.9652 17.286 19.3781 13.478H0.62207C2.035 17.286 5.70043 19.9998 10.0001 19.9998Z" fill="#D80027"/>
<path d="M10.0001 0C5.70043 0 2.035 2.71375 0.62207 6.52176H19.3781C17.9652 2.71375 14.2997 0 10.0001 0Z" fill="#6DA544"/>
<path d="M10.0004 14.7825C12.6418 14.7825 14.783 12.6413 14.783 9.9999C14.783 7.35854 12.6418 5.21729 10.0004 5.21729C7.35902 5.21729 5.21777 7.35854 5.21777 9.9999C5.21777 12.6413 7.35902 14.7825 10.0004 14.7825Z" fill="#0052B4"/>
<path d="M9.99852 6.29639L10.8619 8.9535H13.6602L11.3954 10.5957L12.2656 13.2607L9.99852 11.6107L7.73492 13.2577L8.60156 10.5957L6.33887 8.9535H9.13516L9.99852 6.29639Z" fill="#FFDA44"/>
<path d="M13.4423 10.661L10.7034 9.77104L12.3961 7.44135L11.6927 6.93018L9.99988 9.26002L8.30727 6.93022L7.60375 7.44131L9.29641 9.77119L6.55762 10.661L6.82629 11.4881L9.5652 10.5982V13.4779H10.4347V10.5981L13.1735 11.4881L13.4423 10.661Z" fill="#FFDA44"/>
</g>
<defs>
<clipPath id="clip0_2078_5360">
<rect width="20" height="20" fill="white"/>
</clipPath>
</defs>
</svg>
