<svg width="20" height="20" viewBox="0 0 20 20" fill="none" xmlns="http://www.w3.org/2000/svg">
<g clip-path="url(#clip0_2078_5370)">
<path d="M0 9.99996C0 11.2232 0.220039 12.3949 0.621992 13.4782L10 13.913L19.378 13.4782C19.78 12.3949 20 11.2232 20 9.99996C20 8.77676 19.78 7.60504 19.378 6.52172L10 6.08691L0.621992 6.52168C0.220039 7.60504 0 8.77676 0 9.99996H0Z" fill="#FFDA44"/>
<path d="M10.0001 0C5.70043 0 2.035 2.71375 0.62207 6.52176H19.3781C17.9652 2.71375 14.2997 0 10.0001 0Z" fill="#D80027"/>
<path d="M19.3781 13.478H0.62207C2.035 17.286 5.70043 19.9998 10.0001 19.9998C14.2997 19.9998 17.9652 17.286 19.3781 13.478Z" fill="#496E2D"/>
<path d="M9.99996 6.52197L10.8632 9.179H13.6573L11.397 10.8213L12.2603 13.4785L9.99996 11.8363L7.73961 13.4785L8.60305 10.8213L6.34277 9.179H9.13668L9.99996 6.52197Z" fill="black"/>
</g>
<defs>
<clipPath id="clip0_2078_5370">
<rect width="20" height="20" fill="white"/>
</clipPath>
</defs>
</svg>
