<svg width="20" height="20" viewBox="0 0 20 20" fill="none" xmlns="http://www.w3.org/2000/svg">
<g clip-path="url(#clip0_2078_5377)">
<path d="M10 20C15.5228 20 20 15.5228 20 10C20 4.47715 15.5228 0 10 0C4.47715 0 0 4.47715 0 10C0 15.5228 4.47715 20 10 20Z" fill="#F0F0F0"/>
<path d="M9.99992 0C6.03531 0 2.60969 2.30723 0.992188 5.65219H19.0076C17.3902 2.30723 13.9645 0 9.99992 0Z" fill="#FF9811"/>
<path d="M9.99992 19.9998C13.9645 19.9998 17.3902 17.6926 19.0077 14.3477H0.992188C2.60969 17.6926 6.03531 19.9998 9.99992 19.9998Z" fill="#6DA544"/>
<path d="M9.99973 13.4785C11.9207 13.4785 13.478 11.9212 13.478 10.0002C13.478 8.07923 11.9207 6.52197 9.99973 6.52197C8.07875 6.52197 6.52148 8.07923 6.52148 10.0002C6.52148 11.9212 8.07875 13.4785 9.99973 13.4785Z" fill="#0052B4"/>
<path d="M10.0001 12.174C11.2007 12.174 12.174 11.2007 12.174 10.0001C12.174 8.79946 11.2007 7.82617 10.0001 7.82617C8.79946 7.82617 7.82617 8.79946 7.82617 10.0001C7.82617 11.2007 8.79946 12.174 10.0001 12.174Z" fill="#F0F0F0"/>
<path d="M9.99992 7.31738L10.6706 8.8384L12.3231 8.65867L11.3412 9.99996L12.3231 11.3413L10.6706 11.1615L9.99992 12.6825L9.32926 11.1615L7.67676 11.3412L8.65863 9.99996L7.67676 8.65867L9.32926 8.8384L9.99992 7.31738Z" fill="#0052B4"/>
</g>
<defs>
<clipPath id="clip0_2078_5377">
<rect width="20" height="20" fill="white"/>
</clipPath>
</defs>
</svg>
