<svg width="20" height="20" viewBox="0 0 20 20" fill="none" xmlns="http://www.w3.org/2000/svg">
<g clip-path="url(#clip0_2078_5386)">
<path d="M10 20C15.5228 20 20 15.5228 20 10C20 4.47715 15.5228 0 10 0C4.47715 0 0 4.47715 0 10C0 15.5228 4.47715 20 10 20Z" fill="#F0F0F0"/>
<path d="M9.99992 0C6.03531 0 2.60969 2.30723 0.992188 5.65219H19.0076C17.3902 2.30723 13.9645 0 9.99992 0Z" fill="black"/>
<path d="M9.99992 19.9998C6.03531 19.9998 2.60969 17.6926 0.992188 14.3477H19.0076C17.3902 17.6926 13.9645 19.9998 9.99992 19.9998Z" fill="#496E2D"/>
<path d="M19.5278 6.95654H0.472227C0.165898 7.91627 0 8.93873 0 10C0 11.0613 0.165898 12.0838 0.472227 13.0435H19.5277C19.8341 12.0838 20 11.0613 20 10C20 8.93873 19.8341 7.91627 19.5278 6.95654Z" fill="#A2001D"/>
<path d="M13.1135 4.62131L11.9292 4.07471L9.99961 8.44389L8.07 4.07471L6.88574 4.62131L9.28137 10.0002L6.88574 15.379L8.07 15.9256L9.99961 11.5565L11.9292 15.9256L13.1135 15.379L10.7179 10.0002L13.1135 4.62131Z" fill="#F0F0F0"/>
<path d="M10.804 5.13662C10.3455 4.63596 9.99965 4.34814 9.99965 4.34814C9.99965 4.34814 9.65375 4.63592 9.19531 5.13662V14.864C9.65375 15.3647 9.99965 15.6525 9.99965 15.6525C9.99965 15.6525 10.3455 15.3647 10.804 14.864V5.13662Z" fill="#F0F0F0"/>
<path d="M7.82617 7.00158V12.9981C8.31062 13.8565 8.90355 14.5601 9.34793 15.0266V4.97314C8.90355 5.43959 8.31059 6.14322 7.82617 7.00158Z" fill="#A2001D"/>
<path d="M12.1741 7.00158C11.6896 6.14318 11.0967 5.43959 10.6523 4.97314V15.0266C11.0967 14.5601 11.6896 13.8565 12.1741 12.9981V7.00158Z" fill="#A2001D"/>
<path d="M12.1738 7.00146V12.998C12.6643 12.1289 13.0434 11.1012 13.0434 9.99979C13.0434 8.89834 12.6643 7.87061 12.1738 7.00146Z" fill="black"/>
<path d="M7.82563 7.00146V12.998C7.3352 12.1289 6.95605 11.1012 6.95605 9.99979C6.95605 8.89834 7.3352 7.87061 7.82563 7.00146Z" fill="black"/>
</g>
<defs>
<clipPath id="clip0_2078_5386">
<rect width="20" height="20" fill="white"/>
</clipPath>
</defs>
</svg>
