<svg width="33" height="32" viewBox="0 0 33 32" fill="none" xmlns="http://www.w3.org/2000/svg">
<path d="M21.167 15.3333H19.8337L17.8337 19.3333L15.167 11.3333L13.167 15.3333H11.8337M16.4912 6.84775C13.8254 3.7312 9.37999 2.89286 6.03992 5.74668C2.69985 8.60051 2.22962 13.372 4.85259 16.7472C6.83378 19.2966 12.4621 24.4146 15.0977 26.7665C15.5822 27.1989 15.8244 27.415 16.1081 27.5001C16.3544 27.574 16.628 27.574 16.8743 27.5001C17.158 27.415 17.4002 27.1989 17.8847 26.7665C20.5203 24.4146 26.1486 19.2966 28.1298 16.7472C30.7528 13.372 30.3399 8.57049 26.9425 5.74668C23.545 2.92288 19.157 3.7312 16.4912 6.84775Z" stroke="#006716" stroke-width="2" stroke-linecap="round" stroke-linejoin="round"/>
</svg>
