<svg width="40" height="40" viewBox="0 0 40 40" fill="none" xmlns="http://www.w3.org/2000/svg">
<path d="M28.6663 8.00033L27.351 7.34266C26.847 7.09067 26.595 6.96467 26.3309 6.87582C26.0964 6.79691 25.8551 6.73993 25.61 6.70562C25.334 6.66699 25.0523 6.66699 24.4888 6.66699H15.5105C14.947 6.66699 14.6653 6.66699 14.3894 6.70562C14.1443 6.73993 13.9029 6.79691 13.6684 6.87582C13.4043 6.96467 13.1523 7.09067 12.6483 7.34266L11.333 8.00033M18.6663 12.0003L15.9997 6.66699M21.333 12.0003L23.9997 6.66699M9.33301 21.3337H30.6663M26.6663 30.667L27.9997 33.3337M13.333 30.667L11.9999 33.3337M15.333 26.0003H15.3463M24.6663 26.0003H24.6797M15.733 30.667H24.2663C26.5066 30.667 27.6267 30.667 28.4823 30.231C29.235 29.8475 29.8469 29.2356 30.2304 28.483C30.6663 27.6273 30.6663 26.5072 30.6663 24.267V18.4003C30.6663 16.1601 30.6663 15.04 30.2304 14.1844C29.8469 13.4317 29.235 12.8198 28.4823 12.4363C27.6267 12.0003 26.5066 12.0003 24.2663 12.0003H15.733C13.4928 12.0003 12.3727 12.0003 11.517 12.4363C10.7644 12.8198 10.1525 13.4317 9.76898 14.1844C9.33301 15.04 9.33301 16.1601 9.33301 18.4003V24.267C9.33301 26.5072 9.33301 27.6273 9.76898 28.483C10.1525 29.2356 10.7644 29.8475 11.517 30.231C12.3727 30.667 13.4928 30.667 15.733 30.667ZM15.9997 26.0003C15.9997 26.3685 15.7012 26.667 15.333 26.667C14.9648 26.667 14.6663 26.3685 14.6663 26.0003C14.6663 25.6321 14.9648 25.3337 15.333 25.3337C15.7012 25.3337 15.9997 25.6321 15.9997 26.0003ZM25.333 26.0003C25.333 26.3685 25.0345 26.667 24.6663 26.667C24.2982 26.667 23.9997 26.3685 23.9997 26.0003C23.9997 25.6321 24.2982 25.3337 24.6663 25.3337C25.0345 25.3337 25.333 25.6321 25.333 26.0003Z" stroke="#006716" stroke-width="2" stroke-linecap="round" stroke-linejoin="round"/>
</svg>
