<svg width="27" height="26" viewBox="0 0 27 26" fill="none" xmlns="http://www.w3.org/2000/svg">
<path d="M9.5 13H3.63333C2.8866 13 2.51323 13 2.22801 13.1453C1.97713 13.2732 1.77316 13.4771 1.64532 13.728C1.5 14.0132 1.5 14.3866 1.5 15.1333V22.8667C1.5 23.6134 1.5 23.9868 1.64532 24.272C1.77316 24.5229 1.97713 24.7268 2.22801 24.8547C2.51323 25 2.8866 25 3.63333 25H9.5M9.5 25H17.5M9.5 25L9.5 8.46667C9.5 7.71993 9.5 7.34656 9.64532 7.06135C9.77316 6.81046 9.97713 6.60649 10.228 6.47866C10.5132 6.33333 10.8866 6.33333 11.6333 6.33333H15.3667C16.1134 6.33333 16.4868 6.33333 16.772 6.47866C17.0229 6.60649 17.2268 6.81046 17.3547 7.06135C17.5 7.34656 17.5 7.71993 17.5 8.46667V25M17.5 25H23.3667C24.1134 25 24.4868 25 24.772 24.8547C25.0229 24.7268 25.2268 24.5229 25.3547 24.272C25.5 23.9868 25.5 23.6134 25.5 22.8667V3.13333C25.5 2.3866 25.5 2.01323 25.3547 1.72801C25.2268 1.47713 25.0229 1.27316 24.772 1.14532C24.4868 1 24.1134 1 23.3667 1H19.6333C18.8866 1 18.5132 1 18.228 1.14533C17.9771 1.27316 17.7732 1.47713 17.6453 1.72801C17.5 2.01323 17.5 2.3866 17.5 3.13333V7.66667" stroke="#009A49" stroke-width="2" stroke-linecap="round" stroke-linejoin="round"/>
</svg>
