<svg width="24" height="26" viewBox="0 0 24 26" fill="none" xmlns="http://www.w3.org/2000/svg">
<path d="M16.6667 6.00016V5.06683C16.6667 3.76004 16.6667 3.10665 16.4123 2.60752C16.1886 2.16847 15.8317 1.81152 15.3926 1.58781C14.8935 1.3335 14.2401 1.3335 12.9333 1.3335H11.0667C9.75988 1.3335 9.10648 1.3335 8.60736 1.58781C8.16831 1.81152 7.81136 2.16847 7.58765 2.60752C7.33333 3.10665 7.33333 3.76004 7.33333 5.06683V6.00016M9.66667 12.4168V18.2502M14.3333 12.4168V18.2502M1.5 6.00016H22.5M20.1667 6.00016V19.0668C20.1667 21.027 20.1667 22.0071 19.7852 22.7558C19.4496 23.4144 18.9142 23.9498 18.2556 24.2854C17.5069 24.6668 16.5268 24.6668 14.5667 24.6668H9.43333C7.47315 24.6668 6.49306 24.6668 5.74437 24.2854C5.0858 23.9498 4.55037 23.4144 4.21481 22.7558C3.83333 22.0071 3.83333 21.027 3.83333 19.0668V6.00016" stroke="#FF1925" stroke-width="1.4" stroke-linecap="round" stroke-linejoin="round"/>
</svg>
