<svg width="56" height="56" viewBox="0 0 56 56" fill="none" xmlns="http://www.w3.org/2000/svg">
<g clip-path="url(#clip0_1452_117304)">
<path d="M3.49023 43.4021L45.0107 49.1946L52.4824 8.87463L14.7865 3.78125L3.49023 43.4021Z" fill="#FFF200"/>
<path d="M3.49023 43.4023L6.60698 48.242L48.7295 54.99L45.0142 49.1948L3.49023 43.4023Z" fill="#E8D807"/>
<path d="M12.6033 1.875C12.6033 1.875 4.25234 40.6987 2.48484 41.8433C0.717345 42.9913 44.3991 48.2421 44.3991 48.2421C44.3991 48.2421 52.3905 9.7605 52.4797 8.87675C52.569 7.993 12.6033 1.87675 12.6033 1.87675" fill="#EDDC0A"/>
<path d="M13.5683 3.132C13.5683 3.132 3.7132 38.1582 1.94833 39.3045C0.189575 40.4525 44.6247 46.9835 44.6247 46.9835C44.6247 46.9835 52.0001 9.8835 52.085 8.99975C52.1751 8.116 13.5675 3.125 13.5675 3.125" fill="#AD9A28"/>
<path d="M52.4833 8.875L55.8722 12.1983L48.727 54.9901L45.0117 49.195L52.4833 8.875Z" fill="#DBBF33"/>
<path d="M12.6047 1.875C12.6047 1.875 1.81593 34.6665 0.0519337 35.811C-1.71557 36.959 41.7851 47.3488 43.9944 45.198C46.2038 43.0473 52.3953 9.76138 52.4846 8.87763C52.5738 7.99388 12.6082 1.87763 12.6082 1.87763" fill="#E8D807"/>
<path d="M12.6062 1.875C12.6062 1.875 3.12212 30.7762 1.35637 31.9312C-0.411133 33.0792 34.5005 46.885 38.1676 43.4909C39.754 42.0235 43.4526 35.5896 45.9324 29.5486C50.1341 19.3146 52.4266 9.42362 52.4791 8.8785C52.5684 7.99475 12.6027 1.8785 12.6027 1.8785" fill="#FFF200"/>
</g>
<defs>
<clipPath id="clip0_1452_117304">
<rect width="56" height="56" fill="white"/>
</clipPath>
</defs>
</svg>
