<svg width="20" height="20" viewBox="0 0 20 20" fill="none" xmlns="http://www.w3.org/2000/svg">
<path d="M11.6673 1.89111V5.33323C11.6673 5.79994 11.6673 6.0333 11.7581 6.21156C11.838 6.36836 11.9655 6.49584 12.1223 6.57574C12.3006 6.66656 12.5339 6.66656 13.0007 6.66656H16.4428M13.334 10.8332H6.66732M13.334 14.1665H6.66732M8.33398 7.49984H6.66732M11.6673 1.6665H7.33398C5.93385 1.6665 5.23379 1.6665 4.69901 1.93899C4.2286 2.17867 3.84615 2.56112 3.60647 3.03153C3.33398 3.56631 3.33398 4.26637 3.33398 5.6665V14.3332C3.33398 15.7333 3.33398 16.4334 3.60647 16.9681C3.84615 17.4386 4.2286 17.821 4.69901 18.0607C5.23379 18.3332 5.93385 18.3332 7.33398 18.3332H12.6673C14.0674 18.3332 14.7675 18.3332 15.3023 18.0607C15.7727 17.821 16.1552 17.4386 16.3948 16.9681C16.6673 16.4334 16.6673 15.7333 16.6673 14.3332V6.6665L11.6673 1.6665Z" stroke="#595959" stroke-width="1.4" stroke-linecap="round" stroke-linejoin="round"/>
</svg>
