<svg width="14" height="14" viewBox="0 0 14 14" fill="none" xmlns="http://www.w3.org/2000/svg">
<path fill-rule="evenodd" clip-rule="evenodd" d="M6.60685 0.537109C3.01591 0.537109 0.126953 3.42606 0.126953 7.017C0.126953 9.87896 1.98992 12.3089 4.55488 13.1729C4.87888 13.2269 4.98688 13.0379 4.98688 12.8489C4.98688 12.6869 4.98688 12.2819 4.98688 11.7419C3.1779 12.1469 2.79991 10.8779 2.79991 10.8779C2.50291 10.122 2.07092 9.93296 2.07092 9.93296C1.47693 9.52797 2.12492 9.52797 2.12492 9.52797C2.77291 9.58196 3.1239 10.203 3.1239 10.203C3.6909 11.2019 4.63588 10.9049 5.01387 10.7429C5.06787 10.311 5.22987 10.041 5.41887 9.87896C3.98789 9.71696 2.47592 9.14997 2.47592 6.66601C2.47592 5.96402 2.71891 5.37003 3.1509 4.93804C3.09691 4.77604 2.85391 4.12805 3.2049 3.21007C3.2049 3.21007 3.74489 3.04807 4.98688 3.88506C5.49987 3.75006 6.06686 3.66906 6.60685 3.66906C7.14684 3.66906 7.71383 3.75006 8.22682 3.88506C9.4688 3.04807 10.0088 3.21007 10.0088 3.21007C10.3598 4.10105 10.1438 4.74904 10.0628 4.93804C10.4678 5.39703 10.7378 5.96402 10.7378 6.66601C10.7378 9.14997 9.22581 9.68996 7.76783 9.85196C8.01083 10.041 8.19982 10.446 8.19982 11.0399C8.19982 11.9039 8.19982 12.6059 8.19982 12.8219C8.19982 12.9839 8.30782 13.1999 8.65882 13.1459C11.2238 12.3089 13.0867 9.87896 13.0867 7.017C13.0867 3.42606 10.1978 0.537109 6.60685 0.537109Z" fill="#1B1B1B"/>
</svg>
