<svg width="40" height="40" viewBox="0 0 40 40" fill="none" xmlns="http://www.w3.org/2000/svg">
<path d="M32.0003 25.333V13.5997C32.0003 12.1062 32.0003 11.3595 31.7097 10.789C31.454 10.2873 31.0461 9.87932 30.5443 9.62366C29.9739 9.33301 29.2271 9.33301 27.7337 9.33301H12.267C10.7735 9.33301 10.0268 9.33301 9.45635 9.62366C8.95459 9.87932 8.54664 10.2873 8.29097 10.789C8.00033 11.3595 8.00033 12.1062 8.00033 13.5997V25.333M10.2225 30.6663H29.7781C30.6047 30.6663 31.0181 30.6663 31.3572 30.5755C32.2774 30.3289 32.9962 29.6101 33.2428 28.6899C33.3337 28.3507 33.3337 27.9374 33.3337 27.1108C33.3337 26.6975 33.3337 26.4908 33.2882 26.3212C33.1649 25.8611 32.8055 25.5017 32.3454 25.3784C32.1759 25.333 31.9692 25.333 31.5559 25.333H8.44477C8.03145 25.333 7.82479 25.333 7.65523 25.3784C7.19511 25.5017 6.83571 25.8611 6.71242 26.3212C6.66699 26.4908 6.66699 26.6975 6.66699 27.1108C6.66699 27.9374 6.66699 28.3507 6.75786 28.6899C7.00444 29.6101 7.72323 30.3289 8.64347 30.5755C8.98259 30.6663 9.39591 30.6663 10.2225 30.6663Z" stroke="#006716" stroke-width="2" stroke-linecap="round" stroke-linejoin="round"/>
</svg>
