<svg width="14" height="15" viewBox="0 0 14 15" fill="none" xmlns="http://www.w3.org/2000/svg">
<path d="M7.00076 1.75775C8.80947 1.75775 9.02366 1.76453 9.73818 1.79711C10.1678 1.80237 10.5933 1.88125 10.9962 2.03034C11.2884 2.14303 11.5538 2.31565 11.7753 2.53711C11.9967 2.75856 12.1694 3.02393 12.282 3.31614C12.4311 3.71908 12.51 4.1446 12.5153 4.57421C12.5475 5.28872 12.5546 5.50291 12.5546 7.31162C12.5546 9.12033 12.5479 9.33453 12.5153 10.049C12.51 10.4786 12.4311 10.9042 12.282 11.3071C12.1694 11.5993 11.9967 11.8647 11.7753 12.0861C11.5538 12.3076 11.2884 12.4802 10.9962 12.5929C10.5933 12.742 10.1678 12.8209 9.73818 12.8261C9.02398 12.8584 8.80979 12.8655 7.00076 12.8655C5.19172 12.8655 4.97753 12.8587 4.26334 12.8261C3.83373 12.8209 3.40821 12.742 3.00527 12.5929C2.71307 12.4802 2.44769 12.3076 2.22624 12.0861C2.00479 11.8647 1.83216 11.5993 1.71947 11.3071C1.57038 10.9042 1.4915 10.4786 1.48624 10.049C1.45398 9.33453 1.44689 9.12033 1.44689 7.31162C1.44689 5.50291 1.45366 5.28872 1.48624 4.57421C1.4915 4.1446 1.57038 3.71908 1.71947 3.31614C1.83216 3.02393 2.00479 2.75856 2.22624 2.53711C2.44769 2.31565 2.71307 2.14303 3.00527 2.03034C3.40821 1.88125 3.83373 1.80237 4.26334 1.79711C4.97785 1.76485 5.19205 1.75775 7.00076 1.75775ZM7.00076 0.537109C5.16205 0.537109 4.93043 0.544851 4.20785 0.577755C3.64561 0.588938 3.08934 0.695393 2.56269 0.892593C2.11092 1.06281 1.70172 1.32955 1.36366 1.67421C1.01869 2.01239 0.751722 2.42182 0.581401 2.87388C0.384201 3.40053 0.277746 3.9568 0.266563 4.51904C0.234304 5.24098 0.226562 5.47259 0.226562 7.3113C0.226562 9.15001 0.234304 9.38163 0.267208 10.1042C0.278391 10.6664 0.384847 11.2227 0.582046 11.7494C0.752178 12.2014 1.01892 12.6108 1.36366 12.949C1.70191 13.2938 2.11133 13.5605 2.56334 13.7307C3.08998 13.9279 3.64626 14.0343 4.2085 14.0455C4.93108 14.0778 5.16172 14.0861 7.0014 14.0861C8.84108 14.0861 9.07172 14.0784 9.7943 14.0455C10.3565 14.0343 10.9128 13.9279 11.4395 13.7307C11.8893 13.5563 12.2978 13.2899 12.6389 12.9487C12.98 12.6074 13.246 12.1987 13.4201 11.7487C13.6173 11.2221 13.7238 10.6658 13.735 10.1036C13.7672 9.38162 13.775 9.15001 13.775 7.3113C13.775 5.47259 13.7672 5.24098 13.7343 4.5184C13.7231 3.95616 13.6167 3.39988 13.4195 2.87324C13.2493 2.42123 12.9826 2.01181 12.6379 1.67356C12.2996 1.32883 11.8902 1.06208 11.4382 0.891948C10.9115 0.694748 10.3553 0.588293 9.79301 0.577109C9.07108 0.544851 8.83947 0.537109 7.00076 0.537109Z" fill="#1B1B1B"/>
<path d="M7.00215 3.83398C6.31413 3.83398 5.64155 4.03801 5.06948 4.42025C4.49741 4.8025 4.05154 5.3458 3.78824 5.98145C3.52494 6.6171 3.45605 7.31655 3.59028 7.99136C3.72451 8.66616 4.05582 9.28601 4.54233 9.77251C5.02884 10.259 5.64868 10.5903 6.32349 10.7246C6.99829 10.8588 7.69774 10.7899 8.33339 10.5266C8.96904 10.2633 9.51234 9.81743 9.89459 9.24536C10.2768 8.67329 10.4809 8.00072 10.4809 7.31269C10.4809 6.39008 10.1144 5.50526 9.46197 4.85288C8.80958 4.20049 7.92476 3.83398 7.00215 3.83398ZM7.00215 9.57076C6.55555 9.57076 6.11897 9.43832 5.74764 9.19021C5.3763 8.94209 5.08688 8.58942 4.91597 8.17682C4.74506 7.76421 4.70034 7.31019 4.78747 6.87217C4.8746 6.43415 5.08966 6.0318 5.40546 5.716C5.72125 5.40021 6.1236 5.18515 6.56162 5.09802C6.99964 5.01089 7.45367 5.05561 7.86627 5.22651C8.27888 5.39742 8.63154 5.68684 8.87966 6.05818C9.12778 6.42952 9.26021 6.86609 9.26021 7.31269C9.26021 7.91157 9.02231 8.48592 8.59884 8.90939C8.17537 9.33286 7.60102 9.57076 7.00215 9.57076Z" fill="#1B1B1B"/>
<path d="M10.6176 4.50862C11.0665 4.50862 11.4305 4.14467 11.4305 3.69572C11.4305 3.24676 11.0665 2.88281 10.6176 2.88281C10.1686 2.88281 9.80469 3.24676 9.80469 3.69572C9.80469 4.14467 10.1686 4.50862 10.6176 4.50862Z" fill="#1B1B1B"/>
</svg>
