<svg width="20" height="20" viewBox="0 0 20 20" fill="none" xmlns="http://www.w3.org/2000/svg">
<path d="M14.1673 9.16667V6.66667C14.1673 4.36548 12.3018 2.5 10.0007 2.5C7.69946 2.5 5.83398 4.36548 5.83398 6.66667V9.16667M7.33398 17.5H12.6673C14.0674 17.5 14.7675 17.5 15.3023 17.2275C15.7727 16.9878 16.1552 16.6054 16.3948 16.135C16.6673 15.6002 16.6673 14.9001 16.6673 13.5V13.1667C16.6673 11.7665 16.6673 11.0665 16.3948 10.5317C16.1552 10.0613 15.7727 9.67883 15.3023 9.43915C14.7675 9.16667 14.0674 9.16667 12.6673 9.16667H7.33398C5.93385 9.16667 5.23379 9.16667 4.69901 9.43915C4.2286 9.67883 3.84615 10.0613 3.60647 10.5317C3.33398 11.0665 3.33398 11.7665 3.33398 13.1667V13.5C3.33398 14.9001 3.33398 15.6002 3.60647 16.135C3.84615 16.6054 4.2286 16.9878 4.69901 17.2275C5.23379 17.5 5.93385 17.5 7.33398 17.5Z" stroke="#595959" stroke-width="1.4" stroke-linecap="round" stroke-linejoin="round"/>
</svg>
