<svg width="28" height="28" viewBox="0 0 28 28" fill="none" xmlns="http://www.w3.org/2000/svg">
<path d="M9.82666 24.0549C11.8749 25.1298 12.899 25.6672 14.0007 25.6672V14.0005L3.07834 8.25195C3.06225 8.27781 3.04647 8.30389 3.03095 8.33025C2.33398 9.51383 2.33398 10.9867 2.33398 13.9323V14.0688C2.33398 17.0144 2.33398 18.4873 3.03095 19.6709C3.72791 20.8545 4.98305 21.5132 7.49332 22.8304L9.82666 24.0549Z" fill="#009A49"/>
<path opacity="0.7" d="M20.5078 5.16978L18.1744 3.94531C16.1262 2.87044 15.1021 2.33301 14.0005 2.33301C12.8988 2.33301 11.8747 2.87044 9.82644 3.94531L7.49311 5.16978C5.03872 6.45778 3.7842 7.11613 3.07812 8.25109L14.0005 13.9997L24.9228 8.25109C24.2166 7.11613 22.9621 6.45778 20.5078 5.16978Z" fill="#009A49"/>
<path opacity="0.5" d="M24.9697 8.33025C24.9542 8.30389 24.9384 8.27781 24.9223 8.25195L14 14.0005V25.6672C15.1017 25.6672 16.1258 25.1298 18.174 24.0549L20.5073 22.8304C23.0176 21.5132 24.2727 20.8545 24.9697 19.6709C25.6667 18.4873 25.6667 17.0144 25.6667 14.0688V13.9323C25.6667 10.9867 25.6667 9.51383 24.9697 8.33025Z" fill="#009A49"/>
</svg>
