<svg width="30" height="30" viewBox="0 0 30 30" fill="none" xmlns="http://www.w3.org/2000/svg">
<path d="M13.6667 4.02276H8.06675C5.82654 4.02276 4.70643 4.02276 3.85079 4.45874C3.09814 4.84223 2.48622 5.45415 2.10272 6.2068C1.66675 7.06245 1.66675 8.18255 1.66675 10.4228V21.6228C1.66675 23.863 1.66675 24.9831 2.10272 25.8387C2.48622 26.5914 3.09814 27.2033 3.85079 27.5868C4.70643 28.0228 5.82654 28.0228 8.06675 28.0228H19.2667C21.507 28.0228 22.6271 28.0228 23.4827 27.5868C24.2354 27.2033 24.8473 26.5914 25.2308 25.8387C25.6667 24.9831 25.6667 23.863 25.6667 21.6228V16.0228M9.66671 20.0228H11.8994C12.5517 20.0228 12.8778 20.0228 13.1847 19.9491C13.4568 19.8838 13.7169 19.776 13.9555 19.6298C14.2246 19.4649 14.4552 19.2343 14.9164 18.7731L27.6667 6.02277C28.7713 4.9182 28.7713 3.12733 27.6667 2.02276C26.5622 0.918195 24.7713 0.918193 23.6667 2.02276L10.9164 14.7731C10.4552 15.2343 10.2246 15.4649 10.0597 15.734C9.91346 15.9726 9.80572 16.2327 9.74039 16.5048C9.66671 16.8117 9.66671 17.1378 9.66671 17.7901V20.0228Z" stroke="#009A49" stroke-width="2" stroke-linecap="round" stroke-linejoin="round"/>
</svg>
