<svg width="29" height="24" viewBox="0 0 29 24" fill="none" xmlns="http://www.w3.org/2000/svg">
<path d="M6.49935 10.6663V15.9997M22.4993 7.99967V13.333M21.166 1.33301C24.431 1.33301 26.1969 1.83269 27.0755 2.22026C27.1925 2.27188 27.251 2.29769 27.4199 2.45884C27.5211 2.55543 27.7059 2.83887 27.7534 2.97046C27.8327 3.18999 27.8327 3.30999 27.8327 3.55V17.8812C27.8327 19.0929 27.8327 19.6987 27.651 20.0101C27.4661 20.3269 27.2879 20.4742 26.9419 20.5959C26.6018 20.7156 25.9153 20.5837 24.5422 20.3199C23.5812 20.1352 22.4414 19.9997 21.166 19.9997C17.166 19.9997 13.166 22.6663 7.83268 22.6663C4.56774 22.6663 2.80184 22.1667 1.92319 21.7791C1.80618 21.7275 1.74767 21.7017 1.57882 21.5405C1.4776 21.4439 1.29284 21.1605 1.24531 21.0289C1.16602 20.8094 1.16602 20.6894 1.16602 20.4493L1.16602 6.11815C1.16602 4.90646 1.16602 4.30061 1.34772 3.9892C1.53255 3.67243 1.7108 3.52516 2.05676 3.40342C2.39686 3.28374 3.08339 3.41565 4.45645 3.67947C5.41751 3.86413 6.55732 3.99967 7.83268 3.99967C11.8327 3.99967 15.8327 1.33301 21.166 1.33301ZM17.8327 11.9997C17.8327 13.8406 16.3403 15.333 14.4993 15.333C12.6584 15.333 11.166 13.8406 11.166 11.9997C11.166 10.1587 12.6584 8.66634 14.4993 8.66634C16.3403 8.66634 17.8327 10.1587 17.8327 11.9997Z" stroke="#009A49" stroke-width="2" stroke-linecap="round" stroke-linejoin="round"/>
</svg>
