<svg width="20" height="20" viewBox="0 0 20 20" fill="none" xmlns="http://www.w3.org/2000/svg">
<path d="M9.41899 18.0125C9.60349 18.1202 9.69573 18.174 9.82592 18.2019C9.92695 18.2236 10.0744 18.2236 10.1754 18.2019C10.3056 18.174 10.3978 18.1202 10.5823 18.0125C12.2057 17.0655 16.6673 14.0905 16.6673 10.0001V6.83347C16.6673 5.93856 16.6673 5.4911 16.5294 5.17347C16.3892 4.85064 16.2495 4.6789 15.9619 4.47589C15.6791 4.27616 15.1245 4.16082 14.0154 3.93015C12.793 3.67592 11.8542 3.21684 10.996 2.5529C10.5844 2.23453 10.3786 2.07534 10.2176 2.03192C10.0477 1.9861 9.95362 1.9861 9.7837 2.03192C9.62267 2.07534 9.41689 2.23453 9.00534 2.5529C8.14709 3.21684 7.20832 3.67592 5.9859 3.93015C4.8768 4.16082 4.32224 4.27616 4.03936 4.47589C3.75184 4.6789 3.61214 4.85064 3.47193 5.17347C3.33398 5.4911 3.33398 5.93856 3.33398 6.83347V10.0001C3.33398 14.0905 7.79562 17.0655 9.41899 18.0125Z" stroke="#595959" stroke-width="1.4" stroke-linecap="round" stroke-linejoin="round"/>
</svg>
