<svg width="29" height="26" viewBox="0 0 29 26" fill="none" xmlns="http://www.w3.org/2000/svg">
<path d="M25.8327 7.66667V18.6C25.8327 20.8402 25.8327 21.9603 25.3967 22.816C25.0132 23.5686 24.4013 24.1805 23.6486 24.564C22.793 25 21.6729 25 19.4327 25H9.56602C7.32581 25 6.2057 25 5.35005 24.564C4.59741 24.1805 3.98548 23.5686 3.60199 22.816C3.16602 21.9603 3.16602 20.8402 3.16602 18.6V7.66667M3.29935 1H25.6993C26.4461 1 26.8195 1 27.1047 1.14532C27.3556 1.27316 27.5595 1.47713 27.6874 1.72801C27.8327 2.01323 27.8327 2.3866 27.8327 3.13333V5.53333C27.8327 6.28007 27.8327 6.65344 27.6874 6.93865C27.5595 7.18954 27.3556 7.39351 27.1047 7.52134C26.8195 7.66667 26.4461 7.66667 25.6994 7.66667H3.29935C2.55261 7.66667 2.17924 7.66667 1.89403 7.52134C1.64315 7.39351 1.43917 7.18954 1.31134 6.93865C1.16602 6.65344 1.16602 6.28007 1.16602 5.53333V3.13333C1.16602 2.3866 1.16602 2.01323 1.31134 1.72801C1.43917 1.47713 1.64315 1.27316 1.89403 1.14532C2.17924 1 2.55261 1 3.29935 1ZM11.2993 12.3333H17.6993C18.4461 12.3333 18.8195 12.3333 19.1047 12.4787C19.3556 12.6065 19.5595 12.8105 19.6874 13.0613C19.8327 13.3466 19.8327 13.7199 19.8327 14.4667V15.5333C19.8327 16.2801 19.8327 16.6534 19.6874 16.9387C19.5595 17.1895 19.3556 17.3935 19.1047 17.5213C18.8195 17.6667 18.4461 17.6667 17.6993 17.6667H11.2993C10.5526 17.6667 10.1792 17.6667 9.89403 17.5213C9.64315 17.3935 9.43917 17.1895 9.31134 16.9387C9.16602 16.6534 9.16602 16.2801 9.16602 15.5333V14.4667C9.16602 13.7199 9.16602 13.3466 9.31134 13.0613C9.43917 12.8105 9.64315 12.6065 9.89403 12.4787C10.1792 12.3333 10.5526 12.3333 11.2993 12.3333Z" stroke="#009A49" stroke-width="2" stroke-linecap="round" stroke-linejoin="round"/>
</svg>
