<svg width="12" height="10" viewBox="0 0 12 10" fill="none" xmlns="http://www.w3.org/2000/svg">
<path d="M11.2071 1.29365C10.7881 1.47988 10.3458 1.59628 9.88023 1.66611C10.3458 1.38677 10.7183 0.944464 10.8812 0.409047C10.4389 0.665116 9.95006 0.851348 9.41465 0.967743C8.99562 0.525442 8.39037 0.246094 7.73856 0.246094C6.48149 0.246094 5.45721 1.27037 5.45721 2.52744C5.45721 2.71367 5.48049 2.87662 5.52705 3.03958C3.64145 2.94646 1.94208 2.03858 0.801411 0.641837C0.615178 0.991022 0.498783 1.36349 0.498783 1.78251C0.498783 2.574 0.894527 3.27237 1.52306 3.69139C1.1506 3.66811 0.801411 3.57499 0.475504 3.41204V3.43532C0.475504 4.55271 1.26699 5.48387 2.31455 5.69338C2.12831 5.73994 1.9188 5.76322 1.70929 5.76322C1.56962 5.76322 1.40666 5.73994 1.26699 5.71666C1.56962 6.62454 2.40766 7.29964 3.40866 7.29964C2.61717 7.90489 1.63945 8.27735 0.56862 8.27735C0.382388 8.27735 0.196156 8.27735 0.0332031 8.25408C1.05748 8.90589 2.24471 9.27835 3.54833 9.27835C7.76184 9.27835 10.0665 5.7865 10.0665 2.76023C10.0665 2.66711 10.0665 2.55072 10.0665 2.4576C10.5088 2.15497 10.9045 1.75923 11.2071 1.29365Z" fill="#1B1B1B"/>
</svg>
