<svg width="23" height="20" viewBox="0 0 23 20" fill="none" xmlns="http://www.w3.org/2000/svg">
<path d="M20 6V14.2C20 15.8802 20 16.7202 19.673 17.362C19.3854 17.9265 18.9265 18.3854 18.362 18.673C17.7202 19 16.8802 19 15.2 19H7.8C6.11984 19 5.27976 19 4.63803 18.673C4.07354 18.3854 3.6146 17.9265 3.32698 17.362C3 16.7202 3 15.8802 3 14.2V6M3.1 1H19.9C20.4601 1 20.7401 1 20.954 1.10899C21.1422 1.20487 21.2951 1.35785 21.391 1.54601C21.5 1.75992 21.5 2.03995 21.5 2.6V4.4C21.5 4.96005 21.5 5.24008 21.391 5.45399C21.2951 5.64215 21.1422 5.79513 20.954 5.89101C20.7401 6 20.4601 6 19.9 6H3.1C2.53995 6 2.25992 6 2.04601 5.89101C1.85785 5.79513 1.70487 5.64215 1.60899 5.45399C1.5 5.24008 1.5 4.96005 1.5 4.4V2.6C1.5 2.03995 1.5 1.75992 1.60899 1.54601C1.70487 1.35785 1.85785 1.20487 2.04601 1.10899C2.25992 1 2.53995 1 3.1 1ZM9.1 9.5H13.9C14.4601 9.5 14.7401 9.5 14.954 9.60899C15.1422 9.70487 15.2951 9.85785 15.391 10.046C15.5 10.2599 15.5 10.5399 15.5 11.1V11.9C15.5 12.4601 15.5 12.7401 15.391 12.954C15.2951 13.1422 15.1422 13.2951 14.954 13.391C14.7401 13.5 14.4601 13.5 13.9 13.5H9.1C8.53995 13.5 8.25992 13.5 8.04601 13.391C7.85785 13.2951 7.70487 13.1422 7.60899 12.954C7.5 12.7401 7.5 12.4601 7.5 11.9V11.1C7.5 10.5399 7.5 10.2599 7.60899 10.046C7.70487 9.85785 7.85785 9.70487 8.04601 9.60899C8.25992 9.5 8.53995 9.5 9.1 9.5Z" stroke="#009A49" stroke-width="1.4" stroke-linecap="round" stroke-linejoin="round"/>
</svg>
