<svg width="32" height="32" viewBox="0 0 32 32" fill="none" xmlns="http://www.w3.org/2000/svg">
<path d="M21.3337 21.3337C21.3337 21.3337 19.3337 18.667 16.0003 18.667C12.667 18.667 10.667 21.3337 10.667 21.3337M22.667 12.3203C22.1403 12.967 21.4203 13.3337 20.667 13.3337C19.9137 13.3337 19.2137 12.967 18.667 12.3203M13.3337 12.3203C12.807 12.967 12.087 13.3337 11.3337 13.3337C10.5803 13.3337 9.88033 12.967 9.33366 12.3203M29.3337 16.0003C29.3337 23.3641 23.3641 29.3337 16.0003 29.3337C8.63653 29.3337 2.66699 23.3641 2.66699 16.0003C2.66699 8.63653 8.63653 2.66699 16.0003 2.66699C23.3641 2.66699 29.3337 8.63653 29.3337 16.0003Z" stroke="#006716" stroke-width="2" stroke-linecap="round" stroke-linejoin="round"/>
</svg>
