<svg width="141" height="45" viewBox="0 0 141 45" fill="none" xmlns="http://www.w3.org/2000/svg">
<path d="M74.1172 11.7386C74.1172 13.3131 72.8488 14.5814 71.2738 14.5814C69.6995 14.5814 68.4312 13.3131 68.4312 11.7386C68.4312 10.1641 69.6558 8.89572 71.2738 8.89572C72.8922 8.93947 74.1172 10.2078 74.1172 11.7386ZM62.3956 17.468C62.3956 17.7304 62.3956 18.1678 62.3956 18.1678C62.3956 18.1678 61.0398 16.4183 58.1532 16.4183C53.3859 16.4183 49.6683 20.0485 49.6683 25.0781C49.6683 30.0641 53.3421 33.7379 58.1532 33.7379C61.0835 33.7379 62.3956 31.9448 62.3956 31.9448V32.6883C62.3956 33.0382 62.658 33.3006 63.0079 33.3006H66.5505V16.8557C66.5505 16.8557 63.3141 16.8557 63.0079 16.8557C62.658 16.8557 62.3956 17.1619 62.3956 17.468ZM62.3956 28.0085C61.7395 28.9707 60.4275 29.8016 58.853 29.8016C56.0538 29.8016 53.9107 28.0522 53.9107 25.0781C53.9107 22.1041 56.0538 20.3547 58.853 20.3547C60.3837 20.3547 61.7833 21.2294 62.3956 22.1478V28.0085ZM69.1747 16.8557H73.3731V33.3006H69.1747V16.8557ZM131.892 16.4183C129.006 16.4183 127.65 18.1678 127.65 18.1678V8.93947H123.452V33.3006C123.452 33.3006 126.688 33.3006 126.994 33.3006C127.344 33.3006 127.606 32.9944 127.606 32.6883V31.9448C127.606 31.9448 128.962 33.7379 131.849 33.7379C136.616 33.7379 140.334 30.0641 140.334 25.0781C140.334 20.0922 136.616 16.4183 131.892 16.4183ZM131.193 29.758C129.575 29.758 128.306 28.9269 127.65 27.9648V22.1041C128.306 21.2294 129.706 20.3109 131.193 20.3109C133.992 20.3109 136.135 22.0603 136.135 25.0344C136.135 28.0085 133.992 29.758 131.193 29.758ZM121.265 23.5474V33.3443H117.066V24.0285C117.066 21.3168 116.191 20.2234 113.83 20.2234C112.561 20.2234 111.249 20.8794 110.418 21.8417V33.3006H106.219V16.8557H109.544C109.894 16.8557 110.155 17.1619 110.155 17.468V18.1678C111.38 16.8995 112.999 16.4183 114.616 16.4183C116.454 16.4183 117.984 16.9432 119.209 17.9929C120.696 19.2175 121.265 20.792 121.265 23.5474ZM96.0286 16.4183C93.1425 16.4183 91.7866 18.1678 91.7866 18.1678V8.93947H87.588V33.3006C87.588 33.3006 90.8241 33.3006 91.13 33.3006C91.48 33.3006 91.7425 32.9944 91.7425 32.6883V31.9448C91.7425 31.9448 93.0984 33.7379 95.9852 33.7379C100.752 33.7379 104.47 30.0641 104.47 25.0781C104.513 20.0922 100.796 16.4183 96.0286 16.4183ZM95.3293 29.758C93.7109 29.758 92.4425 28.9269 91.7866 27.9648V22.1041C92.4425 21.2294 93.8418 20.3109 95.3293 20.3109C98.1279 20.3109 100.271 22.0603 100.271 25.0344C100.271 28.0085 98.1279 29.758 95.3293 29.758ZM83.9578 16.4183C85.2262 16.4183 85.8821 16.637 85.8821 16.637V20.5296C85.8821 20.5296 82.3828 19.3487 80.196 21.8417V33.3443H75.9974V16.8557C75.9974 16.8557 79.2342 16.8557 79.5401 16.8557C79.8901 16.8557 80.1526 17.1619 80.1526 17.468V18.1678C80.9401 17.2493 82.6453 16.4183 83.9578 16.4183ZM40.3524 31.8135C40.1338 31.2887 39.9151 30.7201 39.6964 30.239C39.3465 29.4518 38.9966 28.7082 38.6905 28.0085L38.6468 27.9648C35.6289 21.4043 32.3925 14.7564 28.981 8.19593L28.8498 7.9335C28.4999 7.27746 28.15 6.57767 27.8001 5.8779C27.3628 5.09064 26.9254 4.25965 26.2256 3.4724C24.8261 1.72294 22.8142 0.760742 20.6711 0.760742C18.4843 0.760742 16.5162 1.72294 15.0729 3.38492C14.4168 4.17218 13.9357 5.00317 13.4983 5.79042C13.1485 6.4902 12.7986 7.18998 12.4487 7.846L12.3174 8.10843C8.94981 14.6689 5.66956 21.3168 2.65175 27.8773L2.60801 27.9648C2.30186 28.6646 1.95197 29.408 1.60207 30.1953C1.38339 30.6764 1.16471 31.2012 0.946031 31.7698C0.377459 33.388 0.202514 34.9188 0.421196 36.4934C0.902295 39.7736 3.08911 42.529 6.10692 43.7536C7.24406 44.2347 8.42495 44.4533 9.64953 44.4533C9.99946 44.4533 10.4368 44.4096 10.7867 44.3658C12.23 44.1909 13.717 43.7098 15.1604 42.8788C16.9535 41.8729 18.6592 40.4296 20.5837 38.3302C22.508 40.4296 24.2575 41.8729 26.0069 42.8788C27.4503 43.7098 28.9373 44.1909 30.3806 44.3658C30.7305 44.4096 31.1678 44.4533 31.5177 44.4533C32.7423 44.4533 33.967 44.2347 35.0604 43.7536C38.1219 42.529 40.265 39.7298 40.7461 36.4934C41.096 34.9625 40.9211 33.4318 40.3524 31.8135ZM20.6274 34.0878C18.2656 31.1138 16.7349 28.3146 16.21 25.9529C15.9913 24.9469 15.9476 24.0722 16.0788 23.285C16.1663 22.5852 16.4287 21.9728 16.7786 21.4481C17.6096 20.2672 19.0092 19.5236 20.6274 19.5236C22.2456 19.5236 23.6889 20.2234 24.4762 21.4481C24.8261 21.9728 25.0885 22.5852 25.176 23.285C25.3072 24.0722 25.2635 24.9907 25.0448 25.9529C24.5199 28.2709 22.9892 31.07 20.6274 34.0878ZM38.0781 36.1434C37.772 38.4177 36.2413 40.3859 34.0982 41.2606C33.0485 41.6979 31.9114 41.8292 30.7742 41.6979C29.6808 41.5668 28.5874 41.2168 27.4503 40.5608C25.8757 39.6861 24.3012 38.3302 22.4643 36.3184C25.3509 32.7757 27.1004 29.5393 27.7564 26.6526C28.0625 25.2969 28.1063 24.0722 27.9751 22.9351C27.8001 21.8417 27.4065 20.8357 26.7942 19.961C25.4384 17.9929 23.1641 16.8557 20.6274 16.8557C18.0907 16.8557 15.8164 18.0366 14.4606 19.961C13.8483 20.8357 13.4546 21.8417 13.2797 22.9351C13.1047 24.0722 13.1485 25.3405 13.4983 26.6526C14.1544 29.5393 15.9476 32.8195 18.7905 36.3621C16.9973 38.374 15.379 39.7298 13.8045 40.6045C12.6674 41.2606 11.574 41.6105 10.4806 41.7417C9.29967 41.8729 8.16252 41.6979 7.15659 41.3043C5.01351 40.4296 3.48274 38.4615 3.17658 36.1872C3.04538 35.0938 3.13285 34.0004 3.57021 32.7757C3.70142 32.3384 3.9201 31.901 4.13878 31.3762C4.44494 30.6764 4.79483 29.9329 5.14472 29.1894L5.18845 29.1019C8.20627 22.5852 11.4427 15.9372 14.8104 9.46426L14.9417 9.20183C15.2915 8.54579 15.6415 7.846 15.9913 7.18998C16.3413 6.4902 16.7349 5.83416 17.216 5.26559C18.1344 4.21591 19.359 3.64734 20.7149 3.64734C22.0707 3.64734 23.2953 4.21591 24.2137 5.26559C24.6948 5.83416 25.0885 6.4902 25.4384 7.18998C25.7882 7.846 26.1382 8.54579 26.488 9.20183L26.6193 9.46426C29.9432 15.981 33.1797 22.6289 36.1975 29.1456V29.1894C36.5474 29.8891 36.8536 30.6764 37.2034 31.3762C37.4221 31.901 37.6408 32.3384 37.772 32.7757C38.1219 33.9129 38.2531 35.0063 38.0781 36.1434Z" fill="#F8FAFB"/>
</svg>
