<svg width="150" height="28" viewBox="0 0 150 28" fill="none" xmlns="http://www.w3.org/2000/svg">
<path d="M30.274 7.79121C24.8248 7.79121 20.5671 11.9277 20.5671 17.4654C20.5671 23.0031 24.7172 27.1042 30.274 27.1042C35.8307 27.1042 40.053 22.9323 40.053 17.43C40.053 11.9631 35.9028 7.79121 30.274 7.79121ZM30.3107 23.1134C27.2076 23.1134 24.9338 20.7033 24.9338 17.4668C24.9338 14.1935 27.1708 11.7848 30.274 11.7848C33.4138 11.7848 35.6863 14.2302 35.6863 17.4668C35.6863 20.7033 33.4138 23.1134 30.3107 23.1134ZM41.243 12H43.9499V26.7461H48.2798V8.15067H41.243V12ZM9.67013 11.7834C11.944 11.7834 13.7482 13.1859 14.433 15.2718H19.0162C18.1856 10.8126 14.5052 7.79121 9.70687 7.79121C4.25774 7.79121 0 11.9277 0 17.4668C0 23.0058 4.15018 27.1056 9.70687 27.1056C14.3976 27.1056 18.1502 24.0842 18.9808 19.5882H14.433C13.7836 21.6741 11.9794 23.1134 9.70552 23.1134C6.56566 23.1134 4.36531 20.7033 4.36531 17.4668C4.36667 14.1935 6.53162 11.7834 9.67013 11.7834ZM123.514 15.6681L120.339 15.201C118.823 14.9859 117.741 14.4822 117.741 13.2948C117.741 12 119.149 11.3532 121.061 11.3532C123.153 11.3532 124.489 12.2518 124.777 13.7265H128.963C128.494 9.98615 125.607 7.79257 121.169 7.79257C116.586 7.79257 113.555 10.1304 113.555 13.4391C113.555 16.6035 115.541 18.4389 119.545 19.0136L122.72 19.4806C124.273 19.6957 125.138 20.3085 125.138 21.459C125.138 22.9336 123.623 23.545 121.53 23.545C118.968 23.545 117.524 22.502 117.308 20.9198H113.05C113.448 24.5526 116.297 27.1056 121.493 27.1056C126.221 27.1056 129.359 24.9474 129.359 21.2425C129.359 17.9338 127.087 16.2073 123.514 15.6681ZM46.1149 0.490279C44.5273 0.490279 43.3358 1.64084 43.3358 3.22302C43.3358 4.80521 44.5258 5.95577 46.1149 5.95577C47.7025 5.95577 48.8939 4.80521 48.8939 3.22302C48.8939 1.64084 47.7025 0.490279 46.1149 0.490279ZM109.658 14.5176C109.658 10.4899 107.205 7.79257 102.009 7.79257C97.1017 7.79257 94.359 10.2747 93.8175 14.0873H98.112C98.3287 12.6126 99.483 11.3899 101.937 11.3899C104.138 11.3899 105.221 12.3608 105.221 13.548C105.221 15.0948 103.236 15.4897 100.782 15.7416C97.4625 16.1011 93.3487 17.2516 93.3487 21.5679C93.3487 24.9134 95.8395 27.0702 99.8085 27.0702C102.911 27.0702 104.86 25.7753 105.835 23.7247C105.98 25.5588 107.35 26.7461 109.264 26.7461H111.789V22.8982H109.66V14.5176H109.658ZM105.4 19.1933C105.4 21.6755 103.236 23.5096 100.601 23.5096C98.9767 23.5096 97.6058 22.8261 97.6058 21.3882C97.6058 19.5541 99.807 19.0503 101.827 18.8352C103.776 18.6555 104.859 18.2238 105.4 17.396V19.1933ZM82.4153 7.79121C79.9973 7.79121 77.9767 8.79882 76.533 10.4886V0.310547H72.2033V26.7461H76.461V24.3007C77.904 26.0626 79.962 27.1056 82.4153 27.1056C87.6113 27.1056 91.545 23.0058 91.545 17.4668C91.545 11.9277 87.5393 7.79121 82.4153 7.79121ZM81.7658 23.1134C78.663 23.1134 76.389 20.7033 76.389 17.4668C76.389 14.2302 78.6982 11.7848 81.801 11.7848C84.9413 11.7848 87.1418 14.1948 87.1418 17.4668C87.1418 20.7033 84.8693 23.1134 81.7658 23.1134ZM61.8469 7.79121C59.0324 7.79121 57.1916 8.94177 56.1091 10.5607V8.15067H51.8146V26.7447H56.1445V16.6389C56.1445 13.7973 57.9486 11.7834 60.6187 11.7834C63.1091 11.7834 64.66 13.5453 64.66 16.0997V26.7461H68.9899V15.777C68.9912 11.0999 66.5743 7.79121 61.8469 7.79121ZM150 16.8554C150 11.5329 146.103 7.79257 140.87 7.79257C135.313 7.79257 131.236 11.9645 131.236 17.4668C131.236 23.2577 135.602 27.1056 140.942 27.1056C145.454 27.1056 148.99 24.4437 149.891 20.6679H145.38C144.73 22.3223 143.143 23.2577 141.014 23.2577C138.234 23.2577 136.141 21.5312 135.673 18.5097H149.999V16.8554H150ZM135.926 15.4162C136.613 12.8264 138.561 11.5683 140.798 11.5683C143.252 11.5683 145.128 12.9708 145.561 15.4162H135.926Z" fill="#F8FAFB"/>
</svg>
