<svg width="622" height="450" viewBox="0 0 622 450" fill="none" xmlns="http://www.w3.org/2000/svg">
<g clip-path="url(#clip0_1939_24752)">
<path d="M0 48C0 21.4903 21.4903 0 48 0H622V450H0V48Z" fill="#FAFAFA"/>
<g clip-path="url(#clip1_1939_24752)">
<rect x="21" y="7" width="779" height="571" rx="24" fill="white"/>
<g clip-path="url(#clip2_1939_24752)">
<path d="M40.1946 106.175H759.377C762.96 106.175 764.752 106.175 766.12 106.873C767.324 107.486 768.303 108.465 768.917 109.669C769.614 111.038 769.614 112.829 769.614 116.413V512.368C769.614 515.952 769.614 517.743 768.917 519.112C768.303 520.316 767.324 521.295 766.12 521.908C764.752 522.606 762.96 522.606 759.377 522.606H50.4321C46.8486 522.606 45.0569 522.606 43.6882 521.908C42.4842 521.295 41.5054 520.316 40.892 519.112C40.1946 517.743 40.1946 515.952 40.1946 512.368V106.175Z" fill="#F6F8FA"/>
<rect width="727.287" height="42.6561" transform="translate(42.3274 106.175)" fill="white"/>
<g clip-path="url(#clip3_1939_24752)">
<rect width="727.287" height="42.6561" transform="translate(42.3274 106.175)" fill="white"/>
<mask id="path-6-inside-1_1939_24752" fill="white">
<path d="M42.3274 106.175H206.553V148.832H42.3274V106.175Z"/>
</mask>
<path d="M42.3274 106.175H206.553V148.832H42.3274V106.175Z" fill="white"/>
<path d="M206.553 148.832V149.365H207.087V148.832H206.553ZM206.02 106.175V148.832H207.087V106.175H206.02ZM206.553 148.298H42.3274V149.365H206.553V148.298Z" fill="#E9EEF3" mask="url(#path-6-inside-1_1939_24752)"/>
<rect width="55" height="15" transform="translate(52.9915 120.003)" fill="white"/>
<path d="M55.1849 131.003H54.014V124.199H55.1849V131.003ZM61.7016 125.283H59.4846V131.003H58.3329V125.283H56.1254V124.199H61.7016V125.283ZM66.85 131.003H62.6462V124.199H66.85V125.274H63.798V127.078H66.5621V128.124H63.798V129.929H66.85V131.003ZM75.7185 131.003H74.5764V125.994L72.4553 131.003H71.4572L69.3553 126.013V131.003H68.2324V124.199H69.768L71.9754 129.391L74.1541 124.199H75.7185V131.003ZM85.4432 131.003H84.2435L80.8844 125.85V131.003H79.7326V124.199H81.2011L84.2915 129.026V124.199H85.4432V131.003ZM91.7263 131.003L91.0833 129.295H88.204L87.5705 131.003H86.3516L89.0006 124.199H90.3346L92.9836 131.003H91.7263ZM89.6436 125.446L88.6071 128.23H90.6802L89.6436 125.446ZM101.381 131.003H100.239V125.994L98.1177 131.003H97.1196L95.0177 126.013V131.003H93.8948V124.199H95.4304L97.6378 129.391L99.8165 124.199H101.381V131.003ZM107.218 131.003H103.014V124.199H107.218V125.274H104.166V127.078H106.93V128.124H104.166V129.929H107.218V131.003Z" fill="#090F1C"/>
<rect width="6.39842" height="6.39842" transform="translate(114.39 124.304)" fill="white"/>
<mask id="path-9-inside-2_1939_24752" fill="white">
<path d="M206.553 106.175H370.779V148.832H206.553V106.175Z"/>
</mask>
<path d="M206.553 106.175H370.779V148.832H206.553V106.175Z" fill="white"/>
<path d="M370.779 148.832V149.365H371.313V148.832H370.779ZM370.246 106.175V148.832H371.313V106.175H370.246ZM370.779 148.298H206.553V149.365H370.779V148.298Z" fill="#E9EEF3" mask="url(#path-9-inside-2_1939_24752)"/>
<rect width="49" height="15" transform="translate(264.167 120.003)" fill="white"/>
<path d="M269.651 125.792L268.615 126.118C268.57 125.856 268.439 125.616 268.221 125.398C268.004 125.181 267.69 125.072 267.281 125.072C266.942 125.072 266.66 125.168 266.436 125.36C266.219 125.552 266.11 125.782 266.11 126.051C266.11 126.518 266.375 126.809 266.907 126.924L267.885 127.126C268.474 127.241 268.928 127.475 269.248 127.827C269.568 128.179 269.728 128.598 269.728 129.084C269.728 129.647 269.511 130.133 269.076 130.543C268.647 130.946 268.061 131.147 267.319 131.147C266.519 131.147 265.896 130.939 265.448 130.524C265 130.101 264.747 129.612 264.689 129.055L265.764 128.748C265.803 129.132 265.956 129.455 266.225 129.717C266.494 129.98 266.859 130.111 267.319 130.111C267.716 130.111 268.02 130.025 268.231 129.852C268.449 129.673 268.557 129.445 268.557 129.17C268.557 128.946 268.477 128.754 268.317 128.594C268.157 128.428 267.933 128.313 267.646 128.249L266.686 128.047C266.155 127.939 265.732 127.718 265.419 127.385C265.112 127.052 264.958 126.637 264.958 126.137C264.958 125.568 265.185 125.079 265.64 124.669C266.094 124.26 266.638 124.055 267.271 124.055C267.994 124.055 268.548 124.231 268.932 124.583C269.316 124.928 269.555 125.331 269.651 125.792ZM275.099 131.003L272.978 128.057L272.076 129.046V131.003H270.924V124.199H272.076V127.462L275.003 124.199H276.52L273.765 127.203L276.549 131.003H275.099ZM281.7 130.485C281.227 130.927 280.619 131.147 279.877 131.147C279.134 131.147 278.527 130.927 278.053 130.485C277.58 130.044 277.343 129.426 277.343 128.633V124.199H278.485V128.566C278.485 129.039 278.607 129.407 278.85 129.669C279.099 129.925 279.442 130.053 279.877 130.053C280.318 130.053 280.66 129.925 280.904 129.669C281.147 129.413 281.268 129.046 281.268 128.566V124.199H282.42V128.633C282.42 129.426 282.18 130.044 281.7 130.485ZM289.375 131.147C288.422 131.147 287.609 130.824 286.937 130.178C286.272 129.532 285.939 128.674 285.939 127.606C285.939 126.544 286.278 125.686 286.956 125.034C287.635 124.381 288.438 124.055 289.365 124.055C290.184 124.055 290.856 124.263 291.381 124.679C291.912 125.095 292.261 125.622 292.427 126.262L291.343 126.627C291.234 126.185 291.013 125.827 290.68 125.552C290.348 125.277 289.909 125.139 289.365 125.139C288.758 125.139 288.23 125.357 287.782 125.792C287.34 126.221 287.12 126.825 287.12 127.606C287.12 128.367 287.34 128.966 287.782 129.401C288.223 129.829 288.754 130.044 289.375 130.044C289.906 130.044 290.344 129.9 290.69 129.612C291.035 129.324 291.272 128.969 291.4 128.546L292.456 128.892C292.29 129.525 291.938 130.06 291.4 130.495C290.869 130.93 290.194 131.147 289.375 131.147ZM294.99 125.792C294.542 126.221 294.318 126.822 294.318 127.596C294.318 128.371 294.542 128.975 294.99 129.41C295.438 129.839 295.972 130.053 296.592 130.053C297.213 130.053 297.747 129.839 298.195 129.41C298.65 128.975 298.877 128.371 298.877 127.596C298.877 126.822 298.65 126.221 298.195 125.792C297.747 125.357 297.213 125.139 296.592 125.139C295.972 125.139 295.438 125.357 294.99 125.792ZM293.627 129.497C293.301 128.946 293.137 128.313 293.137 127.596C293.137 126.88 293.301 126.249 293.627 125.706C293.96 125.155 294.385 124.743 294.903 124.467C295.422 124.192 295.985 124.055 296.592 124.055C297.2 124.055 297.763 124.192 298.282 124.467C298.8 124.743 299.225 125.155 299.558 125.706C299.891 126.249 300.057 126.88 300.057 127.596C300.057 128.313 299.891 128.946 299.558 129.497C299.225 130.047 298.8 130.46 298.282 130.735C297.763 131.01 297.2 131.147 296.592 131.147C295.985 131.147 295.422 131.01 294.903 130.735C294.385 130.46 293.96 130.047 293.627 129.497ZM302.425 129.948H303.634C304.261 129.948 304.776 129.749 305.179 129.353C305.589 128.95 305.794 128.371 305.794 127.616C305.794 126.854 305.592 126.272 305.189 125.869C304.786 125.459 304.271 125.255 303.644 125.255H302.425V129.948ZM303.673 131.003H301.273V124.199H303.682C304.642 124.199 305.432 124.503 306.053 125.111C306.68 125.718 306.993 126.553 306.993 127.616C306.993 128.671 306.68 129.5 306.053 130.101C305.426 130.703 304.632 131.003 303.673 131.003ZM312.403 131.003H308.2V124.199H312.403V125.274H309.351V127.078H312.115V128.124H309.351V129.929H312.403V131.003Z" fill="#090F1C"/>
<mask id="path-12-inside-3_1939_24752" fill="white">
<path d="M370.78 106.175H520.076V148.832H370.78V106.175Z"/>
</mask>
<path d="M370.78 106.175H520.076V148.832H370.78V106.175Z" fill="white"/>
<path d="M520.076 148.832V149.365H520.609V148.832H520.076ZM519.543 106.175V148.832H520.609V106.175H519.543ZM520.076 148.298H370.78V149.365H520.076V148.298Z" fill="#E9EEF3" mask="url(#path-12-inside-3_1939_24752)"/>
<rect width="28" height="15" transform="translate(431.428 120.003)" fill="white"/>
<path d="M433.702 127.328H434.901C435.266 127.328 435.551 127.235 435.756 127.049C435.967 126.857 436.072 126.601 436.072 126.281C436.072 125.955 435.967 125.696 435.756 125.504C435.551 125.312 435.266 125.216 434.901 125.216H433.702V127.328ZM435.074 128.345H433.702V131.003H432.55V124.199H435.074C435.72 124.199 436.242 124.394 436.639 124.784C437.042 125.175 437.243 125.67 437.243 126.272C437.243 126.88 437.042 127.379 436.639 127.769C436.242 128.153 435.72 128.345 435.074 128.345ZM441.741 131.003L440.311 128.316H439.466V131.003H438.305V124.199H440.915C441.555 124.199 442.07 124.397 442.461 124.794C442.851 125.184 443.046 125.674 443.046 126.262C443.046 126.749 442.909 127.164 442.633 127.51C442.358 127.855 441.984 128.086 441.51 128.201L443.046 131.003H441.741ZM439.466 127.299H440.704C441.056 127.299 441.338 127.206 441.549 127.02C441.766 126.829 441.875 126.576 441.875 126.262C441.875 125.942 441.766 125.69 441.549 125.504C441.338 125.312 441.056 125.216 440.704 125.216H439.466V127.299ZM445.446 131.003H444.275V124.199H445.446V131.003ZM450.101 131.147C449.148 131.147 448.335 130.824 447.663 130.178C446.998 129.532 446.665 128.674 446.665 127.606C446.665 126.544 447.004 125.686 447.682 125.034C448.361 124.381 449.164 124.055 450.091 124.055C450.91 124.055 451.582 124.263 452.107 124.679C452.638 125.095 452.987 125.622 453.153 126.262L452.068 126.627C451.96 126.185 451.739 125.827 451.406 125.552C451.074 125.277 450.635 125.139 450.091 125.139C449.484 125.139 448.956 125.357 448.508 125.792C448.066 126.221 447.846 126.825 447.846 127.606C447.846 128.367 448.066 128.966 448.508 129.401C448.949 129.829 449.48 130.044 450.101 130.044C450.632 130.044 451.07 129.9 451.416 129.612C451.761 129.324 451.998 128.969 452.126 128.546L453.182 128.892C453.015 129.525 452.664 130.06 452.126 130.495C451.595 130.93 450.92 131.147 450.101 131.147ZM458.555 131.003H454.351V124.199H458.555V125.274H455.503V127.078H458.267V128.124H455.503V129.929H458.555V131.003Z" fill="#090F1C"/>
<mask id="path-15-inside-4_1939_24752" fill="white">
<path d="M520.076 106.175H625.65V148.832H520.076V106.175Z"/>
</mask>
<path d="M520.076 106.175H625.65V148.832H520.076V106.175Z" fill="white"/>
<path d="M625.65 148.832V149.365H626.183V148.832H625.65ZM625.116 106.175V148.832H626.183V106.175H625.116ZM625.65 148.298H520.076V149.365H625.65V148.298Z" fill="#E9EEF3" mask="url(#path-15-inside-4_1939_24752)"/>
<rect width="49" height="15" transform="translate(548.363 120.003)" fill="white"/>
<path d="M549.288 129.497C548.962 128.946 548.799 128.313 548.799 127.596C548.799 126.88 548.962 126.249 549.288 125.706C549.621 125.155 550.046 124.743 550.564 124.467C551.083 124.192 551.646 124.055 552.254 124.055C552.862 124.055 553.425 124.192 553.943 124.467C554.461 124.743 554.887 125.155 555.219 125.706C555.552 126.249 555.718 126.88 555.718 127.596C555.718 128.562 555.424 129.372 554.835 130.025L555.642 130.927L554.864 131.589L554.029 130.677C553.492 130.991 552.9 131.147 552.254 131.147C551.646 131.147 551.083 131.01 550.564 130.735C550.046 130.46 549.621 130.047 549.288 129.497ZM550.651 125.792C550.203 126.221 549.979 126.822 549.979 127.596C549.979 128.371 550.203 128.975 550.651 129.41C551.099 129.839 551.633 130.053 552.254 130.053C552.631 130.053 552.97 129.98 553.271 129.833L552.148 128.585L552.935 127.913L554.068 129.17C554.381 128.742 554.538 128.217 554.538 127.596C554.538 126.822 554.311 126.221 553.856 125.792C553.409 125.357 552.874 125.139 552.254 125.139C551.633 125.139 551.099 125.357 550.651 125.792ZM561.215 130.485C560.741 130.927 560.134 131.147 559.391 131.147C558.649 131.147 558.041 130.927 557.568 130.485C557.094 130.044 556.858 129.426 556.858 128.633V124.199H558V128.566C558 129.039 558.121 129.407 558.364 129.669C558.614 129.925 558.956 130.053 559.391 130.053C559.833 130.053 560.175 129.925 560.418 129.669C560.661 129.413 560.783 129.046 560.783 128.566V124.199H561.935V128.633C561.935 129.426 561.695 130.044 561.215 130.485ZM567.869 131.003L567.226 129.295H564.347L563.713 131.003H562.494L565.143 124.199H566.477L569.126 131.003H567.869ZM565.786 125.446L564.75 128.23H566.823L565.786 125.446ZM575.748 131.003H574.548L571.189 125.85V131.003H570.037V124.199H571.506L574.596 129.026V124.199H575.748V131.003ZM582.261 125.283H580.044V131.003H578.893V125.283H576.685V124.199H582.261V125.283ZM584.377 131.003H583.206V124.199H584.377V131.003ZM590.894 125.283H588.676V131.003H587.525V125.283H585.317V124.199H590.894V125.283ZM593.686 128.124L591.306 124.199H592.669L594.3 127.049L595.941 124.199H597.237L594.838 128.124V131.003H593.686V128.124Z" fill="#090F1C"/>
</g>
<g clip-path="url(#clip4_1939_24752)">
<rect width="727.287" height="341.249" transform="translate(42.3274 148.832)" fill="white"/>
<g clip-path="url(#clip5_1939_24752)">
<mask id="path-18-inside-5_1939_24752" fill="white">
<path d="M42.3274 148.832H206.553V490.08H42.3274V148.832Z"/>
</mask>
<mask id="path-20-inside-6_1939_24752" fill="white">
<path d="M42.3274 148.832H206.553V182.956H42.3274V148.832Z"/>
</mask>
<path d="M42.3274 148.832H206.553V182.956H42.3274V148.832Z" fill="white"/>
<path d="M206.553 182.423H42.3274V183.49H206.553V182.423Z" fill="#E9EEF3" mask="url(#path-20-inside-6_1939_24752)"/>
<path d="M58.7714 164.05L57.8329 164.381C57.7832 164.054 57.6232 163.759 57.353 163.496C57.0829 163.225 56.7096 163.09 56.2333 163.09C55.8139 163.09 55.4655 163.211 55.1882 163.453C54.911 163.695 54.7723 163.993 54.7723 164.349C54.7723 164.626 54.8541 164.861 55.0176 165.053C55.1882 165.244 55.43 165.376 55.7428 165.447L56.8732 165.692C57.4988 165.827 57.9822 166.083 58.3235 166.46C58.6647 166.83 58.8353 167.281 58.8353 167.814C58.8353 168.426 58.5936 168.952 58.1102 169.393C57.6268 169.834 56.9976 170.054 56.2227 170.054C55.3766 170.054 54.7119 169.834 54.2285 169.393C53.7522 168.945 53.4749 168.415 53.3967 167.804L54.3991 167.484C54.4418 167.939 54.6195 168.323 54.9323 168.636C55.2451 168.948 55.6717 169.105 56.212 169.105C56.7096 169.105 57.0936 168.991 57.3637 168.764C57.6339 168.536 57.7689 168.248 57.7689 167.9C57.7689 167.615 57.673 167.37 57.481 167.164C57.2891 166.951 57.0082 166.805 56.6386 166.727L55.5615 166.492C54.9998 166.371 54.552 166.133 54.2178 165.778C53.8837 165.422 53.7166 164.971 53.7166 164.423C53.7166 163.826 53.9583 163.304 54.4418 162.856C54.9323 162.401 55.5224 162.173 56.212 162.173C56.9869 162.173 57.5805 162.362 57.9929 162.738C58.4052 163.115 58.6647 163.552 58.7714 164.05ZM61.1175 168.678C61.4303 168.998 61.8107 169.158 62.2586 169.158C62.7065 169.158 63.0833 168.998 63.389 168.678C63.7018 168.351 63.8582 167.9 63.8582 167.324C63.8582 166.755 63.7018 166.311 63.389 165.991C63.0833 165.664 62.7065 165.5 62.2586 165.5C61.8107 165.5 61.4303 165.664 61.1175 165.991C60.8118 166.311 60.659 166.755 60.659 167.324C60.659 167.9 60.8118 168.351 61.1175 168.678ZM60.371 165.383C60.8687 164.864 61.4979 164.605 62.2586 164.605C63.0193 164.605 63.6449 164.864 64.1354 165.383C64.6331 165.895 64.8819 166.542 64.8819 167.324C64.8819 168.113 64.6367 168.767 64.1461 169.286C63.6556 169.798 63.0264 170.054 62.2586 170.054C61.4908 170.054 60.8616 169.798 60.371 169.286C59.8805 168.767 59.6352 168.113 59.6352 167.324C59.6352 166.542 59.8805 165.895 60.371 165.383ZM67.1669 169.894H66.1644V162.173H67.1669V169.894ZM68.5522 168.518C68.5522 168.078 68.6944 167.726 68.9787 167.463C69.2631 167.192 69.6399 167.025 70.1091 166.961L71.4955 166.759C71.7585 166.723 71.89 166.595 71.89 166.375C71.89 166.105 71.7976 165.884 71.6128 165.714C71.4279 165.543 71.1507 165.458 70.781 165.458C70.4397 165.458 70.1696 165.554 69.9705 165.746C69.7714 165.931 69.6541 166.179 69.6186 166.492L68.6588 166.268C68.7086 165.778 68.9325 165.38 69.3307 165.074C69.7288 164.761 70.2051 164.605 70.7596 164.605C71.4848 164.605 72.0216 164.782 72.3699 165.138C72.7183 165.486 72.8924 165.934 72.8924 166.481V169.052C72.8924 169.357 72.9138 169.638 72.9564 169.894H71.9753C71.9398 169.681 71.922 169.45 71.922 169.201C71.7798 169.428 71.5701 169.627 71.2928 169.798C71.0227 169.969 70.6814 170.054 70.2691 170.054C69.7643 170.054 69.352 169.905 69.0321 169.606C68.7121 169.3 68.5522 168.938 68.5522 168.518ZM70.4077 169.211C70.8556 169.211 71.2146 169.091 71.4848 168.849C71.755 168.607 71.89 168.223 71.89 167.697V167.463L70.3224 167.697C70.0949 167.733 69.9136 167.814 69.7786 167.942C69.6435 168.07 69.5759 168.245 69.5759 168.465C69.5759 168.664 69.6506 168.838 69.7999 168.988C69.9563 169.137 70.1589 169.211 70.4077 169.211ZM76.6082 165.532C76.1745 165.532 75.8048 165.689 75.4991 166.002C75.2005 166.314 75.0512 166.755 75.0512 167.324C75.0512 167.886 75.2005 168.326 75.4991 168.646C75.8048 168.966 76.1781 169.126 76.6189 169.126C77.0454 169.126 77.3689 169.02 77.5893 168.806C77.8168 168.593 77.9696 168.348 78.0478 168.07L78.933 168.454C78.7908 168.881 78.5206 169.254 78.1225 169.574C77.7315 169.894 77.2303 170.054 76.6189 170.054C75.8724 170.054 75.2539 169.794 74.7633 169.275C74.2728 168.756 74.0275 168.106 74.0275 167.324C74.0275 166.528 74.2728 165.877 74.7633 165.372C75.2539 164.861 75.8688 164.605 76.6082 164.605C77.2338 164.605 77.7386 164.765 78.1225 165.085C78.5135 165.404 78.7694 165.788 78.8903 166.236L77.9839 166.62C77.9057 166.322 77.7564 166.066 77.536 165.852C77.3156 165.639 77.0063 165.532 76.6082 165.532ZM80.7073 166.801H83.512C83.4978 166.418 83.3698 166.105 83.1281 165.863C82.8864 165.614 82.5451 165.49 82.1043 165.49C81.7062 165.49 81.3792 165.621 81.1232 165.884C80.8673 166.14 80.7287 166.446 80.7073 166.801ZM83.6613 168.134L84.5251 168.433C84.3758 168.909 84.0985 169.3 83.6933 169.606C83.288 169.905 82.7975 170.054 82.2216 170.054C81.5036 170.054 80.8922 169.809 80.3874 169.318C79.8898 168.82 79.6409 168.152 79.6409 167.313C79.6409 166.531 79.8827 165.884 80.3661 165.372C80.8495 164.861 81.4254 164.605 82.0937 164.605C82.8686 164.605 83.4729 164.85 83.9066 165.34C84.3402 165.824 84.5571 166.474 84.5571 167.292C84.5571 167.42 84.55 167.527 84.5357 167.612H80.6754C80.6825 168.067 80.8318 168.44 81.1232 168.732C81.4218 169.023 81.788 169.169 82.2216 169.169C82.9539 169.169 83.4338 168.824 83.6613 168.134ZM92.523 169.894L90.7954 166.801H89.665V169.894H88.6093V162.333H91.4566C92.1533 162.333 92.7114 162.55 93.1309 162.984C93.5574 163.41 93.7707 163.943 93.7707 164.583C93.7707 165.131 93.6072 165.6 93.2802 165.991C92.9531 166.375 92.5052 166.62 91.9365 166.727L93.7387 169.894H92.523ZM89.665 165.863H91.2647C91.6912 165.863 92.036 165.749 92.2991 165.522C92.5621 165.287 92.6936 164.974 92.6936 164.583C92.6936 164.185 92.5621 163.869 92.2991 163.634C92.036 163.392 91.6912 163.272 91.2647 163.272H89.665V165.863ZM95.5474 166.801H98.3521C98.3378 166.418 98.2099 166.105 97.9682 165.863C97.7264 165.614 97.3852 165.49 96.9444 165.49C96.5463 165.49 96.2193 165.621 95.9633 165.884C95.7074 166.14 95.5688 166.446 95.5474 166.801ZM98.5014 168.134L99.3651 168.433C99.2159 168.909 98.9386 169.3 98.5334 169.606C98.1281 169.905 97.6376 170.054 97.0617 170.054C96.3437 170.054 95.7323 169.809 95.2275 169.318C94.7298 168.82 94.481 168.152 94.481 167.313C94.481 166.531 94.7227 165.884 95.2062 165.372C95.6896 164.861 96.2655 164.605 96.9337 164.605C97.7087 164.605 98.313 164.85 98.7466 165.34C99.1803 165.824 99.3971 166.474 99.3971 167.292C99.3971 167.42 99.39 167.527 99.3758 167.612H95.5154C95.5225 168.067 95.6718 168.44 95.9633 168.732C96.2619 169.023 96.628 169.169 97.0617 169.169C97.794 169.169 98.2739 168.824 98.5014 168.134ZM102.831 165.532C102.397 165.532 102.028 165.689 101.722 166.002C101.423 166.314 101.274 166.755 101.274 167.324C101.274 167.886 101.423 168.326 101.722 168.646C102.028 168.966 102.401 169.126 102.842 169.126C103.268 169.126 103.592 169.02 103.812 168.806C104.039 168.593 104.192 168.348 104.271 168.07L105.156 168.454C105.013 168.881 104.743 169.254 104.345 169.574C103.954 169.894 103.453 170.054 102.842 170.054C102.095 170.054 101.477 169.794 100.986 169.275C100.495 168.756 100.25 168.106 100.25 167.324C100.25 166.528 100.495 165.877 100.986 165.372C101.477 164.861 102.091 164.605 102.831 164.605C103.456 164.605 103.961 164.765 104.345 165.085C104.736 165.404 104.992 165.788 105.113 166.236L104.207 166.62C104.128 166.322 103.979 166.066 103.759 165.852C103.538 165.639 103.229 165.532 102.831 165.532ZM107.334 169.894H106.332V162.173H107.334V169.894ZM110.031 169.894H109.039V164.765H110.031V169.894ZM109.018 163.336C108.883 163.193 108.815 163.023 108.815 162.824C108.815 162.625 108.883 162.454 109.018 162.312C109.16 162.17 109.331 162.099 109.53 162.099C109.729 162.099 109.899 162.17 110.042 162.312C110.184 162.447 110.255 162.618 110.255 162.824C110.255 163.023 110.184 163.193 110.042 163.336C109.899 163.471 109.729 163.538 109.53 163.538C109.331 163.538 109.16 163.471 109.018 163.336ZM112.739 166.929V169.894H111.737V164.765H112.718V165.5C113.059 164.91 113.585 164.615 114.296 164.615C114.886 164.615 115.337 164.804 115.65 165.18C115.97 165.557 116.13 166.044 116.13 166.641V169.894H115.128V166.812C115.128 165.952 114.73 165.522 113.933 165.522C113.556 165.522 113.261 165.657 113.048 165.927C112.842 166.19 112.739 166.524 112.739 166.929ZM118.375 166.801H121.18C121.166 166.418 121.038 166.105 120.796 165.863C120.554 165.614 120.213 165.49 119.772 165.49C119.374 165.49 119.047 165.621 118.791 165.884C118.535 166.14 118.396 166.446 118.375 166.801ZM121.329 168.134L122.193 168.433C122.044 168.909 121.766 169.3 121.361 169.606C120.956 169.905 120.465 170.054 119.889 170.054C119.171 170.054 118.56 169.809 118.055 169.318C117.558 168.82 117.309 168.152 117.309 167.313C117.309 166.531 117.55 165.884 118.034 165.372C118.517 164.861 119.093 164.605 119.761 164.605C120.536 164.605 121.141 164.85 121.574 165.34C122.008 165.824 122.225 166.474 122.225 167.292C122.225 167.42 122.218 167.527 122.203 167.612H118.343C118.35 168.067 118.5 168.44 118.791 168.732C119.09 169.023 119.456 169.169 119.889 169.169C120.622 169.169 121.102 168.824 121.329 168.134ZM126.352 164.711V165.778C126.202 165.756 126.057 165.746 125.914 165.746C124.976 165.746 124.507 166.272 124.507 167.324V169.894H123.504V164.765H124.486V165.66C124.798 165.006 125.31 164.679 126.021 164.679C126.135 164.679 126.245 164.69 126.352 164.711Z" fill="#2A2A2A"/>
<mask id="path-23-inside-7_1939_24752" fill="white">
<path d="M42.3274 182.956H206.553V217.081H42.3274V182.956Z"/>
</mask>
<path d="M42.3274 182.956H206.553V217.081H42.3274V182.956Z" fill="white"/>
<path d="M206.553 216.548H42.3274V217.615H206.553V216.548Z" fill="#E9EEF3" mask="url(#path-23-inside-7_1939_24752)"/>
<mask id="path-25-inside-8_1939_24752" fill="white">
<path d="M42.3274 217.081H206.553V251.206H42.3274V217.081Z"/>
</mask>
<path d="M42.3274 217.081H206.553V251.206H42.3274V217.081Z" fill="white"/>
<path d="M206.553 250.673H42.3274V251.739H206.553V250.673Z" fill="#E9EEF3" mask="url(#path-25-inside-8_1939_24752)"/>
<mask id="path-27-inside-9_1939_24752" fill="white">
<path d="M42.3274 251.206H206.553V285.331H42.3274V251.206Z"/>
</mask>
<path d="M42.3274 251.206H206.553V285.331H42.3274V251.206Z" fill="white"/>
<path d="M206.553 284.798H42.3274V285.864H206.553V284.798Z" fill="#E9EEF3" mask="url(#path-27-inside-9_1939_24752)"/>
<mask id="path-29-inside-10_1939_24752" fill="white">
<path d="M42.3274 285.331H206.553V319.456H42.3274V285.331Z"/>
</mask>
<path d="M42.3274 285.331H206.553V319.456H42.3274V285.331Z" fill="white"/>
<path d="M206.553 318.923H42.3274V319.989H206.553V318.923Z" fill="#E9EEF3" mask="url(#path-29-inside-10_1939_24752)"/>
<mask id="path-31-inside-11_1939_24752" fill="white">
<path d="M42.3274 319.456H206.553V353.581H42.3274V319.456Z"/>
</mask>
<path d="M42.3274 319.456H206.553V353.581H42.3274V319.456Z" fill="white"/>
<path d="M206.553 353.048H42.3274V354.114H206.553V353.048Z" fill="#E9EEF3" mask="url(#path-31-inside-11_1939_24752)"/>
<mask id="path-33-inside-12_1939_24752" fill="white">
<path d="M42.3274 353.581H206.553V387.706H42.3274V353.581Z"/>
</mask>
<path d="M42.3274 353.581H206.553V387.706H42.3274V353.581Z" fill="white"/>
<path d="M206.553 387.173H42.3274V388.239H206.553V387.173Z" fill="#E9EEF3" mask="url(#path-33-inside-12_1939_24752)"/>
<mask id="path-35-inside-13_1939_24752" fill="white">
<path d="M42.3274 387.706H206.553V421.831H42.3274V387.706Z"/>
</mask>
<path d="M42.3274 387.706H206.553V421.831H42.3274V387.706Z" fill="white"/>
<path d="M206.553 421.297H42.3274V422.364H206.553V421.297Z" fill="#E9EEF3" mask="url(#path-35-inside-13_1939_24752)"/>
<mask id="path-37-inside-14_1939_24752" fill="white">
<path d="M42.3274 421.831H206.553V455.956H42.3274V421.831Z"/>
</mask>
<path d="M42.3274 421.831H206.553V455.956H42.3274V421.831Z" fill="white"/>
<path d="M206.553 455.422H42.3274V456.489H206.553V455.422Z" fill="#E9EEF3" mask="url(#path-37-inside-14_1939_24752)"/>
</g>
<path d="M206.02 148.832V490.08H207.087V148.832H206.02Z" fill="#E9EEF3" fill-opacity="0.92" mask="url(#path-18-inside-5_1939_24752)"/>
<g clip-path="url(#clip6_1939_24752)">
<mask id="path-39-inside-15_1939_24752" fill="white">
<path d="M206.553 148.832H370.779V490.08H206.553V148.832Z"/>
</mask>
<mask id="path-41-inside-16_1939_24752" fill="white">
<path d="M206.553 148.832H370.779V182.956H206.553V148.832Z"/>
</mask>
<path d="M206.553 148.832H370.779V182.956H206.553V148.832Z" fill="white"/>
<path d="M370.779 182.423H206.553V183.49H370.779V182.423Z" fill="#E9EEF3" mask="url(#path-41-inside-16_1939_24752)"/>
<path d="M260.629 169.894L258.069 166.46L256.992 167.612V169.894H255.947V162.333H256.992V166.226L260.533 162.333H261.908L258.762 165.703L261.951 169.894H260.629ZM267.688 169.894H263.07V162.333H264.115V168.913H267.688V169.894ZM275.13 169.894H274.042L269.958 163.73V169.894H268.913V162.333H270.31L274.085 168.134V162.333H275.13V169.894ZM281.591 167.271H278.701V166.396H281.591V167.271ZM287.174 169.894H286.15V165.021H284.476V164.285C284.945 164.278 285.34 164.157 285.66 163.922C285.98 163.68 286.179 163.368 286.257 162.984H287.174V169.894ZM289.524 165.468L288.479 165.34C288.472 165.276 288.469 165.184 288.469 165.063C288.469 164.445 288.686 163.919 289.119 163.485C289.553 163.044 290.132 162.824 290.857 162.824C291.576 162.824 292.144 163.03 292.564 163.442C292.983 163.847 293.193 164.349 293.193 164.946C293.193 165.82 292.759 166.531 291.892 167.079L290.527 167.953C290.036 168.266 289.756 168.589 289.684 168.924H293.236V169.894H288.394C288.408 169.311 288.54 168.799 288.789 168.358C289.045 167.918 289.46 167.512 290.036 167.143L291.188 166.396C291.821 165.991 292.137 165.511 292.137 164.957C292.137 164.615 292.023 164.327 291.796 164.093C291.568 163.858 291.248 163.741 290.836 163.741C290.402 163.741 290.072 163.872 289.844 164.135C289.617 164.398 289.503 164.74 289.503 165.159C289.503 165.223 289.51 165.326 289.524 165.468ZM296.734 169.894H295.71V165.021H294.036V164.285C294.505 164.278 294.9 164.157 295.22 163.922C295.54 163.68 295.739 163.368 295.817 162.984H296.734V169.894ZM299.085 165.468L298.04 165.34C298.032 165.276 298.029 165.184 298.029 165.063C298.029 164.445 298.246 163.919 298.679 163.485C299.113 163.044 299.692 162.824 300.418 162.824C301.136 162.824 301.704 163.03 302.124 163.442C302.543 163.847 302.753 164.349 302.753 164.946C302.753 165.82 302.319 166.531 301.452 167.079L300.087 167.953C299.596 168.266 299.316 168.589 299.245 168.924H302.796V169.894H297.954C297.968 169.311 298.1 168.799 298.349 168.358C298.605 167.918 299.021 167.512 299.596 167.143L300.748 166.396C301.381 165.991 301.697 165.511 301.697 164.957C301.697 164.615 301.584 164.327 301.356 164.093C301.129 163.858 300.809 163.741 300.396 163.741C299.963 163.741 299.632 163.872 299.405 164.135C299.177 164.398 299.063 164.74 299.063 165.159C299.063 165.223 299.07 165.326 299.085 165.468ZM306.294 169.894H305.27V165.021H303.596V164.285C304.065 164.278 304.46 164.157 304.78 163.922C305.1 163.68 305.299 163.368 305.377 162.984H306.294V169.894ZM308.645 165.468L307.6 165.34C307.593 165.276 307.589 165.184 307.589 165.063C307.589 164.445 307.806 163.919 308.24 163.485C308.673 163.044 309.253 162.824 309.978 162.824C310.696 162.824 311.265 163.03 311.684 163.442C312.103 163.847 312.313 164.349 312.313 164.946C312.313 165.82 311.879 166.531 311.012 167.079L309.647 167.953C309.157 168.266 308.876 168.589 308.805 168.924H312.356V169.894H307.514C307.529 169.311 307.66 168.799 307.909 168.358C308.165 167.918 308.581 167.512 309.157 167.143L310.308 166.396C310.941 165.991 311.257 165.511 311.257 164.957C311.257 164.615 311.144 164.327 310.916 164.093C310.689 163.858 310.369 163.741 309.956 163.741C309.523 163.741 309.192 163.872 308.965 164.135C308.737 164.398 308.623 164.74 308.623 165.159C308.623 165.223 308.631 165.326 308.645 165.468ZM315.854 169.894H314.831V165.021H313.156V164.285C313.626 164.278 314.02 164.157 314.34 163.922C314.66 163.68 314.859 163.368 314.937 162.984H315.854V169.894ZM318.205 165.468L317.16 165.34C317.153 165.276 317.149 165.184 317.149 165.063C317.149 164.445 317.366 163.919 317.8 163.485C318.233 163.044 318.813 162.824 319.538 162.824C320.256 162.824 320.825 163.03 321.244 163.442C321.664 163.847 321.873 164.349 321.873 164.946C321.873 165.82 321.44 166.531 320.572 167.079L319.207 167.953C318.717 168.266 318.436 168.589 318.365 168.924H321.916V169.894H317.074C317.089 169.311 317.22 168.799 317.469 168.358C317.725 167.918 318.141 167.512 318.717 167.143L319.868 166.396C320.501 165.991 320.818 165.511 320.818 164.957C320.818 164.615 320.704 164.327 320.476 164.093C320.249 163.858 319.929 163.741 319.517 163.741C319.083 163.741 318.752 163.872 318.525 164.135C318.297 164.398 318.184 164.74 318.184 165.159C318.184 165.223 318.191 165.326 318.205 165.468Z" fill="#2A2A2A"/>
<mask id="path-44-inside-17_1939_24752" fill="white">
<path d="M206.553 182.956H370.779V217.081H206.553V182.956Z"/>
</mask>
<path d="M206.553 182.956H370.779V217.081H206.553V182.956Z" fill="white"/>
<path d="M370.779 216.548H206.553V217.615H370.779V216.548Z" fill="#E9EEF3" mask="url(#path-44-inside-17_1939_24752)"/>
<mask id="path-46-inside-18_1939_24752" fill="white">
<path d="M206.553 217.081H370.779V251.206H206.553V217.081Z"/>
</mask>
<path d="M206.553 217.081H370.779V251.206H206.553V217.081Z" fill="white"/>
<path d="M370.779 250.673H206.553V251.739H370.779V250.673Z" fill="#E9EEF3" mask="url(#path-46-inside-18_1939_24752)"/>
<mask id="path-48-inside-19_1939_24752" fill="white">
<path d="M206.553 251.206H370.779V285.331H206.553V251.206Z"/>
</mask>
<path d="M206.553 251.206H370.779V285.331H206.553V251.206Z" fill="white"/>
<path d="M370.779 284.798H206.553V285.864H370.779V284.798Z" fill="#E9EEF3" mask="url(#path-48-inside-19_1939_24752)"/>
<mask id="path-50-inside-20_1939_24752" fill="white">
<path d="M206.553 285.331H370.779V319.456H206.553V285.331Z"/>
</mask>
<path d="M206.553 285.331H370.779V319.456H206.553V285.331Z" fill="white"/>
<path d="M370.779 318.923H206.553V319.989H370.779V318.923Z" fill="#E9EEF3" mask="url(#path-50-inside-20_1939_24752)"/>
<mask id="path-52-inside-21_1939_24752" fill="white">
<path d="M206.553 319.456H370.779V353.581H206.553V319.456Z"/>
</mask>
<path d="M206.553 319.456H370.779V353.581H206.553V319.456Z" fill="white"/>
<path d="M370.779 353.048H206.553V354.114H370.779V353.048Z" fill="#E9EEF3" mask="url(#path-52-inside-21_1939_24752)"/>
<mask id="path-54-inside-22_1939_24752" fill="white">
<path d="M206.553 353.581H370.779V387.706H206.553V353.581Z"/>
</mask>
<path d="M206.553 353.581H370.779V387.706H206.553V353.581Z" fill="white"/>
<path d="M370.779 387.173H206.553V388.239H370.779V387.173Z" fill="#E9EEF3" mask="url(#path-54-inside-22_1939_24752)"/>
<mask id="path-56-inside-23_1939_24752" fill="white">
<path d="M206.553 387.706H370.779V421.831H206.553V387.706Z"/>
</mask>
<path d="M206.553 387.706H370.779V421.831H206.553V387.706Z" fill="white"/>
<path d="M370.779 421.297H206.553V422.364H370.779V421.297Z" fill="#E9EEF3" mask="url(#path-56-inside-23_1939_24752)"/>
<mask id="path-58-inside-24_1939_24752" fill="white">
<path d="M206.553 421.831H370.779V455.956H206.553V421.831Z"/>
</mask>
<path d="M206.553 421.831H370.779V455.956H206.553V421.831Z" fill="white"/>
<path d="M370.779 455.422H206.553V456.489H370.779V455.422Z" fill="#E9EEF3" mask="url(#path-58-inside-24_1939_24752)"/>
</g>
<path d="M370.246 148.832V490.08H371.313V148.832H370.246Z" fill="#E9EEF3" fill-opacity="0.92" mask="url(#path-39-inside-15_1939_24752)"/>
<g clip-path="url(#clip7_1939_24752)">
<mask id="path-60-inside-25_1939_24752" fill="white">
<path d="M370.78 148.832H520.076V490.08H370.78V148.832Z"/>
</mask>
<mask id="path-62-inside-26_1939_24752" fill="white">
<path d="M370.78 148.832H520.076V182.956H370.78V148.832Z"/>
</mask>
<path d="M370.78 148.832H520.076V182.956H370.78V148.832Z" fill="white"/>
<path d="M520.076 182.423H370.78V183.49H520.076V182.423Z" fill="#E9EEF3" mask="url(#path-62-inside-26_1939_24752)"/>
<path d="M424.236 169.894V167.153H423.404V166.471H424.236V165.596H423.404V164.914H424.236V162.28H425.345L426.358 164.914H427.617V162.28H428.459V164.914H429.291V165.596H428.459V166.471H429.291V167.153H428.459V169.894H427.339L426.326 167.153H425.068V169.894H424.236ZM425.068 166.471H426.07L425.751 165.596H425.047L425.068 166.471ZM427.617 168.39H427.659L427.627 167.153H427.18L427.617 168.39ZM425.047 164.914H425.495L425.047 163.592H425.004L425.047 164.914ZM426.924 166.471H427.638L427.617 165.596H426.604L426.924 166.471ZM432.365 169.894H431.341V165.021H429.667V164.285C430.136 164.278 430.531 164.157 430.851 163.922C431.171 163.68 431.37 163.368 431.448 162.984H432.365V169.894ZM433.533 168.017L434.536 167.719C434.564 168.145 434.72 168.49 435.005 168.753C435.296 169.016 435.659 169.147 436.093 169.147C436.512 169.147 436.864 169.02 437.148 168.764C437.433 168.508 437.575 168.17 437.575 167.751C437.575 167.296 437.433 166.944 437.148 166.695C436.864 166.446 436.508 166.322 436.082 166.322C435.563 166.322 435.143 166.489 434.824 166.823C434.724 166.787 434.561 166.723 434.333 166.631C434.106 166.538 433.928 166.467 433.8 166.418L434.696 162.984H438.343V163.943H435.389L434.877 165.927C435.183 165.586 435.652 165.415 436.285 165.415C436.974 165.415 437.536 165.621 437.969 166.034C438.41 166.446 438.631 167.004 438.631 167.708C438.631 168.376 438.396 168.938 437.927 169.393C437.458 169.841 436.846 170.065 436.093 170.065C435.382 170.065 434.788 169.866 434.312 169.467C433.842 169.069 433.583 168.586 433.533 168.017ZM444.601 163.208L444.281 164.061C443.94 163.862 443.527 163.762 443.044 163.762C442.34 163.762 441.768 163.993 441.327 164.455C440.893 164.917 440.655 165.511 440.613 166.236C440.769 165.98 441.004 165.767 441.316 165.596C441.636 165.426 442.01 165.34 442.436 165.34C443.14 165.34 443.709 165.55 444.142 165.97C444.583 166.389 444.804 166.965 444.804 167.697C444.804 168.415 444.555 168.988 444.057 169.414C443.559 169.841 442.955 170.054 442.244 170.054C441.505 170.054 440.868 169.787 440.335 169.254C439.809 168.714 439.546 167.914 439.546 166.855C439.546 165.603 439.88 164.619 440.549 163.901C441.217 163.183 442.07 162.824 443.108 162.824C443.741 162.824 444.238 162.952 444.601 163.208ZM440.762 167.697C440.762 168.131 440.911 168.483 441.21 168.753C441.508 169.016 441.857 169.147 442.255 169.147C442.674 169.147 443.026 169.016 443.311 168.753C443.602 168.49 443.748 168.138 443.748 167.697C443.748 167.249 443.602 166.894 443.311 166.631C443.026 166.368 442.674 166.236 442.255 166.236C441.835 166.236 441.48 166.368 441.188 166.631C440.904 166.894 440.762 167.249 440.762 167.697ZM445.831 169.211C445.831 169.02 445.905 168.852 446.055 168.71C446.204 168.568 446.389 168.497 446.609 168.497C446.851 168.497 447.053 168.586 447.217 168.764C447.388 168.941 447.473 169.19 447.473 169.51C447.473 170.15 447.309 170.644 446.982 170.992C446.655 171.341 446.293 171.54 445.895 171.59V171.035C446.151 170.978 446.36 170.836 446.524 170.608C446.687 170.388 446.773 170.146 446.78 169.883C446.73 169.919 446.652 169.937 446.545 169.937C446.339 169.937 446.168 169.873 446.033 169.745C445.898 169.61 445.831 169.432 445.831 169.211ZM450.186 164.199C449.781 164.626 449.578 165.372 449.578 166.439C449.578 167.505 449.781 168.252 450.186 168.678C450.47 168.977 450.836 169.126 451.284 169.126C451.732 169.126 452.098 168.977 452.383 168.678C452.788 168.252 452.991 167.505 452.991 166.439C452.991 165.372 452.788 164.626 452.383 164.199C452.098 163.901 451.732 163.752 451.284 163.752C450.836 163.752 450.47 163.901 450.186 164.199ZM449.162 168.945C448.75 168.333 448.544 167.498 448.544 166.439C448.544 165.38 448.75 164.544 449.162 163.933C449.653 163.193 450.36 162.824 451.284 162.824C452.209 162.824 452.916 163.193 453.406 163.933C453.819 164.544 454.025 165.38 454.025 166.439C454.025 167.498 453.819 168.333 453.406 168.945C452.916 169.684 452.209 170.054 451.284 170.054C450.36 170.054 449.653 169.684 449.162 168.945ZM456.684 164.199C456.279 164.626 456.076 165.372 456.076 166.439C456.076 167.505 456.279 168.252 456.684 168.678C456.969 168.977 457.335 169.126 457.783 169.126C458.231 169.126 458.597 168.977 458.881 168.678C459.286 168.252 459.489 167.505 459.489 166.439C459.489 165.372 459.286 164.626 458.881 164.199C458.597 163.901 458.231 163.752 457.783 163.752C457.335 163.752 456.969 163.901 456.684 164.199ZM455.661 168.945C455.248 168.333 455.042 167.498 455.042 166.439C455.042 165.38 455.248 164.544 455.661 163.933C456.151 163.193 456.858 162.824 457.783 162.824C458.707 162.824 459.414 163.193 459.905 163.933C460.317 164.544 460.523 165.38 460.523 166.439C460.523 167.498 460.317 168.333 459.905 168.945C459.414 169.684 458.707 170.054 457.783 170.054C456.858 170.054 456.151 169.684 455.661 168.945ZM463.183 164.199C462.777 164.626 462.575 165.372 462.575 166.439C462.575 167.505 462.777 168.252 463.183 168.678C463.467 168.977 463.833 169.126 464.281 169.126C464.729 169.126 465.095 168.977 465.379 168.678C465.785 168.252 465.987 167.505 465.987 166.439C465.987 165.372 465.785 164.626 465.379 164.199C465.095 163.901 464.729 163.752 464.281 163.752C463.833 163.752 463.467 163.901 463.183 164.199ZM462.159 168.945C461.747 168.333 461.54 167.498 461.54 166.439C461.54 165.38 461.747 164.544 462.159 163.933C462.65 163.193 463.357 162.824 464.281 162.824C465.205 162.824 465.913 163.193 466.403 163.933C466.816 164.544 467.022 165.38 467.022 166.439C467.022 167.498 466.816 168.333 466.403 168.945C465.913 169.684 465.205 170.054 464.281 170.054C463.357 170.054 462.65 169.684 462.159 168.945Z" fill="#2A2A2A"/>
<mask id="path-65-inside-27_1939_24752" fill="white">
<path d="M370.78 182.956H520.076V217.081H370.78V182.956Z"/>
</mask>
<path d="M370.78 182.956H520.076V217.081H370.78V182.956Z" fill="white"/>
<path d="M520.076 216.548H370.78V217.615H520.076V216.548Z" fill="#E9EEF3" mask="url(#path-65-inside-27_1939_24752)"/>
<mask id="path-67-inside-28_1939_24752" fill="white">
<path d="M370.78 217.081H520.076V251.206H370.78V217.081Z"/>
</mask>
<path d="M370.78 217.081H520.076V251.206H370.78V217.081Z" fill="white"/>
<path d="M520.076 250.673H370.78V251.739H520.076V250.673Z" fill="#E9EEF3" mask="url(#path-67-inside-28_1939_24752)"/>
<mask id="path-69-inside-29_1939_24752" fill="white">
<path d="M370.78 251.206H520.076V285.331H370.78V251.206Z"/>
</mask>
<path d="M370.78 251.206H520.076V285.331H370.78V251.206Z" fill="white"/>
<path d="M520.076 284.798H370.78V285.864H520.076V284.798Z" fill="#E9EEF3" mask="url(#path-69-inside-29_1939_24752)"/>
<mask id="path-71-inside-30_1939_24752" fill="white">
<path d="M370.78 285.331H520.076V319.456H370.78V285.331Z"/>
</mask>
<path d="M370.78 285.331H520.076V319.456H370.78V285.331Z" fill="white"/>
<path d="M520.076 318.923H370.78V319.989H520.076V318.923Z" fill="#E9EEF3" mask="url(#path-71-inside-30_1939_24752)"/>
<mask id="path-73-inside-31_1939_24752" fill="white">
<path d="M370.78 319.456H520.076V353.581H370.78V319.456Z"/>
</mask>
<path d="M370.78 319.456H520.076V353.581H370.78V319.456Z" fill="white"/>
<path d="M520.076 353.048H370.78V354.114H520.076V353.048Z" fill="#E9EEF3" mask="url(#path-73-inside-31_1939_24752)"/>
<mask id="path-75-inside-32_1939_24752" fill="white">
<path d="M370.78 353.581H520.076V387.706H370.78V353.581Z"/>
</mask>
<path d="M370.78 353.581H520.076V387.706H370.78V353.581Z" fill="white"/>
<path d="M520.076 387.173H370.78V388.239H520.076V387.173Z" fill="#E9EEF3" mask="url(#path-75-inside-32_1939_24752)"/>
<mask id="path-77-inside-33_1939_24752" fill="white">
<path d="M370.78 387.706H520.076V421.831H370.78V387.706Z"/>
</mask>
<path d="M370.78 387.706H520.076V421.831H370.78V387.706Z" fill="white"/>
<path d="M520.076 421.297H370.78V422.364H520.076V421.297Z" fill="#E9EEF3" mask="url(#path-77-inside-33_1939_24752)"/>
<mask id="path-79-inside-34_1939_24752" fill="white">
<path d="M370.78 421.831H520.076V455.956H370.78V421.831Z"/>
</mask>
<path d="M370.78 421.831H520.076V455.956H370.78V421.831Z" fill="white"/>
<path d="M520.076 455.422H370.78V456.489H520.076V455.422Z" fill="#E9EEF3" mask="url(#path-79-inside-34_1939_24752)"/>
</g>
<path d="M519.543 148.832V490.08H520.609V148.832H519.543Z" fill="#E9EEF3" fill-opacity="0.92" mask="url(#path-60-inside-25_1939_24752)"/>
<g clip-path="url(#clip8_1939_24752)">
<mask id="path-81-inside-35_1939_24752" fill="white">
<path d="M520.076 148.832H665.695V490.08H520.076V148.832Z"/>
</mask>
<mask id="path-83-inside-36_1939_24752" fill="white">
<path d="M520.076 148.832H665.695V195.9H520.076V148.832Z"/>
</mask>
<path d="M520.076 148.832H665.695V195.9H520.076V148.832Z" fill="white"/>
<path d="M665.695 195.165H520.076V196.636H665.695V195.165Z" fill="#E9EEF3" mask="url(#path-83-inside-36_1939_24752)"/>
<path d="M584.853 174.277L586.236 173.865C586.275 174.454 586.491 174.929 586.883 175.292C587.285 175.655 587.785 175.836 588.384 175.836C588.962 175.836 589.448 175.66 589.84 175.307C590.232 174.954 590.428 174.488 590.428 173.909C590.428 173.282 590.232 172.796 589.84 172.453C589.448 172.11 588.957 171.938 588.369 171.938C587.653 171.938 587.074 172.169 586.633 172.63C586.496 172.581 586.27 172.492 585.957 172.365C585.643 172.238 585.398 172.139 585.221 172.071L586.457 167.335H591.487V168.658H587.413L586.707 171.394C587.128 170.924 587.776 170.688 588.648 170.688C589.6 170.688 590.374 170.973 590.972 171.541C591.58 172.11 591.884 172.88 591.884 173.851C591.884 174.772 591.561 175.547 590.914 176.175C590.266 176.792 589.423 177.101 588.384 177.101C587.403 177.101 586.584 176.827 585.927 176.278C585.28 175.728 584.922 175.062 584.853 174.277ZM595.398 169.011C594.839 169.6 594.559 170.629 594.559 172.1C594.559 173.571 594.839 174.601 595.398 175.189C595.79 175.601 596.295 175.807 596.913 175.807C597.53 175.807 598.035 175.601 598.428 175.189C598.987 174.601 599.266 173.571 599.266 172.1C599.266 170.629 598.987 169.6 598.428 169.011C598.035 168.6 597.53 168.394 596.913 168.394C596.295 168.394 595.79 168.6 595.398 169.011ZM593.986 175.557C593.417 174.714 593.132 173.561 593.132 172.1C593.132 170.639 593.417 169.487 593.986 168.644C594.662 167.624 595.638 167.114 596.913 167.114C598.187 167.114 599.163 167.624 599.84 168.644C600.408 169.487 600.693 170.639 600.693 172.1C600.693 173.561 600.408 174.714 599.84 175.557C599.163 176.577 598.187 177.087 596.913 177.087C595.638 177.087 594.662 176.577 593.986 175.557Z" fill="#2A2A2A"/>
<mask id="path-86-inside-37_1939_24752" fill="white">
<path d="M520.076 195.9H665.695V242.969H520.076V195.9Z"/>
</mask>
<path d="M520.076 195.9H665.695V242.969H520.076V195.9Z" fill="white"/>
<path d="M665.695 242.234H520.076V243.705H665.695V242.234Z" fill="#E9EEF3" mask="url(#path-86-inside-37_1939_24752)"/>
<mask id="path-88-inside-38_1939_24752" fill="white">
<path d="M520.076 242.969H665.695V290.038H520.076V242.969Z"/>
</mask>
<path d="M520.076 242.969H665.695V290.038H520.076V242.969Z" fill="white"/>
<path d="M665.695 289.303H520.076V290.773H665.695V289.303Z" fill="#E9EEF3" mask="url(#path-88-inside-38_1939_24752)"/>
<mask id="path-90-inside-39_1939_24752" fill="white">
<path d="M520.076 290.038H665.695V337.107H520.076V290.038Z"/>
</mask>
<path d="M520.076 290.038H665.695V337.107H520.076V290.038Z" fill="white"/>
<path d="M665.695 336.371H520.076V337.842H665.695V336.371Z" fill="#E9EEF3" mask="url(#path-90-inside-39_1939_24752)"/>
<mask id="path-92-inside-40_1939_24752" fill="white">
<path d="M520.076 337.107H665.695V384.176H520.076V337.107Z"/>
</mask>
<path d="M520.076 337.107H665.695V384.176H520.076V337.107Z" fill="white"/>
<path d="M665.695 383.44H520.076V384.911H665.695V383.44Z" fill="#E9EEF3" mask="url(#path-92-inside-40_1939_24752)"/>
<mask id="path-94-inside-41_1939_24752" fill="white">
<path d="M520.076 384.176H665.695V431.244H520.076V384.176Z"/>
</mask>
<path d="M520.076 384.176H665.695V431.244H520.076V384.176Z" fill="white"/>
<path d="M665.695 430.509H520.076V431.98H665.695V430.509Z" fill="#E9EEF3" mask="url(#path-94-inside-41_1939_24752)"/>
<mask id="path-96-inside-42_1939_24752" fill="white">
<path d="M520.076 431.244H665.695V478.313H520.076V431.244Z"/>
</mask>
<path d="M520.076 431.244H665.695V478.313H520.076V431.244Z" fill="white"/>
<path d="M665.695 477.578H520.076V479.049H665.695V477.578Z" fill="#E9EEF3" mask="url(#path-96-inside-42_1939_24752)"/>
</g>
<path d="M664.96 148.832V490.08H666.43V148.832H664.96Z" fill="#E9EEF3" fill-opacity="0.92" mask="url(#path-81-inside-35_1939_24752)"/>
</g>
</g>
<path d="M40.1946 105.909H39.928V106.175V512.368V512.381C39.928 514.162 39.928 515.515 40.016 516.592C40.1046 517.676 40.2834 518.505 40.6544 519.233C41.2934 520.487 42.313 521.507 43.5671 522.146C44.2953 522.517 45.1244 522.696 46.2079 522.784C47.2856 522.872 48.6382 522.872 50.4191 522.872H50.4321H759.377H759.39C761.171 522.872 762.523 522.872 763.601 522.784C764.684 522.696 765.513 522.517 766.242 522.146C767.496 521.507 768.515 520.487 769.154 519.233C769.525 518.505 769.704 517.676 769.793 516.592C769.881 515.514 769.881 514.161 769.881 512.379V512.368V116.413V116.402C769.881 114.62 769.881 113.267 769.793 112.189C769.704 111.105 769.525 110.276 769.154 109.548C768.515 108.294 767.496 107.274 766.242 106.635C765.513 106.264 764.684 106.085 763.601 105.997C762.523 105.909 761.17 105.909 759.389 105.909H759.377H40.1946Z" stroke="#DEE5ED" stroke-width="0.533201"/>
<mask id="path-98-outside-43_1939_24752" maskUnits="userSpaceOnUse" x="39.1948" y="76.3826" width="99" height="30" fill="black">
<rect fill="white" x="39.1948" y="76.3826" width="99" height="30"/>
<path d="M40.1948 82.7146C40.1948 79.7698 42.582 77.3826 45.5268 77.3826H131.905C134.85 77.3826 137.237 79.7698 137.237 82.7146V106.179H40.1948V82.7146Z"/>
</mask>
<path d="M40.1948 82.7146C40.1948 79.7698 42.582 77.3826 45.5268 77.3826H131.905C134.85 77.3826 137.237 79.7698 137.237 82.7146V106.179H40.1948V82.7146Z" fill="#F6F8FA"/>
<path d="M39.6616 82.7146C39.6616 79.4753 42.2876 76.8494 45.5268 76.8494H131.905C135.145 76.8494 137.771 79.4753 137.771 82.7146H136.704C136.704 80.0643 134.556 77.9158 131.905 77.9158H45.5268C42.8765 77.9158 40.728 80.0643 40.728 82.7146H39.6616ZM137.237 106.179H40.1948H137.237ZM39.6616 106.179V82.7146C39.6616 79.4753 42.2876 76.8494 45.5268 76.8494V77.9158C42.8765 77.9158 40.728 80.0643 40.728 82.7146V106.179H39.6616ZM131.905 76.8494C135.145 76.8494 137.771 79.4753 137.771 82.7146V106.179H136.704V82.7146C136.704 80.0643 134.556 77.9158 131.905 77.9158V76.8494Z" fill="#DEE5ED" mask="url(#path-98-outside-43_1939_24752)"/>
<path d="M42.3276 84.6341C42.3276 82.8424 42.3276 81.9465 42.6763 81.2622C42.983 80.6602 43.4725 80.1708 44.0744 79.8641C44.7588 79.5154 45.6546 79.5154 47.4464 79.5154H129.986C131.778 79.5154 132.674 79.5154 133.358 79.8641C133.96 80.1708 134.449 80.6602 134.756 81.2622C135.105 81.9465 135.105 82.8424 135.105 84.6341V106.179H42.3276V84.6341Z" fill="white"/>
<path d="M71.5416 91.0568L70.3899 91.4194C70.3401 91.1279 70.1944 90.8613 69.9527 90.6196C69.711 90.3779 69.3626 90.257 68.9076 90.257C68.5308 90.257 68.218 90.3637 67.9692 90.577C67.7274 90.7902 67.6066 91.0462 67.6066 91.3448C67.6066 91.8638 67.9016 92.1872 68.4917 92.3152L69.5794 92.5391C70.2335 92.6671 70.7383 92.9266 71.0937 93.3176C71.4492 93.7086 71.6269 94.1743 71.6269 94.7146C71.6269 95.3402 71.3852 95.8805 70.9018 96.3355C70.4254 96.7834 69.7749 97.0074 68.9503 97.0074C68.0616 97.0074 67.3684 96.7763 66.8708 96.3142C66.3731 95.845 66.0923 95.3011 66.0283 94.6826L67.2227 94.3414C67.2653 94.7679 67.436 95.1269 67.7346 95.4184C68.0331 95.7099 68.4384 95.8557 68.9503 95.8557C69.391 95.8557 69.7287 95.7597 69.9633 95.5677C70.2051 95.3687 70.3259 95.1163 70.3259 94.8106C70.3259 94.5618 70.237 94.3485 70.0593 94.1707C69.8816 93.9859 69.6328 93.8579 69.3128 93.7868L68.2464 93.5629C67.6564 93.442 67.1871 93.1968 66.8388 92.8271C66.4975 92.4574 66.3269 91.9953 66.3269 91.4407C66.3269 90.808 66.5793 90.2642 67.084 89.8092C67.5888 89.3542 68.1931 89.1267 68.8969 89.1267C69.7003 89.1267 70.3152 89.3222 70.7418 89.7132C71.1684 90.0971 71.435 90.545 71.5416 91.0568ZM74.3962 90.0651V91.654H75.4732V92.7524H74.3962V95.1625C74.3962 95.39 74.4495 95.5571 74.5561 95.6637C74.6628 95.7632 74.8298 95.813 75.0573 95.813C75.1995 95.813 75.3417 95.7988 75.4839 95.7703V96.7941C75.299 96.8723 75.0467 96.9114 74.7267 96.9114C74.2433 96.9114 73.863 96.7763 73.5857 96.5062C73.3084 96.2289 73.1698 95.8485 73.1698 95.3651V92.7524H72.21V91.654H72.4766C72.7397 91.654 72.9387 91.5794 73.0738 91.4301C73.2089 91.2808 73.2764 91.0853 73.2764 90.8436V90.0651H74.3962ZM77.9399 95.4611C78.2242 95.7526 78.569 95.8983 78.9743 95.8983C79.3795 95.8983 79.7208 95.7526 79.998 95.4611C80.2824 95.1696 80.4246 94.7644 80.4246 94.2454C80.4246 93.7335 80.2824 93.3354 79.998 93.051C79.7208 92.7595 79.3795 92.6138 78.9743 92.6138C78.569 92.6138 78.2242 92.7595 77.9399 93.051C77.6626 93.3354 77.524 93.7335 77.524 94.2454C77.524 94.7573 77.6626 95.1625 77.9399 95.4611ZM78.9743 91.4941C79.7563 91.4941 80.3997 91.7536 80.9045 92.2725C81.4163 92.7915 81.6723 93.4491 81.6723 94.2454C81.6723 95.0416 81.4163 95.7028 80.9045 96.2289C80.3997 96.7479 79.7563 97.0074 78.9743 97.0074C78.1994 97.0074 77.556 96.7479 77.0441 96.2289C76.5393 95.7028 76.2869 95.0416 76.2869 94.2454C76.2869 93.4491 76.5393 92.7915 77.0441 92.2725C77.556 91.7536 78.1994 91.4941 78.9743 91.4941ZM85.1285 92.6351C84.7304 92.6351 84.3927 92.7809 84.1154 93.0723C83.8382 93.3567 83.6995 93.7477 83.6995 94.2454C83.6995 94.7502 83.8382 95.1483 84.1154 95.4398C84.3998 95.7312 84.7446 95.877 85.1498 95.877C85.5124 95.877 85.8003 95.781 86.0136 95.5891C86.234 95.39 86.3797 95.1661 86.4508 94.9172L87.5386 95.3118C87.3964 95.7739 87.1191 96.172 86.7068 96.5062C86.3015 96.8403 85.7826 97.0074 85.1498 97.0074C84.3891 97.0074 83.7493 96.7443 83.2303 96.2182C82.7184 95.6921 82.4625 95.0345 82.4625 94.2454C82.4625 93.4491 82.7149 92.7915 83.2196 92.2725C83.7315 91.7536 84.3642 91.4941 85.1178 91.4941C85.7648 91.4941 86.2909 91.6611 86.6961 91.9953C87.1085 92.3294 87.3751 92.7311 87.4959 93.2003L86.3869 93.6055C86.3158 93.3354 86.1771 93.1079 85.971 92.923C85.7719 92.7311 85.4911 92.6351 85.1285 92.6351ZM93.4999 91.654L91.3671 93.8508L93.5426 96.8474H92.0283L90.5033 94.7253L89.8635 95.3971V96.8474H88.6371V89.1267H89.8635V93.7548L91.8577 91.654H93.4999Z" fill="#2A2A2A"/>
<g clip-path="url(#clip9_1939_24752)">
<path d="M109.914 90.7145V95.0868C109.914 95.9826 109.914 96.4306 109.74 96.7727C109.586 97.0737 109.342 97.3184 109.041 97.4718C108.698 97.6461 108.251 97.6461 107.355 97.6461H103.409C102.513 97.6461 102.065 97.6461 101.723 97.4718C101.422 97.3184 101.177 97.0737 101.024 96.7727C100.85 96.4306 100.85 95.9826 100.85 95.0868V90.7145M100.903 88.0485H109.861C110.159 88.0485 110.309 88.0485 110.423 88.1066C110.523 88.1578 110.605 88.2393 110.656 88.3397C110.714 88.4537 110.714 88.603 110.714 88.9016V89.8614C110.714 90.16 110.714 90.3093 110.656 90.4234C110.605 90.5237 110.523 90.6053 110.423 90.6564C110.309 90.7145 110.159 90.7145 109.861 90.7145H100.903C100.604 90.7145 100.455 90.7145 100.341 90.6564C100.241 90.6053 100.159 90.5237 100.108 90.4234C100.05 90.3093 100.05 90.16 100.05 89.8614V88.9016C100.05 88.603 100.05 88.4537 100.108 88.3397C100.159 88.2393 100.241 88.1578 100.341 88.1066C100.455 88.0485 100.604 88.0485 100.903 88.0485ZM104.102 92.5807H106.662C106.96 92.5807 107.109 92.5807 107.223 92.6389C107.324 92.69 107.405 92.7715 107.457 92.8719C107.515 92.9859 107.515 93.1352 107.515 93.4339V93.8604C107.515 94.159 107.515 94.3083 107.457 94.4224C107.405 94.5227 107.324 94.6043 107.223 94.6554C107.109 94.7135 106.96 94.7135 106.662 94.7135H104.102C103.804 94.7135 103.654 94.7135 103.54 94.6554C103.44 94.6043 103.358 94.5227 103.307 94.4224C103.249 94.3083 103.249 94.159 103.249 93.8604V93.4339C103.249 93.1352 103.249 92.9859 103.307 92.8719C103.358 92.7715 103.44 92.69 103.54 92.6389C103.654 92.5807 103.804 92.5807 104.102 92.5807Z" stroke="#009A49" stroke-width="0.746482" stroke-linecap="round" stroke-linejoin="round"/>
</g>
<g filter="url(#filter0_ddd_1939_24752)">
<rect x="321.635" y="13.3984" width="729.419" height="34.1249" rx="4.26561" fill="white"/>
<path d="M339.672 35.8218C340.764 36.395 341.31 36.6815 341.897 36.6815V30.4608L336.073 27.3957C336.065 27.4095 336.056 27.4234 336.048 27.4374C335.677 28.0685 335.677 28.8538 335.677 30.4244V30.4972C335.677 32.0678 335.677 32.8532 336.048 33.4843C336.42 34.1154 337.089 34.4666 338.427 35.169L339.672 35.8218Z" fill="#009A49"/>
<path opacity="0.7" d="M345.367 25.7527L344.122 25.0998C343.03 24.5267 342.484 24.2401 341.897 24.2401C341.309 24.2401 340.763 24.5267 339.671 25.0998L338.427 25.7527C337.118 26.4394 336.449 26.7905 336.073 27.3956L341.897 30.4608L347.721 27.3956C347.344 26.7905 346.675 26.4394 345.367 25.7527Z" fill="#009A49"/>
<path opacity="0.5" d="M347.746 27.4374C347.738 27.4234 347.729 27.4095 347.721 27.3957L341.897 30.4608V36.6815C342.484 36.6815 343.03 36.395 344.123 35.8218L345.367 35.169C346.705 34.4666 347.374 34.1154 347.746 33.4843C348.118 32.8532 348.118 32.0678 348.118 30.4972V30.4244C348.118 28.8538 348.118 28.0685 347.746 27.4374Z" fill="#009A49"/>
<path d="M360.032 28.5121L358.65 28.9472C358.59 28.5974 358.415 28.2775 358.125 27.9875C357.835 27.6974 357.417 27.5524 356.871 27.5524C356.419 27.5524 356.044 27.6803 355.745 27.9363C355.455 28.1922 355.31 28.4993 355.31 28.8576C355.31 29.4804 355.664 29.8686 356.372 30.0222L357.678 30.2909C358.462 30.4445 359.068 30.7558 359.495 31.2251C359.921 31.6943 360.135 32.2531 360.135 32.9014C360.135 33.6522 359.844 34.3006 359.264 34.8466C358.693 35.384 357.912 35.6528 356.923 35.6528C355.856 35.6528 355.024 35.3755 354.427 34.821C353.83 34.2579 353.493 33.6053 353.416 32.8631L354.849 32.4536C354.901 32.9654 355.105 33.3963 355.464 33.746C355.822 34.0958 356.308 34.2707 356.923 34.2707C357.451 34.2707 357.857 34.1555 358.138 33.9252C358.428 33.6863 358.573 33.3835 358.573 33.0166C358.573 32.718 358.467 32.4621 358.253 32.2488C358.04 32.027 357.742 31.8734 357.358 31.7881L356.078 31.5194C355.37 31.3744 354.807 31.08 354.389 30.6364C353.979 30.1928 353.775 29.6383 353.775 28.9728C353.775 28.2135 354.077 27.5609 354.683 27.0149C355.289 26.4689 356.014 26.1959 356.859 26.1959C357.823 26.1959 358.561 26.4305 359.072 26.8997C359.584 27.3604 359.904 27.8979 360.032 28.5121ZM363.023 31.8009V35.4608H361.539V26.1959H363.023V29.8302C363.424 29.3098 364.017 29.0496 364.802 29.0496C365.536 29.0496 366.099 29.2799 366.491 29.7406C366.884 30.2013 367.08 30.7942 367.08 31.5194V35.4608H365.596V31.7753C365.596 31.3573 365.493 31.0246 365.288 30.7772C365.084 30.5212 364.76 30.3933 364.316 30.3933C363.923 30.3933 363.612 30.5255 363.382 30.79C363.16 31.0544 363.04 31.3914 363.023 31.8009ZM370.384 33.7972C370.726 34.147 371.139 34.3219 371.626 34.3219C372.112 34.3219 372.521 34.147 372.854 33.7972C373.195 33.4474 373.366 32.9612 373.366 32.3384C373.366 31.7241 373.195 31.2464 372.854 30.9051C372.521 30.5554 372.112 30.3805 371.626 30.3805C371.139 30.3805 370.726 30.5554 370.384 30.9051C370.052 31.2464 369.885 31.7241 369.885 32.3384C369.885 32.9526 370.052 33.4389 370.384 33.7972ZM371.626 29.0368C372.564 29.0368 373.336 29.3482 373.942 29.971C374.556 30.5938 374.863 31.3829 374.863 32.3384C374.863 33.2939 374.556 34.0873 373.942 34.7186C373.336 35.3414 372.564 35.6528 371.626 35.6528C370.696 35.6528 369.924 35.3414 369.309 34.7186C368.704 34.0873 368.401 33.2939 368.401 32.3384C368.401 31.3829 368.704 30.5938 369.309 29.971C369.924 29.3482 370.696 29.0368 371.626 29.0368ZM377.769 37.8922H376.298V29.2288H377.731V30.0733C377.893 29.7918 378.149 29.5572 378.499 29.3695C378.849 29.1818 379.254 29.088 379.715 29.088C380.61 29.088 381.314 29.3951 381.826 30.0094C382.338 30.6151 382.594 31.3914 382.594 32.3384C382.594 33.2854 382.325 34.0702 381.788 34.693C381.25 35.3073 380.542 35.6144 379.663 35.6144C379.237 35.6144 378.857 35.5333 378.524 35.3712C378.192 35.2091 377.94 35.0044 377.769 34.757V37.8922ZM381.109 32.3384C381.109 31.7583 380.956 31.2933 380.649 30.9435C380.342 30.5852 379.936 30.4061 379.433 30.4061C378.938 30.4061 378.533 30.5852 378.217 30.9435C377.91 31.2933 377.757 31.7583 377.757 32.3384C377.757 32.927 377.91 33.4005 378.217 33.7588C378.533 34.1171 378.938 34.2963 379.433 34.2963C379.928 34.2963 380.329 34.1171 380.636 33.7588C380.952 33.4005 381.109 32.927 381.109 32.3384ZM385.685 34.0532H387.297C388.133 34.0532 388.82 33.7887 389.357 33.2598C389.903 32.7223 390.176 31.9502 390.176 30.9435C390.176 29.9283 389.907 29.152 389.37 28.6145C388.833 28.0685 388.146 27.7955 387.31 27.7955H385.685V34.0532ZM387.348 35.4608H384.149V26.3879H387.361C388.641 26.3879 389.694 26.7931 390.522 27.6036C391.358 28.414 391.776 29.5273 391.776 30.9435C391.776 32.3512 391.358 33.456 390.522 34.2579C389.686 35.0598 388.628 35.4608 387.348 35.4608ZM394.318 31.6602H397.376C397.359 31.2677 397.218 30.9393 396.954 30.6748C396.698 30.4103 396.327 30.2781 395.84 30.2781C395.397 30.2781 395.039 30.4189 394.766 30.7004C394.493 30.9734 394.343 31.2933 394.318 31.6602ZM397.542 33.2854L398.797 33.6821C398.617 34.2536 398.28 34.7271 397.786 35.1025C397.299 35.4693 396.698 35.6528 395.981 35.6528C395.094 35.6528 394.339 35.3499 393.716 34.7442C393.102 34.1385 392.795 33.328 392.795 32.3128C392.795 31.3573 393.093 30.5724 393.691 29.9582C394.296 29.3439 395.009 29.0368 395.828 29.0368C396.783 29.0368 397.53 29.3311 398.067 29.9198C398.605 30.4999 398.873 31.2848 398.873 32.2744C398.873 32.5389 398.861 32.6967 398.835 32.7479H394.279C394.296 33.2171 394.467 33.6053 394.791 33.9124C395.124 34.2195 395.521 34.3731 395.981 34.3731C396.783 34.3731 397.304 34.0105 397.542 33.2854ZM399.742 33.7716L401.034 33.4133C401.06 33.7119 401.183 33.9636 401.405 34.1683C401.627 34.3731 401.926 34.4755 402.301 34.4755C402.591 34.4755 402.817 34.4072 402.979 34.2707C403.15 34.1342 403.235 33.9636 403.235 33.7588C403.235 33.4005 402.992 33.1702 402.506 33.0678L401.584 32.8631C401.047 32.7436 400.633 32.5218 400.343 32.1976C400.053 31.8734 399.908 31.4895 399.908 31.0459C399.908 30.4999 400.13 30.0307 400.573 29.6383C401.017 29.2373 401.559 29.0368 402.199 29.0368C402.608 29.0368 402.971 29.0965 403.286 29.216C403.602 29.3354 403.845 29.4932 404.016 29.6894C404.195 29.8771 404.331 30.0606 404.425 30.2397C404.519 30.4189 404.579 30.598 404.604 30.7772L403.35 31.1355C403.316 30.8966 403.205 30.6833 403.018 30.4956C402.838 30.2994 402.565 30.2013 402.199 30.2013C401.943 30.2013 401.729 30.2738 401.559 30.4189C401.388 30.5554 401.303 30.7217 401.303 30.9179C401.303 31.2677 401.512 31.4853 401.93 31.5706L402.877 31.7625C403.457 31.8905 403.901 32.1208 404.208 32.4536C404.515 32.7863 404.668 33.1872 404.668 33.6565C404.668 34.1769 404.459 34.6418 404.041 35.0513C403.632 35.4523 403.056 35.6528 402.314 35.6528C401.887 35.6528 401.503 35.5888 401.162 35.4608C400.829 35.3328 400.565 35.1708 400.369 34.9745C400.181 34.7698 400.032 34.5693 399.921 34.3731C399.818 34.1683 399.759 33.9679 399.742 33.7716ZM411.976 29.2288L409.416 31.8649L412.027 35.4608H410.21L408.38 32.9142L407.612 33.7204V35.4608H406.14V26.1959H407.612V31.7497L410.005 29.2288H411.976Z" fill="#090F1C"/>
<path d="M421.092 25.1288L421.092 35.7928" stroke="#DEE5ED" stroke-width="0.533201" stroke-linecap="round"/>
<path d="M434.737 28.6885H432.715V33.9608H431.879V28.6885H429.857V27.9122H434.737V28.6885ZM436.305 31.5465V33.9608H435.503V27.7842H436.305V30.335C436.578 29.9369 436.993 29.7379 437.55 29.7379C438.022 29.7379 438.384 29.8886 438.634 30.19C438.89 30.4915 439.018 30.881 439.018 31.3588V33.9608H438.216V31.4953C438.216 30.8071 437.897 30.463 437.26 30.463C436.965 30.463 436.734 30.5654 436.569 30.7701C436.404 30.9692 436.316 31.228 436.305 31.5465ZM440.814 31.4868H443.057C443.046 31.1796 442.944 30.9294 442.75 30.736C442.557 30.537 442.284 30.4374 441.931 30.4374C441.613 30.4374 441.351 30.5426 441.146 30.7531C440.942 30.9578 440.831 31.2024 440.814 31.4868ZM443.177 32.5532L443.868 32.792C443.748 33.1731 443.527 33.4859 443.202 33.7305C442.878 33.9693 442.486 34.0888 442.025 34.0888C441.451 34.0888 440.962 33.8926 440.558 33.5001C440.16 33.102 439.961 32.5674 439.961 31.8963C439.961 31.2706 440.154 30.7531 440.541 30.3436C440.927 29.9341 441.388 29.7293 441.923 29.7293C442.543 29.7293 443.026 29.9255 443.373 30.318C443.72 30.7047 443.893 31.2251 443.893 31.8792C443.893 31.9816 443.888 32.0669 443.876 32.1351H440.788C440.794 32.4991 440.913 32.7977 441.146 33.0309C441.385 33.2641 441.678 33.3807 442.025 33.3807C442.611 33.3807 442.995 33.1048 443.177 32.5532ZM446.666 32.8944L447.391 32.6385C447.42 32.8603 447.516 33.0451 447.681 33.193C447.846 33.3352 448.068 33.4063 448.347 33.4063C448.563 33.4063 448.733 33.3551 448.859 33.2527C448.984 33.1447 449.046 33.0138 449.046 32.8603C449.046 32.5873 448.87 32.411 448.517 32.3314L447.818 32.1778C447.499 32.1095 447.249 31.973 447.067 31.7683C446.885 31.5635 446.794 31.3161 446.794 31.0261C446.794 30.6735 446.936 30.3692 447.221 30.1132C447.511 29.8573 447.855 29.7293 448.253 29.7293C448.515 29.7293 448.748 29.7691 448.952 29.8488C449.157 29.9227 449.316 30.0222 449.43 30.1474C449.544 30.2725 449.629 30.3891 449.686 30.4971C449.743 30.6052 449.786 30.7161 449.814 30.8299L449.106 31.0943C449.095 31.0261 449.075 30.9607 449.046 30.8981C449.018 30.8299 448.972 30.7559 448.91 30.6763C448.853 30.5967 448.768 30.5341 448.654 30.4886C448.54 30.4374 448.406 30.4118 448.253 30.4118C448.054 30.4118 447.889 30.4659 447.758 30.5739C447.633 30.682 447.57 30.81 447.57 30.9578C447.57 31.2194 447.727 31.3844 448.04 31.4526L448.705 31.5977C449.069 31.6773 449.348 31.8252 449.541 32.0413C449.74 32.2517 449.84 32.5105 449.84 32.8176C449.84 33.1418 449.706 33.4347 449.439 33.6963C449.177 33.958 448.81 34.0888 448.338 34.0888C447.832 34.0888 447.437 33.9637 447.152 33.7134C446.868 33.4575 446.706 33.1845 446.666 32.8944ZM451.701 33.9608H450.907V29.8573H451.701V33.9608ZM450.89 28.7141C450.782 28.6004 450.728 28.4639 450.728 28.3046C450.728 28.1454 450.782 28.0089 450.89 27.8951C451.004 27.7814 451.141 27.7245 451.3 27.7245C451.459 27.7245 451.596 27.7814 451.709 27.8951C451.823 28.0032 451.88 28.1397 451.88 28.3046C451.88 28.4639 451.823 28.6004 451.709 28.7141C451.596 28.8222 451.459 28.8762 451.3 28.8762C451.141 28.8762 451.004 28.8222 450.89 28.7141ZM453.859 33.9608H453.065V29.8573H453.833V30.4033C453.958 30.1872 454.134 30.0222 454.362 29.9085C454.589 29.7947 454.828 29.7379 455.079 29.7379C455.346 29.7379 455.59 29.8033 455.812 29.9341C456.034 30.0649 456.199 30.2583 456.307 30.5142C456.591 29.9966 457.049 29.7379 457.681 29.7379C458.073 29.7379 458.406 29.8715 458.679 30.1388C458.957 30.4061 459.097 30.7929 459.097 31.2991V33.9608H458.303V31.3844C458.303 31.1 458.229 30.8725 458.082 30.7019C457.939 30.5313 457.723 30.446 457.433 30.446C457.154 30.446 456.927 30.5455 456.751 30.7445C456.574 30.9379 456.486 31.1825 456.486 31.4782V33.9608H455.684V31.3844C455.684 31.1 455.61 30.8725 455.462 30.7019C455.32 30.5313 455.104 30.446 454.814 30.446C454.53 30.446 454.299 30.5426 454.123 30.736C453.947 30.9294 453.859 31.1796 453.859 31.4868V33.9608ZM461.173 35.5817H460.38V29.8573H461.156V30.4971C461.276 30.281 461.455 30.1047 461.694 29.9682C461.933 29.8317 462.211 29.7635 462.53 29.7635C463.121 29.7635 463.582 29.9654 463.912 30.3692C464.248 30.773 464.415 31.2849 464.415 31.9048C464.415 32.5304 464.242 33.048 463.895 33.4575C463.554 33.867 463.09 34.0717 462.504 34.0717C462.203 34.0717 461.936 34.0092 461.702 33.884C461.469 33.7589 461.293 33.5997 461.173 33.4063V35.5817ZM463.596 31.9048C463.596 31.4896 463.485 31.1484 463.264 30.881C463.047 30.608 462.755 30.4715 462.385 30.4715C462.021 30.4715 461.725 30.608 461.498 30.881C461.276 31.1484 461.165 31.4896 461.165 31.9048C461.165 32.3314 461.276 32.6811 461.498 32.9541C461.725 33.2214 462.021 33.3551 462.385 33.3551C462.749 33.3551 463.042 33.2214 463.264 32.9541C463.485 32.6811 463.596 32.3314 463.596 31.9048ZM466.239 33.9608H465.437V27.7842H466.239V33.9608ZM468.124 31.4868H470.367C470.356 31.1796 470.254 30.9294 470.06 30.736C469.867 30.537 469.594 30.4374 469.241 30.4374C468.923 30.4374 468.661 30.5426 468.456 30.7531C468.252 30.9578 468.141 31.2024 468.124 31.4868ZM470.487 32.5532L471.178 32.792C471.058 33.1731 470.837 33.4859 470.512 33.7305C470.188 33.9693 469.796 34.0888 469.335 34.0888C468.761 34.0888 468.272 33.8926 467.868 33.5001C467.47 33.102 467.271 32.5674 467.271 31.8963C467.271 31.2706 467.464 30.7531 467.851 30.3436C468.237 29.9341 468.698 29.7293 469.233 29.7293C469.853 29.7293 470.336 29.9255 470.683 30.318C471.03 30.7047 471.203 31.2251 471.203 31.8792C471.203 31.9816 471.198 32.0669 471.186 32.1351H468.098C468.104 32.4991 468.223 32.7977 468.456 33.0309C468.695 33.2641 468.988 33.3807 469.335 33.3807C469.921 33.3807 470.305 33.1048 470.487 32.5532ZM471.843 32.8944L472.568 32.6385C472.597 32.8603 472.693 33.0451 472.858 33.193C473.023 33.3352 473.245 33.4063 473.524 33.4063C473.74 33.4063 473.911 33.3551 474.036 33.2527C474.161 33.1447 474.223 33.0138 474.223 32.8603C474.223 32.5873 474.047 32.411 473.694 32.3314L472.995 32.1778C472.676 32.1095 472.426 31.973 472.244 31.7683C472.062 31.5635 471.971 31.3161 471.971 31.0261C471.971 30.6735 472.113 30.3692 472.398 30.1132C472.688 29.8573 473.032 29.7293 473.43 29.7293C473.692 29.7293 473.925 29.7691 474.13 29.8488C474.334 29.9227 474.494 30.0222 474.607 30.1474C474.721 30.2725 474.806 30.3891 474.863 30.4971C474.92 30.6052 474.963 30.7161 474.991 30.8299L474.283 31.0943C474.272 31.0261 474.252 30.9607 474.223 30.8981C474.195 30.8299 474.149 30.7559 474.087 30.6763C474.03 30.5967 473.945 30.5341 473.831 30.4886C473.717 30.4374 473.584 30.4118 473.43 30.4118C473.231 30.4118 473.066 30.4659 472.935 30.5739C472.81 30.682 472.747 30.81 472.747 30.9578C472.747 31.2194 472.904 31.3844 473.217 31.4526L473.882 31.5977C474.246 31.6773 474.525 31.8252 474.718 32.0413C474.917 32.2517 475.017 32.5105 475.017 32.8176C475.017 33.1418 474.883 33.4347 474.616 33.6963C474.354 33.958 473.987 34.0888 473.515 34.0888C473.009 34.0888 472.614 33.9637 472.329 33.7134C472.045 33.4575 471.883 33.1845 471.843 32.8944ZM477.159 28.5606V29.8573H478.047V30.5825H477.159V32.7153C477.159 32.9086 477.202 33.0508 477.287 33.1418C477.378 33.2328 477.526 33.2783 477.731 33.2783C477.85 33.2783 477.956 33.2669 478.047 33.2442V33.9267C477.91 33.9779 477.728 34.0035 477.501 34.0035C477.148 34.0035 476.869 33.9011 476.665 33.6963C476.46 33.4916 476.357 33.2044 476.357 32.8347V30.5825H475.573V29.8573H475.794C476.005 29.8573 476.161 29.8004 476.264 29.6867C476.372 29.5672 476.426 29.4137 476.426 29.226V28.5606H477.159ZM483.562 29.8573H484.389L485.456 32.9456L486.36 29.8573H487.205L485.874 33.9608H485.046L483.954 30.8384L482.888 33.9608H482.043L480.695 29.8573H481.574L482.495 32.9456L483.562 29.8573ZM487.717 32.8603C487.717 32.5077 487.831 32.2261 488.059 32.0157C488.286 31.7996 488.587 31.6659 488.963 31.6147L490.072 31.4526C490.282 31.4242 490.388 31.3218 490.388 31.1455C490.388 30.9294 490.314 30.7531 490.166 30.6166C490.018 30.4801 489.796 30.4118 489.5 30.4118C489.227 30.4118 489.011 30.4886 488.852 30.6422C488.693 30.79 488.599 30.9891 488.57 31.2394L487.803 31.0602C487.842 30.6678 488.022 30.3493 488.34 30.1047C488.659 29.8545 489.04 29.7293 489.483 29.7293C490.063 29.7293 490.493 29.8715 490.771 30.1559C491.05 30.4346 491.189 30.7929 491.189 31.2308V33.2868C491.189 33.5314 491.207 33.7561 491.241 33.9608H490.456C490.427 33.7902 490.413 33.6053 490.413 33.4063C490.299 33.5883 490.132 33.7475 489.91 33.884C489.694 34.0205 489.421 34.0888 489.091 34.0888C488.687 34.0888 488.357 33.9693 488.101 33.7305C487.845 33.4859 487.717 33.1958 487.717 32.8603ZM489.202 33.4148C489.56 33.4148 489.847 33.3181 490.063 33.1248C490.279 32.9314 490.388 32.6243 490.388 32.2034V32.0157L489.133 32.2034C488.951 32.2318 488.806 32.2972 488.698 32.3996C488.59 32.502 488.536 32.6413 488.536 32.8176C488.536 32.9769 488.596 33.1162 488.715 33.2357C488.841 33.3551 489.003 33.4148 489.202 33.4148ZM493.379 35.6756H492.5L493.524 33.5087L491.758 29.8573H492.68L493.959 32.6897L495.188 29.8573H496.049L493.379 35.6756ZM500.029 28.5606V29.8573H500.916V30.5825H500.029V32.7153C500.029 32.9086 500.071 33.0508 500.157 33.1418C500.248 33.2328 500.396 33.2783 500.6 33.2783C500.72 33.2783 500.825 33.2669 500.916 33.2442V33.9267C500.779 33.9779 500.597 34.0035 500.37 34.0035C500.017 34.0035 499.739 33.9011 499.534 33.6963C499.329 33.4916 499.227 33.2044 499.227 32.8347V30.5825H498.442V29.8573H498.664C498.874 29.8573 499.031 29.8004 499.133 29.6867C499.241 29.5672 499.295 29.4137 499.295 29.226V28.5606H500.029ZM502.789 32.9883C503.04 33.2442 503.344 33.3722 503.702 33.3722C504.06 33.3722 504.362 33.2442 504.606 32.9883C504.857 32.7266 504.982 32.3655 504.982 31.9048C504.982 31.4498 504.857 31.0943 504.606 30.8384C504.362 30.5768 504.06 30.446 503.702 30.446C503.344 30.446 503.04 30.5768 502.789 30.8384C502.545 31.0943 502.422 31.4498 502.422 31.9048C502.422 32.3655 502.545 32.7266 502.789 32.9883ZM502.192 30.3521C502.59 29.9369 503.094 29.7293 503.702 29.7293C504.311 29.7293 504.811 29.9369 505.204 30.3521C505.602 30.7616 505.801 31.2792 505.801 31.9048C505.801 32.5361 505.605 33.0593 505.212 33.4745C504.82 33.884 504.316 34.0888 503.702 34.0888C503.088 34.0888 502.585 33.884 502.192 33.4745C501.8 33.0593 501.603 32.5361 501.603 31.9048C501.603 31.2792 501.8 30.7616 502.192 30.3521ZM509.753 33.9608H508.96V29.8573H509.727V30.4033C509.853 30.1872 510.029 30.0222 510.256 29.9085C510.484 29.7947 510.723 29.7379 510.973 29.7379C511.24 29.7379 511.485 29.8033 511.707 29.9341C511.929 30.0649 512.093 30.2583 512.202 30.5142C512.486 29.9966 512.944 29.7379 513.575 29.7379C513.967 29.7379 514.3 29.8715 514.573 30.1388C514.852 30.4061 514.991 30.7929 514.991 31.2991V33.9608H514.198V31.3844C514.198 31.1 514.124 30.8725 513.976 30.7019C513.834 30.5313 513.618 30.446 513.328 30.446C513.049 30.446 512.821 30.5455 512.645 30.7445C512.469 30.9379 512.381 31.1825 512.381 31.4782V33.9608H511.579V31.3844C511.579 31.1 511.505 30.8725 511.357 30.7019C511.215 30.5313 510.999 30.446 510.709 30.446C510.424 30.446 510.194 30.5426 510.018 30.736C509.841 30.9294 509.753 31.1796 509.753 31.4868V33.9608ZM516.019 32.8603C516.019 32.5077 516.132 32.2261 516.36 32.0157C516.587 31.7996 516.889 31.6659 517.264 31.6147L518.373 31.4526C518.584 31.4242 518.689 31.3218 518.689 31.1455C518.689 30.9294 518.615 30.7531 518.467 30.6166C518.319 30.4801 518.097 30.4118 517.802 30.4118C517.529 30.4118 517.312 30.4886 517.153 30.6422C516.994 30.79 516.9 30.9891 516.872 31.2394L516.104 31.0602C516.144 30.6678 516.323 30.3493 516.641 30.1047C516.96 29.8545 517.341 29.7293 517.785 29.7293C518.365 29.7293 518.794 29.8715 519.073 30.1559C519.351 30.4346 519.491 30.7929 519.491 31.2308V33.2868C519.491 33.5314 519.508 33.7561 519.542 33.9608H518.757C518.729 33.7902 518.714 33.6053 518.714 33.4063C518.601 33.5883 518.433 33.7475 518.211 33.884C517.995 34.0205 517.722 34.0888 517.392 34.0888C516.988 34.0888 516.658 33.9693 516.402 33.7305C516.147 33.4859 516.019 33.1958 516.019 32.8603ZM517.503 33.4148C517.861 33.4148 518.149 33.3181 518.365 33.1248C518.581 32.9314 518.689 32.6243 518.689 32.2034V32.0157L517.435 32.2034C517.253 32.2318 517.108 32.2972 517 32.3996C516.892 32.502 516.838 32.6413 516.838 32.8176C516.838 32.9769 516.897 33.1162 517.017 33.2357C517.142 33.3551 517.304 33.4148 517.503 33.4148ZM521.542 31.5891V33.9608H520.74V29.8573H521.525V30.446C521.798 29.9739 522.219 29.7379 522.788 29.7379C523.26 29.7379 523.621 29.8886 523.871 30.19C524.127 30.4915 524.255 30.881 524.255 31.3588V33.9608H523.453V31.4953C523.453 30.8071 523.135 30.463 522.498 30.463C522.196 30.463 521.96 30.5711 521.789 30.7872C521.624 30.9976 521.542 31.2649 521.542 31.5891ZM525.275 32.8603C525.275 32.5077 525.388 32.2261 525.616 32.0157C525.843 31.7996 526.145 31.6659 526.52 31.6147L527.629 31.4526C527.84 31.4242 527.945 31.3218 527.945 31.1455C527.945 30.9294 527.871 30.7531 527.723 30.6166C527.575 30.4801 527.353 30.4118 527.058 30.4118C526.785 30.4118 526.569 30.4886 526.409 30.6422C526.25 30.79 526.156 30.9891 526.128 31.2394L525.36 31.0602C525.4 30.6678 525.579 30.3493 525.897 30.1047C526.216 29.8545 526.597 29.7293 527.041 29.7293C527.621 29.7293 528.05 29.8715 528.329 30.1559C528.607 30.4346 528.747 30.7929 528.747 31.2308V33.2868C528.747 33.5314 528.764 33.7561 528.798 33.9608H528.013C527.985 33.7902 527.97 33.6053 527.97 33.4063C527.857 33.5883 527.689 33.7475 527.467 33.884C527.251 34.0205 526.978 34.0888 526.648 34.0888C526.244 34.0888 525.914 33.9693 525.659 33.7305C525.403 33.4859 525.275 33.1958 525.275 32.8603ZM526.759 33.4148C527.117 33.4148 527.405 33.3181 527.621 33.1248C527.837 32.9314 527.945 32.6243 527.945 32.2034V32.0157L526.691 32.2034C526.509 32.2318 526.364 32.2972 526.256 32.3996C526.148 32.502 526.094 32.6413 526.094 32.8176C526.094 32.9769 526.153 33.1162 526.273 33.2357C526.398 33.3551 526.56 33.4148 526.759 33.4148ZM529.698 34.1826L530.474 34.0035C530.502 34.2935 530.619 34.5324 530.824 34.7201C531.028 34.9135 531.284 35.0102 531.591 35.0102C532.428 35.0102 532.846 34.5665 532.846 33.6793V33.0906C532.743 33.2897 532.581 33.4518 532.359 33.5769C532.143 33.702 531.887 33.7646 531.591 33.7646C531.045 33.7646 530.593 33.5798 530.235 33.2101C529.882 32.8347 529.706 32.3569 529.706 31.7768C529.706 31.2138 529.882 30.7417 530.235 30.3606C530.588 29.9739 531.04 29.7805 531.591 29.7805C532.217 29.7805 532.638 29.9966 532.854 30.4289V29.8573H533.647V33.6537C533.647 33.9267 533.611 34.1798 533.537 34.413C533.468 34.6518 533.357 34.8708 533.204 35.0699C533.05 35.2689 532.834 35.4253 532.555 35.5391C532.282 35.6528 531.961 35.7097 531.591 35.7097C531.085 35.7097 530.656 35.5647 530.303 35.2746C529.951 34.9902 529.749 34.6263 529.698 34.1826ZM531.711 33.0906C532.058 33.0906 532.339 32.9712 532.555 32.7323C532.772 32.4878 532.88 32.1693 532.88 31.7768C532.88 31.3844 532.772 31.0687 532.555 30.8299C532.339 30.5853 532.058 30.463 531.711 30.463C531.358 30.463 531.071 30.5825 530.849 30.8213C530.633 31.0602 530.525 31.3787 530.525 31.7768C530.525 32.1806 530.63 32.502 530.841 32.7409C531.057 32.974 531.347 33.0906 531.711 33.0906ZM535.449 31.4868H537.692C537.681 31.1796 537.579 30.9294 537.385 30.736C537.192 30.537 536.919 30.4374 536.566 30.4374C536.248 30.4374 535.986 30.5426 535.781 30.7531C535.577 30.9578 535.466 31.2024 535.449 31.4868ZM537.812 32.5532L538.503 32.792C538.383 33.1731 538.162 33.4859 537.837 33.7305C537.513 33.9693 537.121 34.0888 536.66 34.0888C536.086 34.0888 535.597 33.8926 535.193 33.5001C534.795 33.102 534.596 32.5674 534.596 31.8963C534.596 31.2706 534.789 30.7531 535.176 30.3436C535.562 29.9341 536.023 29.7293 536.558 29.7293C537.178 29.7293 537.661 29.9255 538.008 30.318C538.355 30.7047 538.528 31.2251 538.528 31.8792C538.528 31.9816 538.523 32.0669 538.511 32.1351H535.423C535.429 32.4991 535.548 32.7977 535.781 33.0309C536.02 33.2641 536.313 33.3807 536.66 33.3807C537.246 33.3807 537.63 33.1048 537.812 32.5532ZM542.709 35.6756H541.83L542.854 33.5087L541.088 29.8573H542.009L543.289 32.6897L544.517 29.8573H545.379L542.709 35.6756ZM546.828 32.9883C547.079 33.2442 547.383 33.3722 547.741 33.3722C548.1 33.3722 548.401 33.2442 548.646 32.9883C548.896 32.7266 549.021 32.3655 549.021 31.9048C549.021 31.4498 548.896 31.0943 548.646 30.8384C548.401 30.5768 548.1 30.446 547.741 30.446C547.383 30.446 547.079 30.5768 546.828 30.8384C546.584 31.0943 546.462 31.4498 546.462 31.9048C546.462 32.3655 546.584 32.7266 546.828 32.9883ZM546.231 30.3521C546.629 29.9369 547.133 29.7293 547.741 29.7293C548.35 29.7293 548.85 29.9369 549.243 30.3521C549.641 30.7616 549.84 31.2792 549.84 31.9048C549.84 32.5361 549.644 33.0593 549.251 33.4745C548.859 33.884 548.356 34.0888 547.741 34.0888C547.127 34.0888 546.624 33.884 546.231 33.4745C545.839 33.0593 545.643 32.5361 545.643 31.9048C545.643 31.2792 545.839 30.7616 546.231 30.3521ZM553.529 33.466C553.421 33.6708 553.256 33.8272 553.034 33.9352C552.812 34.0376 552.573 34.0888 552.317 34.0888C551.851 34.0888 551.478 33.9352 551.2 33.6281C550.921 33.3153 550.782 32.92 550.782 32.4423V29.8573H551.584V32.3228C551.584 32.6299 551.658 32.883 551.805 33.0821C551.959 33.2812 552.195 33.3807 552.513 33.3807C552.832 33.3807 553.074 33.2868 553.239 33.0992C553.404 32.9058 553.486 32.6499 553.486 32.3314V29.8573H554.288V33.2015C554.288 33.4688 554.302 33.7219 554.331 33.9608H553.563C553.54 33.8357 553.529 33.6708 553.529 33.466ZM557.934 29.8146V30.6678C557.815 30.6507 557.698 30.6422 557.584 30.6422C556.834 30.6422 556.458 31.063 556.458 31.9048V33.9608H555.656V29.8573H556.441V30.5739C556.692 30.0507 557.101 29.789 557.67 29.789C557.761 29.789 557.849 29.7976 557.934 29.8146ZM560.538 32.8944L561.263 32.6385C561.291 32.8603 561.388 33.0451 561.553 33.193C561.718 33.3352 561.94 33.4063 562.219 33.4063C562.435 33.4063 562.605 33.3551 562.73 33.2527C562.856 33.1447 562.918 33.0138 562.918 32.8603C562.918 32.5873 562.742 32.411 562.389 32.3314L561.69 32.1778C561.371 32.1095 561.121 31.973 560.939 31.7683C560.757 31.5635 560.666 31.3161 560.666 31.0261C560.666 30.6735 560.808 30.3692 561.092 30.1132C561.382 29.8573 561.727 29.7293 562.125 29.7293C562.386 29.7293 562.62 29.7691 562.824 29.8488C563.029 29.9227 563.188 30.0222 563.302 30.1474C563.416 30.2725 563.501 30.3891 563.558 30.4971C563.615 30.6052 563.657 30.7161 563.686 30.8299L562.978 31.0943C562.966 31.0261 562.947 30.9607 562.918 30.8981C562.89 30.8299 562.844 30.7559 562.782 30.6763C562.725 30.5967 562.639 30.5341 562.526 30.4886C562.412 30.4374 562.278 30.4118 562.125 30.4118C561.926 30.4118 561.761 30.4659 561.63 30.5739C561.505 30.682 561.442 30.81 561.442 30.9578C561.442 31.2194 561.599 31.3844 561.911 31.4526L562.577 31.5977C562.941 31.6773 563.22 31.8252 563.413 32.0413C563.612 32.2517 563.712 32.5105 563.712 32.8176C563.712 33.1418 563.578 33.4347 563.311 33.6963C563.049 33.958 562.682 34.0888 562.21 34.0888C561.704 34.0888 561.309 33.9637 561.024 33.7134C560.74 33.4575 560.578 33.1845 560.538 32.8944ZM565.581 31.5465V33.9608H564.779V27.7842H565.581V30.335C565.854 29.9369 566.269 29.7379 566.827 29.7379C567.299 29.7379 567.66 29.8886 567.91 30.19C568.166 30.4915 568.294 30.881 568.294 31.3588V33.9608H567.492V31.4953C567.492 30.8071 567.174 30.463 566.537 30.463C566.241 30.463 566.011 30.5654 565.846 30.7701C565.681 30.9692 565.593 31.228 565.581 31.5465ZM570.414 32.9883C570.664 33.2442 570.969 33.3722 571.327 33.3722C571.685 33.3722 571.987 33.2442 572.231 32.9883C572.482 32.7266 572.607 32.3655 572.607 31.9048C572.607 31.4498 572.482 31.0943 572.231 30.8384C571.987 30.5768 571.685 30.446 571.327 30.446C570.969 30.446 570.664 30.5768 570.414 30.8384C570.17 31.0943 570.047 31.4498 570.047 31.9048C570.047 32.3655 570.17 32.7266 570.414 32.9883ZM569.817 30.3521C570.215 29.9369 570.719 29.7293 571.327 29.7293C571.936 29.7293 572.436 29.9369 572.829 30.3521C573.227 30.7616 573.426 31.2792 573.426 31.9048C573.426 32.5361 573.23 33.0593 572.837 33.4745C572.445 33.884 571.941 34.0888 571.327 34.0888C570.713 34.0888 570.21 33.884 569.817 33.4745C569.425 33.0593 569.228 32.5361 569.228 31.9048C569.228 31.2792 569.425 30.7616 569.817 30.3521ZM575.245 35.5817H574.452V29.8573H575.228V30.4971C575.348 30.281 575.527 30.1047 575.766 29.9682C576.004 29.8317 576.283 29.7635 576.602 29.7635C577.193 29.7635 577.654 29.9654 577.984 30.3692C578.319 30.773 578.487 31.2849 578.487 31.9048C578.487 32.5304 578.314 33.048 577.967 33.4575C577.625 33.867 577.162 34.0717 576.576 34.0717C576.275 34.0717 576.007 34.0092 575.774 33.884C575.541 33.7589 575.365 33.5997 575.245 33.4063V35.5817ZM577.668 31.9048C577.668 31.4896 577.557 31.1484 577.335 30.881C577.119 30.608 576.826 30.4715 576.457 30.4715C576.093 30.4715 575.797 30.608 575.569 30.881C575.348 31.1484 575.237 31.4896 575.237 31.9048C575.237 32.3314 575.348 32.6811 575.569 32.9541C575.797 33.2214 576.093 33.3551 576.457 33.3551C576.821 33.3551 577.114 33.2214 577.335 32.9541C577.557 32.6811 577.668 32.3314 577.668 31.9048ZM580.652 27.9122L580.439 32.229H579.867L579.645 27.9122H580.652ZM579.756 33.8414C579.648 33.7333 579.594 33.6025 579.594 33.4489C579.594 33.2954 579.648 33.1646 579.756 33.0565C579.864 32.9428 579.995 32.8859 580.149 32.8859C580.302 32.8859 580.433 32.9428 580.541 33.0565C580.655 33.1646 580.712 33.2954 580.712 33.4489C580.712 33.6025 580.655 33.7333 580.541 33.8414C580.433 33.9494 580.302 34.0035 580.149 34.0035C579.995 34.0035 579.864 33.9494 579.756 33.8414Z" fill="#414141"/>
</g>
</g>
<rect x="16" y="2" width="789" height="581" rx="29" stroke="black" stroke-width="10"/>
</g>
<defs>
<filter id="filter0_ddd_1939_24752" x="315.635" y="9.39838" width="741.419" height="46.1249" filterUnits="userSpaceOnUse" color-interpolation-filters="sRGB">
<feFlood flood-opacity="0" result="BackgroundImageFix"/>
<feColorMatrix in="SourceAlpha" type="matrix" values="0 0 0 0 0 0 0 0 0 0 0 0 0 0 0 0 0 0 127 0" result="hardAlpha"/>
<feMorphology radius="2" operator="dilate" in="SourceAlpha" result="effect1_dropShadow_1939_24752"/>
<feOffset dy="1"/>
<feGaussianBlur stdDeviation="1.5"/>
<feColorMatrix type="matrix" values="0 0 0 0 0.196078 0 0 0 0 0.278431 0 0 0 0 0.360784 0 0 0 0.02 0"/>
<feBlend mode="normal" in2="BackgroundImageFix" result="effect1_dropShadow_1939_24752"/>
<feColorMatrix in="SourceAlpha" type="matrix" values="0 0 0 0 0 0 0 0 0 0 0 0 0 0 0 0 0 0 127 0" result="hardAlpha"/>
<feMorphology radius="1" operator="dilate" in="SourceAlpha" result="effect2_dropShadow_1939_24752"/>
<feOffset dy="2"/>
<feGaussianBlur stdDeviation="2.5"/>
<feColorMatrix type="matrix" values="0 0 0 0 0.196078 0 0 0 0 0.278431 0 0 0 0 0.360784 0 0 0 0.04 0"/>
<feBlend mode="normal" in2="effect1_dropShadow_1939_24752" result="effect2_dropShadow_1939_24752"/>
<feColorMatrix in="SourceAlpha" type="matrix" values="0 0 0 0 0 0 0 0 0 0 0 0 0 0 0 0 0 0 127 0" result="hardAlpha"/>
<feMorphology radius="2" operator="dilate" in="SourceAlpha" result="effect3_dropShadow_1939_24752"/>
<feOffset dy="1"/>
<feGaussianBlur stdDeviation="1.5"/>
<feColorMatrix type="matrix" values="0 0 0 0 0.196078 0 0 0 0 0.278431 0 0 0 0 0.360784 0 0 0 0.06 0"/>
<feBlend mode="normal" in2="effect2_dropShadow_1939_24752" result="effect3_dropShadow_1939_24752"/>
<feBlend mode="normal" in="SourceGraphic" in2="effect3_dropShadow_1939_24752" result="shape"/>
</filter>
<clipPath id="clip0_1939_24752">
<path d="M0 48C0 21.4903 21.4903 0 48 0H622V450H0V48Z" fill="white"/>
</clipPath>
<clipPath id="clip1_1939_24752">
<rect x="21" y="7" width="779" height="571" rx="24" fill="white"/>
</clipPath>
<clipPath id="clip2_1939_24752">
<path d="M40.1946 106.175H759.377C762.96 106.175 764.752 106.175 766.12 106.873C767.324 107.486 768.303 108.465 768.917 109.669C769.614 111.038 769.614 112.829 769.614 116.413V512.368C769.614 515.952 769.614 517.743 768.917 519.112C768.303 520.316 767.324 521.295 766.12 521.908C764.752 522.606 762.96 522.606 759.377 522.606H50.4321C46.8486 522.606 45.0569 522.606 43.6882 521.908C42.4842 521.295 41.5054 520.316 40.892 519.112C40.1946 517.743 40.1946 515.952 40.1946 512.368V106.175Z" fill="white"/>
</clipPath>
<clipPath id="clip3_1939_24752">
<rect width="727.287" height="42.6561" fill="white" transform="translate(42.3274 106.175)"/>
</clipPath>
<clipPath id="clip4_1939_24752">
<rect width="727.287" height="341.249" fill="white" transform="translate(42.3274 148.832)"/>
</clipPath>
<clipPath id="clip5_1939_24752">
<path d="M42.3274 148.832H206.553V490.08H42.3274V148.832Z" fill="white"/>
</clipPath>
<clipPath id="clip6_1939_24752">
<path d="M206.553 148.832H370.779V490.08H206.553V148.832Z" fill="white"/>
</clipPath>
<clipPath id="clip7_1939_24752">
<path d="M370.78 148.832H520.076V490.08H370.78V148.832Z" fill="white"/>
</clipPath>
<clipPath id="clip8_1939_24752">
<path d="M520.076 148.832H665.695V490.08H520.076V148.832Z" fill="white"/>
</clipPath>
<clipPath id="clip9_1939_24752">
<rect width="12.7968" height="12.7968" fill="white" transform="translate(98.9836 86.449)"/>
</clipPath>
</defs>
</svg>
