<svg width="161" height="41" viewBox="0 0 161 41" fill="none" xmlns="http://www.w3.org/2000/svg">
<g clip-path="url(#clip0_1039_71961)">
<path fill-rule="evenodd" clip-rule="evenodd" d="M28.5072 33.5292C26.1011 35.9353 22.4177 35.9353 15.789 35.9353C9.16178 35.9353 5.47831 35.9339 3.07079 33.5292C0.666016 31.1229 0.666016 27.4382 0.666016 20.8109C0.666016 14.1851 0.666016 10.4988 3.07079 8.09405C5.47831 5.68652 9.16178 5.68652 15.789 5.68652C22.4177 5.68652 26.1011 5.68652 28.5072 8.09405C30.9148 10.5002 30.9148 14.1836 30.9148 20.8109C30.9148 27.4382 30.9148 31.1229 28.5072 33.5292ZM17.2355 18.8681L8.10583 18.8502L8.10446 21.0983L16.7213 21.1147L16.2139 23.3587L8.10446 23.3422V25.5889L15.7065 25.6053H15.6942C15.3999 26.7383 16.229 27.8616 17.3675 27.8616H18.9459L19.8176 25.6053H15.7065L16.2139 23.3614L21.3809 23.3711L22.1825 21.1244L16.7322 21.1147L17.2423 18.8681L24.6202 18.8324L25.5346 16.5953L17.7524 16.6214L17.2355 18.8681ZM16.4228 14.3666L8.10583 14.3487L8.10446 16.5967L17.7511 16.6132L17.8377 16.2214C18.0536 15.2754 17.3633 14.3666 16.4228 14.3666Z" fill="#F8FAFB"/>
<path d="M54.4366 29.5541H58.303L58.6769 27.2421H59.3802C59.9424 28.9415 61.4647 29.7898 63.0357 29.7898C66.2909 29.7898 68.2833 27.6677 68.2833 23.14C68.2833 19.1537 66.6425 16.4902 63.1278 16.4902C61.4423 16.4902 59.9424 17.5031 59.3802 19.0114H58.6769L58.9113 15.4744V11.8662H54.4366V29.5541ZM58.9113 23.5404V22.7619C58.9113 21.1099 59.8252 20.0969 61.4186 20.0969C62.8013 20.0969 63.7376 20.7108 63.7376 22.2903V24.012C63.7376 25.3097 63.1055 26.1817 61.441 26.1817C59.7792 26.1817 58.9113 25.1674 58.9113 23.5404ZM69.4539 23.1623C69.4539 27.1486 72.0548 29.7898 76.0132 29.7898C79.2948 29.7898 81.7059 28.0444 82.0354 25.3571H77.7712C77.654 26.0868 76.9047 26.511 75.8736 26.511C74.8188 26.511 73.9509 25.8524 73.9509 24.8604V24.2004H81.8945C82.0354 23.7065 82.0808 23.0214 82.0808 22.3615C82.0808 18.5412 79.3409 16.4887 75.8736 16.4887C72.2655 16.4887 69.4539 18.8942 69.4539 23.1623ZM73.9509 21.5117V21.2536C73.9509 20.4039 74.7476 19.7899 75.8262 19.7899C76.9047 19.7899 77.608 20.4039 77.608 21.2536V21.5117H73.9509ZM92.5135 16.6534C91.0846 16.6534 89.9829 17.4794 89.6311 19.5304H88.9282L88.3893 16.7245H82.5083V20.3327H84.4545V29.5541H88.929V24.319C88.929 21.6303 90.5927 20.8755 92.4888 20.8755C92.7483 20.8755 93.0062 20.8992 93.2864 20.9229V16.7245C93.0325 16.6729 92.773 16.6492 92.5135 16.6534ZM94.4756 16.7245V33.4929H98.9501V30.8042L98.7152 27.2658H99.4189C99.9809 28.7755 101.481 29.7898 103.168 29.7898C106.681 29.7898 108.322 27.1249 108.322 23.14C108.322 18.6124 106.33 16.4902 103.073 16.4902C101.504 16.4902 99.9809 17.3385 99.4189 19.0351H98.7152L98.3403 16.7245H94.4756ZM98.9501 22.7381C98.9501 21.1113 99.8177 20.0983 101.481 20.0983C103.144 20.0983 103.776 20.9703 103.776 22.2666V23.9883C103.776 25.5692 102.84 26.1817 101.458 26.1817C99.8639 26.1817 98.9501 25.1674 98.9501 23.5167V22.7381ZM113.879 26.0645V11.8662H109.427V26.1356C109.427 28.1867 110.249 29.5555 112.825 29.5555H116.784V26.0659H113.879V26.0645ZM117.608 25.9445C117.608 28.3039 119.317 29.7898 121.942 29.7898C124.119 29.7898 125.643 28.7755 126.136 27.2658H126.766V29.5541H131.454V26.2515H129.836V21.1364C129.836 18.3542 128.244 16.4902 124.166 16.4902C120.418 16.4902 118.24 18.117 118.379 21.2773H122.48C122.409 20.2156 123.042 19.8625 123.956 19.8625C124.822 19.8625 125.383 20.2156 125.383 21.1127V22.0084L121.825 22.2442C119.317 22.4103 117.606 23.5879 117.606 25.9473L117.608 25.9445ZM122.105 25.3334C122.105 24.838 122.457 24.3665 123.254 24.319L125.385 24.1767V25.6626C125.033 26.2054 124.33 26.5584 123.464 26.5584C122.526 26.5584 122.106 26.158 122.106 25.6152L122.105 25.3334ZM132.81 29.5541H137.286V22.6907C137.286 21.1825 138.035 20.1207 139.534 20.1207C140.8 20.1207 141.503 20.8517 141.503 22.4326V29.5541H146V20.8517C146 18.2343 144.572 16.4887 142.018 16.4887C140.05 16.4887 138.644 17.4082 137.988 19.0114H137.286L136.747 16.7245H132.81V29.5541ZM147.437 23.1623C147.437 27.1486 150.039 29.7898 153.999 29.7898C157.278 29.7898 159.692 28.0444 160.02 25.3571H155.756C155.639 26.0868 154.89 26.511 153.858 26.511C152.803 26.511 151.937 25.8524 151.937 24.8604V24.2004H159.88C160.02 23.7065 160.067 23.0214 160.067 22.3615C160.067 18.5412 157.325 16.4887 153.858 16.4887C150.25 16.4887 147.437 18.8942 147.437 23.1623ZM151.937 21.5117V21.2536C151.937 20.4039 152.734 19.7899 153.811 19.7899C154.89 19.7899 155.592 20.4039 155.592 21.2536V21.5117H151.937ZM44.1019 16.726H52.9326V29.5541H48.437V20.3313H44.1019V29.5527H39.605V20.3313H37.2832V16.726H39.605V15.6208C39.605 15.3223 39.6091 15.1033 39.6161 14.9651C39.6245 14.82 39.6482 14.64 39.6858 14.4237C39.7305 14.2089 39.8003 13.9787 39.891 13.7331C40.3417 12.4871 41.4899 11.8676 43.3345 11.8676H46.9831V15.3558H44.1019V16.726ZM48.4593 15.3558V11.8662H52.9326V15.3558H48.4593Z" fill="#F8FAFB"/>
</g>
<defs>
<clipPath id="clip0_1039_71961">
<rect width="160" height="40" fill="white" transform="translate(0.666016 0.810547)"/>
</clipPath>
</defs>
</svg>
