<svg width="120" height="31" viewBox="0 0 120 31" fill="none" xmlns="http://www.w3.org/2000/svg">
<path d="M0.333984 17.4864C0.333984 8.68658 7.26464 2.41246 17.1212 2.41246C20.0466 2.41246 23.2395 2.95743 25.0307 3.76983V9.26522H24.8302L17.9774 4.35953C17.6238 4.23688 16.8861 4.15758 16.1866 4.15758C11.0025 4.15758 7.3421 8.98718 7.3421 15.6509C7.3421 23.0934 11.9034 28.8889 17.6994 28.8889C18.0919 28.8823 18.4832 28.8415 18.8686 28.7667L18.757 28.7206V16.3628L16.9995 14.2156V14.0155H27.2443V14.2156L25.4867 16.3628V30.7359H25.2866L20.8475 29.3675C19.1347 30.2241 16.4868 30.847 14.1063 30.847C5.94095 30.847 0.333984 25.4291 0.333984 17.4864ZM31.9835 13.7149L29.9143 11.6461V11.4885L37.2788 9.5432H37.668L37.9446 13.7149H38.1778C39.858 10.7558 41.3375 9.5432 43.2062 9.5432C43.9849 9.5432 44.6526 9.77696 44.9974 10.0887V16.396H44.7973L40.8612 13.7476C40.7442 13.723 40.6248 13.7118 40.5053 13.714C39.6934 13.714 38.5251 14.4927 38.1359 15.4273V28.1987L40.1932 30.0692V30.2693H30.2259V30.0692L31.9835 28.2001V13.7149ZM46.6678 30.2573V30.1015L48.4254 28.1881V13.7149L46.3566 11.6904V11.4885L54.1882 9.5414H54.5773V28.1991L56.3354 30.1125V30.2684H46.6678V30.2573ZM48.146 3.3581C48.146 1.4447 49.437 0.276367 51.4947 0.276367C53.5524 0.276367 54.8429 1.4447 54.8429 3.3581C54.8429 5.22724 53.5639 6.39512 51.4947 6.39512C49.4254 6.39512 48.146 5.22724 48.146 3.3581ZM59.1944 30.2573V30.0572L60.952 28.1881V12.3469H58.1819V12.1911L60.985 9.77696C61.8418 4.12577 65.3128 0.276367 69.5512 0.276367C70.6078 0.276367 71.8564 0.510125 72.3544 0.788145L71.7316 5.8944H71.5312L65.9584 3.43602C64.7458 3.5582 63.6988 5.53845 63.6988 7.32968C63.6988 9.63224 65.4568 10.9117 68.4478 10.9117H73.6318C73.9438 4.91787 77.2918 0.276367 81.4636 0.276367C82.4428 0.276367 83.611 0.510125 84.1558 0.788145L83.4886 5.85014H83.2882L78.3394 3.51209C77.2048 3.62321 76.315 5.30285 76.315 7.13882C76.315 9.62852 77.9506 10.9195 81.1102 10.9195H93.025L92.7124 13.1482V28.2711L94.4704 30.1066V30.2624H84.781V30.1066L86.572 28.1931V12.3469H79.7524V28.1991L82.0888 30.0692V30.2693H71.8072V30.0692L73.5982 28.1558V12.3469H67.093V28.1991L69.4288 30.0692V30.2693H59.1935L59.1944 30.2573ZM86.305 3.3581C86.305 1.4447 87.5842 0.276367 89.6536 0.276367C91.756 0.276367 93.0466 1.4447 93.0466 3.3581C93.0466 5.22724 91.7554 6.39512 89.6536 6.39512C87.5842 6.39512 86.305 5.22724 86.305 3.3581ZM105.261 28.1991L107.019 30.0692V30.2693H97.3516V30.0692L99.1096 28.2001V13.7227L97.0402 11.6539V11.4534L104.405 9.54002H104.794L105.071 13.1999H105.338C107.473 10.7415 109.776 9.54002 112.346 9.54002C115.817 9.54002 118.23 11.7992 118.23 14.9911V28.1959L119.988 30.0651V30.2652H110.288V30.0651L112.079 28.0737V16.2157C112.079 14.3023 110.911 13.1344 109.041 13.1344C107.797 13.1344 106.552 13.6347 105.261 14.6472L105.261 28.1991Z" fill="#F8FAFB"/>
</svg>
