<svg width="161" height="41" viewBox="0 0 161 41" fill="none" xmlns="http://www.w3.org/2000/svg">
<g clip-path="url(#clip0_1039_71972)">
<path d="M44.6647 10.8107L44.6076 10.8298V19.3439H36.5315V10.8298L36.4744 10.8107C35.2744 10.5631 34.0935 10.5631 32.9126 10.8107L32.8555 10.8298V30.4104L32.9126 30.4294C33.5031 30.5436 34.0935 30.6199 34.6839 30.6199C35.2744 30.6199 35.8649 30.5627 36.4744 30.4294L36.5315 30.4104V22.4676H44.6076V30.4104L44.6647 30.4294C45.8457 30.677 47.0456 30.677 48.2266 30.4294L48.2837 30.4104V10.8298L48.2266 10.8107C47.0266 10.5821 45.8457 10.5821 44.6647 10.8107ZM57.1788 16.3154C52.9503 16.3154 50.436 18.982 50.436 23.4581C50.436 25.7819 50.9694 27.6295 52.036 28.9056C53.1979 30.296 54.9312 31.0008 57.2359 31.0008C61.1406 31.0008 63.1406 28.677 63.3882 26.3724V26.3152L63.3311 26.2961C62.3406 25.9724 61.4264 25.8961 60.3407 26.0485H60.3025V26.0866C60.074 27.458 58.9311 28.2771 57.274 28.2771C54.9503 28.2771 53.8074 27.0009 53.7693 24.3724H63.5977V24.3152C63.8835 21.7248 63.3691 19.6296 62.112 18.2011C60.9502 16.982 59.255 16.3154 57.1788 16.3154ZM57.1407 18.8487C58.1121 18.8487 58.9311 19.1534 59.4835 19.7439C60.0549 20.3534 60.3407 21.2676 60.2835 22.3533H53.7693C53.8265 20.1248 55.0646 18.8487 57.1407 18.8487ZM65.9787 10.8107L65.9215 10.8298V30.4104L65.9787 30.4294C66.531 30.5436 67.0834 30.6199 67.6548 30.6199C68.2072 30.6199 68.7786 30.5627 69.331 30.4294L69.3881 30.4104V10.8298L69.331 10.8107C68.2262 10.5631 67.1024 10.5821 65.9787 10.8107ZM79.026 16.3154C77.5594 16.3154 76.0165 16.8868 74.5499 17.9724L74.3403 16.944L74.3023 16.9249C73.4642 16.6772 72.7785 16.6772 71.9595 16.9249L71.9214 16.944V36.4292L71.9785 36.4484C72.5309 36.5626 73.0832 36.6388 73.6547 36.6388C74.2261 36.6388 74.7784 36.5816 75.3308 36.4484L75.388 36.4292V29.9151C76.5499 30.658 77.7879 31.0008 79.1783 31.0008C83.0255 31.0008 85.3303 28.2771 85.3303 23.6867C85.3119 19.02 83.0256 16.3154 79.026 16.3154ZM75.3308 20.182C76.3594 19.4772 77.3118 19.1534 78.3403 19.1534C80.6831 19.1534 81.9591 20.7724 81.9591 23.7438C81.9591 26.658 80.7024 28.2008 78.3022 28.2008C77.2736 28.2008 76.3023 27.8771 75.3308 27.1913V20.182ZM100.016 19.8772C99.4256 19.6486 98.8919 19.4582 98.3783 19.2868C95.7111 18.3344 94.1111 17.763 94.0735 16.3154C94.0543 15.6487 94.264 15.0773 94.7208 14.6011C95.388 13.9154 96.5112 13.5535 97.8832 13.5535C99.2352 13.5535 100.283 13.9154 100.911 14.582C101.445 15.1535 101.674 15.9344 101.616 16.9058V16.963L101.674 16.982C102.835 17.2106 103.997 17.1916 105.254 16.9058L105.311 16.8868V16.8296C105.387 15.1916 104.892 13.763 103.882 12.6964C102.626 11.3631 100.606 10.6583 98.0543 10.6393H97.9783C93.2351 10.6393 90.3784 12.7535 90.34 16.2964C90.3208 19.82 93.5592 21.001 95.5016 21.6867L95.788 21.801C96.4352 22.0296 97.0447 22.2391 97.5783 22.4296C100.206 23.3438 101.787 23.8962 101.845 25.2866C101.864 26.0104 101.654 26.6009 101.216 27.058C100.587 27.7056 99.4832 28.0294 98.016 28.0104C96.3968 28.0104 95.1591 27.5913 94.4543 26.8295C93.9399 26.258 93.7303 25.5343 93.8063 24.658V24.6009L93.7495 24.5819C92.5687 24.3533 91.3688 24.3724 90.188 24.639L90.1495 24.658V24.7152C90.0543 26.2961 90.5303 27.7056 91.5591 28.7913C92.9303 30.258 95.1783 31.0199 98.0735 31.0008C100.911 31.0008 105.578 30.2389 105.616 25.2866C105.559 21.9915 102.74 20.9248 100.016 19.8772ZM114.13 19.1534C116.473 19.1534 117.026 20.6772 117.14 21.5724V21.6296H117.197C118.282 21.801 119.311 21.7248 120.302 21.4391L120.358 21.42V21.3629C120.263 19.9915 119.673 18.7534 118.702 17.8582C117.597 16.8487 116.016 16.2964 114.15 16.2964C109.692 16.2964 107.235 18.9058 107.235 23.6486C107.235 28.3723 109.673 30.9817 114.092 30.9817C115.997 30.9817 117.597 30.4294 118.721 29.3818C119.654 28.5056 120.226 27.3247 120.339 26.0485V25.9914L120.282 25.9724C119.349 25.6485 118.321 25.5914 117.197 25.7819H117.158V25.82C116.854 27.9532 114.778 28.1056 114.15 28.1056C111.75 28.1056 110.626 26.6771 110.626 23.6104C110.606 20.582 111.73 19.1534 114.13 19.1534ZM128.797 16.3154C124.416 16.3154 121.997 18.9248 121.997 23.6676C121.997 28.3913 124.416 31.0008 128.797 31.0008C133.178 31.0008 135.597 28.3913 135.597 23.6676C135.597 18.9248 133.178 16.3154 128.797 16.3154ZM132.282 23.6867C132.282 26.7152 131.139 28.1818 128.797 28.1818C126.454 28.1818 125.311 26.7152 125.311 23.6867C125.311 20.601 126.416 19.1534 128.797 19.1534C131.139 19.1534 132.282 20.6391 132.282 23.6867ZM146.568 16.944L146.51 16.963V26.7152C145.406 27.6676 144.396 28.0866 143.234 28.0866C141.596 28.0866 140.891 27.1532 140.891 24.9438V16.944L140.834 16.9249C139.73 16.6582 138.606 16.6582 137.482 16.9249L137.425 16.944V25.7247C137.425 29.058 139.215 30.9817 142.358 30.9817C144.034 30.9817 145.501 30.3341 147.082 28.8865L147.406 30.4104L147.444 30.4294C148.244 30.6389 149.082 30.6389 149.882 30.4294L149.939 30.4104V16.944L149.882 16.9249C148.815 16.6582 147.691 16.6582 146.568 16.944ZM160.491 27.8008L160.472 27.7437L160.415 27.7628C159.082 28.0676 158.301 28.0484 157.844 27.6866C157.462 27.3818 157.291 26.8485 157.291 26.0104V19.7629H159.996L160.015 19.7058C160.206 18.7915 160.206 17.8582 160.015 16.9249L159.996 16.8677H157.291V13.1726L157.234 13.1536C156.13 12.9059 155.006 12.9059 153.901 13.1536L153.844 13.1726L153.862 16.8677H152.149L152.13 16.9249C151.92 17.8392 151.92 18.7915 152.13 19.7058L152.149 19.7629H153.862L153.882 25.7628C153.882 27.439 153.977 29.1342 155.139 30.1056C155.767 30.6199 156.682 30.8865 157.862 30.8865C158.586 30.8865 159.425 30.7913 160.396 30.6008H160.434L160.453 30.5627C160.72 29.6675 160.739 28.7342 160.491 27.8008Z" fill="#F8FAFB"/>
<path d="M2.5517 23.3245L11.8087 14.0675C13.0087 12.8865 13.7515 11.2295 13.7515 9.41999C13.7515 7.62954 13.0277 5.99147 11.8658 4.81055L2.60884 14.0675C1.40886 15.2485 0.666016 16.9056 0.666016 18.715C0.666016 20.5245 1.38981 22.1436 2.5517 23.3245ZM24.9703 17.915L15.7134 27.1721C14.5134 28.3529 13.7705 30.0101 13.7705 31.8196C13.7705 33.61 14.4943 35.2481 15.6562 36.429L24.9132 27.1721C26.1131 25.9911 26.856 24.334 26.856 22.5245C26.856 20.715 26.1322 19.096 24.9703 17.915ZM24.9132 14.0865C26.1131 12.9057 26.856 11.2485 26.856 9.43903C26.856 7.64859 26.1322 6.01052 24.9703 4.82959L2.60884 27.1721C1.40886 28.372 0.666016 30.0101 0.666016 31.8386C0.666016 33.629 1.38981 35.2671 2.5517 36.4481L24.9132 14.0865Z" fill="#F8FAFB"/>
</g>
<defs>
<clipPath id="clip0_1039_71972">
<rect width="160" height="40" fill="white" transform="translate(0.666016 0.810547)"/>
</clipPath>
</defs>
</svg>
