<svg width="140" height="20" viewBox="0 0 140 20" fill="none" xmlns="http://www.w3.org/2000/svg">
<path d="M135.739 0.503168H140V19.0513H135.521L128.857 7.12358V19.0513H124.569V0.503168H129.048L135.739 12.5677V0.503168ZM107.69 0.0107422C113.835 0.0107422 117.468 4.66146 117.468 9.74991C117.468 14.8383 113.808 19.489 107.69 19.489C101.518 19.489 97.8852 14.8383 97.8852 9.74991C97.8852 4.68881 101.545 0.0107422 107.69 0.0107422ZM113.126 9.77721C113.126 6.74059 111.049 3.89545 107.717 3.89545C104.331 3.89545 102.31 6.74059 102.31 9.77721C102.31 12.8139 104.358 15.659 107.717 15.659C111.049 15.6317 113.126 12.8139 113.126 9.77721ZM38.5369 4.19638V0.503168H51.2095V4.19638H47.0035V19.0239H42.7155V4.19638H38.5369ZM83.9293 8.16315H90.9482V11.5281H83.9566V15.6043H90.9482V19.0513H79.6684V0.503168H90.9482V3.95017H83.9566V8.16315H83.9293ZM65.6301 0.503168C69.7269 0.503168 72.3758 3.59452 72.3758 7.20569C72.3758 9.80458 71.0108 12.1026 68.689 13.1969L72.4031 19.0513H67.4327L64.1553 13.9082H62.1342V19.0513H57.8462V0.503168H65.6301ZM68.0336 7.20569C68.0336 5.48217 66.8592 4.00489 65.0839 4.00489H62.1615V10.4064H65.0839C66.8865 10.4064 68.0336 8.92916 68.0336 7.20569ZM30.1522 16.7806H23.5701L22.8599 19.0239H18.2988L24.9083 0.475809H28.8412L35.5326 19.0239H30.8896L30.1522 16.7806ZM26.8748 5.7831L24.6079 13.4157H29.1143L26.8748 5.7831ZM7.75656 0.503168C11.8533 0.503168 14.5025 3.59452 14.5025 7.20569C14.5025 10.8168 11.8533 13.9082 7.75656 13.9082H4.28794V19.0513H0V0.503168H7.75656ZM10.1873 7.20569C10.1873 5.48217 9.01285 4.00489 7.23758 4.00489H4.28794V10.4064H7.21028C9.01285 10.4064 10.1873 8.92916 10.1873 7.20569Z" fill="#F8FAFB"/>
</svg>
