<svg width="120" height="62" viewBox="0 0 120 62" fill="none" xmlns="http://www.w3.org/2000/svg">
<path fill-rule="evenodd" clip-rule="evenodd" d="M63.084 23.1629C62.0805 22.3189 60.3678 21.8974 57.945 21.8974H52.4805V38.7847H56.5665V33.4921H58.3969C60.6184 33.4921 62.2476 33.0031 63.2843 32.0243C64.4521 30.9278 65.0397 29.4676 65.0397 27.6449C65.0397 25.7547 64.3875 24.2604 63.084 23.1629ZM58.2954 29.6708H56.5665V25.7186H58.1197C60.0089 25.7186 60.9536 26.3813 60.9536 27.7066C60.9536 29.0148 60.0669 29.6708 58.2954 29.6708ZM72.0318 21.8965H67.771V38.7838H76.9706V34.9617H72.0318V21.8965ZM85.3182 21.8965L78.6255 38.7838H83.2128L84.0901 36.3288H89.9055L90.7075 38.7838H95.3465L88.7009 21.8965H85.3182ZM85.268 32.9101L87.0232 27.1379L88.7511 32.9101H85.268Z" fill="#F8FAFB"/>
<path fill-rule="evenodd" clip-rule="evenodd" d="M97.4738 38.7839H101.736V21.8966H97.4738V38.7839ZM118.282 25.0618C117.743 24.2812 117.052 23.6182 116.25 23.1128C114.963 22.302 113.208 21.8976 110.985 21.8976H105.371V38.7839H111.938C114.312 38.7839 116.217 38.0083 117.654 36.4552C119.091 34.9029 119.809 32.8428 119.809 30.2767C119.809 28.2355 119.3 26.4972 118.282 25.0618ZM111.462 34.9609H109.633V25.7197H111.488C112.791 25.7197 113.793 26.128 114.496 26.9415C115.198 27.7552 115.549 28.9096 115.549 30.4039C115.549 33.4419 114.186 34.9609 111.462 34.9609ZM17.8828 7.71875L4.07237 11.3358L0.266352 25.2242L5.02648 30.1115L0.189453 34.9181L3.77142 48.8672L17.522 52.7092L22.36 47.9016L27.1201 52.7881L40.9306 49.171L44.7357 35.2818L39.9765 30.3963L44.8135 25.5896L41.2315 11.6396L27.479 7.79755L22.6429 12.6042L17.8828 7.71875ZM9.40784 14.0074L16.6828 12.101L19.8642 15.3668L15.2246 19.977L9.40784 14.0074ZM25.3781 15.4105L28.6107 12.1988L35.8543 14.2229L29.9427 20.0966L25.3781 15.4105ZM4.6249 24.0839L6.62901 16.7691L12.4439 22.7387L7.80531 27.3488L4.6249 24.0839ZM32.6758 22.9039L38.5876 17.0282L40.473 24.3763L37.2414 27.589L32.6758 22.9039ZM17.9588 22.7833L22.5983 18.1732L27.1619 22.8592L22.5233 27.4694L17.9588 22.7833ZM10.5404 30.1552L15.179 25.545L19.7455 30.2311L15.105 34.8412L10.5404 30.1552ZM25.2585 30.2757L29.8971 25.6656L34.4616 30.3517L29.822 34.9618L25.2585 30.2757ZM4.52807 36.1305L7.76164 32.9168L12.3252 37.6039L6.41541 43.4767L4.52807 36.1305ZM17.8391 37.6476L22.4787 33.0374L27.0433 37.7235L22.4047 42.3336L17.8391 37.6476ZM32.5562 37.7691L37.1958 33.159L40.3771 36.4238L38.3739 43.7387L32.5562 37.7691ZM9.14863 46.2849L15.0594 40.4092L19.6258 45.0953L16.3923 48.309L9.14863 46.2849ZM25.1389 45.14L29.7775 40.5299L35.5933 46.5004L28.3192 48.4058L25.1389 45.14Z" fill="#F8FAFB"/>
</svg>
