<svg width="173" height="30" viewBox="0 0 173 30" fill="none" xmlns="http://www.w3.org/2000/svg">
<path d="M9.82666 25.0549C11.8749 26.1298 12.899 26.6672 14.0007 26.6672V15.0005L3.07834 9.25195C3.06225 9.27781 3.04647 9.30389 3.03095 9.33025C2.33398 10.5138 2.33398 11.9867 2.33398 14.9323V15.0688C2.33398 18.0144 2.33398 19.4873 3.03095 20.6709C3.72791 21.8545 4.98305 22.5132 7.49332 23.8304L9.82666 25.0549Z" fill="#009A49"/>
<path opacity="0.7" d="M20.5078 6.16978L18.1744 4.94531C16.1262 3.87044 15.1021 3.33301 14.0005 3.33301C12.8988 3.33301 11.8747 3.87044 9.82644 4.94531L7.49311 6.16978C5.03872 7.45778 3.7842 8.11613 3.07812 9.25109L14.0005 14.9997L24.9228 9.25109C24.2166 8.11613 22.9621 7.45778 20.5078 6.16978Z" fill="#009A49"/>
<path opacity="0.5" d="M24.9697 9.33025C24.9542 9.30389 24.9384 9.27781 24.9223 9.25195L14 15.0005V26.6672C15.1017 26.6672 16.1258 26.1298 18.174 25.0549L20.5073 23.8304C23.0176 22.5132 24.2727 21.8545 24.9697 20.6709C25.6667 19.4873 25.6667 18.0144 25.6667 15.0688V14.9323C25.6667 11.9867 25.6667 10.5138 24.9697 9.33025Z" fill="#009A49"/>
<path d="M47.2474 10.968L44.6554 11.784C44.5434 11.128 44.2154 10.528 43.6714 9.984C43.1274 9.44 42.3434 9.168 41.3194 9.168C40.4714 9.168 39.7674 9.408 39.2074 9.888C38.6634 10.368 38.3914 10.944 38.3914 11.616C38.3914 12.784 39.0554 13.512 40.3834 13.8L42.8314 14.304C44.3034 14.592 45.4394 15.176 46.2394 16.056C47.0394 16.936 47.4394 17.984 47.4394 19.2C47.4394 20.608 46.8954 21.824 45.8074 22.848C44.7354 23.856 43.2714 24.36 41.4154 24.36C39.4154 24.36 37.8554 23.84 36.7354 22.8C35.6154 21.744 34.9834 20.52 34.8394 19.128L37.5274 18.36C37.6234 19.32 38.0074 20.128 38.6794 20.784C39.3514 21.44 40.2634 21.768 41.4154 21.768C42.4074 21.768 43.1674 21.552 43.6954 21.12C44.2394 20.672 44.5114 20.104 44.5114 19.416C44.5114 18.856 44.3114 18.376 43.9114 17.976C43.5114 17.56 42.9514 17.272 42.2314 17.112L39.8314 16.608C38.5034 16.336 37.4474 15.784 36.6634 14.952C35.8954 14.12 35.5114 13.08 35.5114 11.832C35.5114 10.408 36.0794 9.184 37.2154 8.16C38.3514 7.136 39.7114 6.624 41.2954 6.624C43.1034 6.624 44.4874 7.064 45.4474 7.944C46.4074 8.808 47.0074 9.816 47.2474 10.968ZM52.8574 17.136V24H50.0734V6.624H52.8574V13.44C53.6094 12.464 54.7214 11.976 56.1934 11.976C57.5694 11.976 58.6254 12.408 59.3614 13.272C60.0974 14.136 60.4654 15.248 60.4654 16.608V24H57.6814V17.088C57.6814 16.304 57.4894 15.68 57.1054 15.216C56.7214 14.736 56.1134 14.496 55.2814 14.496C54.5454 14.496 53.9614 14.744 53.5294 15.24C53.1134 15.736 52.8894 16.368 52.8574 17.136ZM66.6627 20.88C67.3027 21.536 68.0787 21.864 68.9907 21.864C69.9027 21.864 70.6707 21.536 71.2947 20.88C71.9347 20.224 72.2547 19.312 72.2547 18.144C72.2547 16.992 71.9347 16.096 71.2947 15.456C70.6707 14.8 69.9027 14.472 68.9907 14.472C68.0787 14.472 67.3027 14.8 66.6627 15.456C66.0387 16.096 65.7267 16.992 65.7267 18.144C65.7267 19.296 66.0387 20.208 66.6627 20.88ZM68.9907 11.952C70.7507 11.952 72.1987 12.536 73.3347 13.704C74.4867 14.872 75.0627 16.352 75.0627 18.144C75.0627 19.936 74.4867 21.424 73.3347 22.608C72.1987 23.776 70.7507 24.36 68.9907 24.36C67.2467 24.36 65.7987 23.776 64.6467 22.608C63.5107 21.424 62.9427 19.936 62.9427 18.144C62.9427 16.352 63.5107 14.872 64.6467 13.704C65.7987 12.536 67.2467 11.952 68.9907 11.952ZM80.5131 28.56H77.7531V12.312H80.4411V13.896C80.7451 13.368 81.2251 12.928 81.8811 12.576C82.5371 12.224 83.2971 12.048 84.1611 12.048C85.8411 12.048 87.1611 12.624 88.1211 13.776C89.0811 14.912 89.5611 16.368 89.5611 18.144C89.5611 19.92 89.0571 21.392 88.0491 22.56C87.0411 23.712 85.7131 24.288 84.0651 24.288C83.2651 24.288 82.5531 24.136 81.9291 23.832C81.3051 23.528 80.8331 23.144 80.5131 22.68V28.56ZM86.7771 18.144C86.7771 17.056 86.4891 16.184 85.9131 15.528C85.3371 14.856 84.5771 14.52 83.6331 14.52C82.7051 14.52 81.9451 14.856 81.3531 15.528C80.7771 16.184 80.4891 17.056 80.4891 18.144C80.4891 19.248 80.7771 20.136 81.3531 20.808C81.9451 21.48 82.7051 21.816 83.6331 21.816C84.5611 21.816 85.3131 21.48 85.8891 20.808C86.4811 20.136 86.7771 19.248 86.7771 18.144ZM95.3575 21.36H98.3815C99.9495 21.36 101.238 20.864 102.246 19.872C103.27 18.864 103.782 17.416 103.782 15.528C103.782 13.624 103.278 12.168 102.27 11.16C101.262 10.136 99.9735 9.624 98.4055 9.624H95.3575V21.36ZM98.4775 24H92.4775V6.984H98.5015C100.902 6.984 102.878 7.744 104.43 9.264C105.998 10.784 106.782 12.872 106.782 15.528C106.782 18.168 105.998 20.24 104.43 21.744C102.862 23.248 100.878 24 98.4775 24ZM111.549 16.872H117.285C117.253 16.136 116.989 15.52 116.493 15.024C116.013 14.528 115.317 14.28 114.405 14.28C113.573 14.28 112.901 14.544 112.389 15.072C111.877 15.584 111.597 16.184 111.549 16.872ZM117.597 19.92L119.949 20.664C119.613 21.736 118.981 22.624 118.053 23.328C117.141 24.016 116.013 24.36 114.669 24.36C113.005 24.36 111.589 23.792 110.421 22.656C109.269 21.52 108.693 20 108.693 18.096C108.693 16.304 109.253 14.832 110.373 13.68C111.509 12.528 112.845 11.952 114.381 11.952C116.173 11.952 117.573 12.504 118.581 13.608C119.589 14.696 120.093 16.168 120.093 18.024C120.093 18.52 120.069 18.816 120.021 18.912H111.477C111.509 19.792 111.829 20.52 112.437 21.096C113.061 21.672 113.805 21.96 114.669 21.96C116.173 21.96 117.149 21.28 117.597 19.92ZM121.721 20.832L124.145 20.16C124.193 20.72 124.425 21.192 124.841 21.576C125.257 21.96 125.817 22.152 126.521 22.152C127.065 22.152 127.489 22.024 127.793 21.768C128.113 21.512 128.273 21.192 128.273 20.808C128.273 20.136 127.817 19.704 126.905 19.512L125.177 19.128C124.169 18.904 123.393 18.488 122.849 17.88C122.305 17.272 122.033 16.552 122.033 15.72C122.033 14.696 122.449 13.816 123.281 13.08C124.113 12.328 125.129 11.952 126.329 11.952C127.097 11.952 127.777 12.064 128.369 12.288C128.961 12.512 129.417 12.808 129.737 13.176C130.073 13.528 130.329 13.872 130.505 14.208C130.681 14.544 130.793 14.88 130.841 15.216L128.489 15.888C128.425 15.44 128.217 15.04 127.865 14.688C127.529 14.32 127.017 14.136 126.329 14.136C125.849 14.136 125.449 14.272 125.129 14.544C124.809 14.8 124.649 15.112 124.649 15.48C124.649 16.136 125.041 16.544 125.825 16.704L127.601 17.064C128.689 17.304 129.521 17.736 130.097 18.36C130.673 18.984 130.961 19.736 130.961 20.616C130.961 21.592 130.569 22.464 129.785 23.232C129.017 23.984 127.937 24.36 126.545 24.36C125.745 24.36 125.025 24.24 124.385 24C123.761 23.76 123.265 23.456 122.897 23.088C122.545 22.704 122.265 22.328 122.057 21.96C121.865 21.576 121.753 21.2 121.721 20.832ZM144.666 12.312L139.866 17.256L144.762 24H141.354L137.922 19.224L136.482 20.736V24H133.722V6.624H136.482V17.04L140.97 12.312H144.666Z" fill="#090F1C"/>
<path d="M160 5L160 25" stroke="#DEE5ED" stroke-linecap="round"/>
</svg>
