<svg width="28" height="27" viewBox="0 0 28 27" fill="none" xmlns="http://www.w3.org/2000/svg">
<path d="M14.0008 25.8286C20.8404 25.8286 26.385 20.284 26.385 13.4444C26.385 6.60474 20.8404 1.06012 14.0008 1.06012C7.16114 1.06012 1.61652 6.60474 1.61652 13.4444C1.61652 20.284 7.16114 25.8286 14.0008 25.8286Z" stroke="white" stroke-width="2.08056" stroke-linecap="round" stroke-linejoin="round"/>
<path d="M10.9047 9.68617C10.9047 9.09509 10.9047 8.79955 11.0282 8.63455C11.1359 8.49077 11.3007 8.40081 11.4798 8.38801C11.6854 8.37333 11.934 8.53315 12.4312 8.85278L18.2773 12.611C18.7088 12.8883 18.9245 13.027 18.999 13.2034C19.0641 13.3574 19.0641 13.5313 18.999 13.6854C18.9245 13.8617 18.7088 14.0004 18.2773 14.2778L12.4312 18.036C11.934 18.3556 11.6854 18.5154 11.4798 18.5007C11.3007 18.4879 11.1359 18.398 11.0282 18.2542C10.9047 18.0892 10.9047 17.7937 10.9047 17.2026V9.68617Z" stroke="white" stroke-width="2.08056" stroke-linecap="round" stroke-linejoin="round"/>
</svg>
