<svg width="721" height="520" viewBox="0 0 721 520" fill="none" xmlns="http://www.w3.org/2000/svg">
<path opacity="0.2" fill-rule="evenodd" clip-rule="evenodd" d="M0.00414162 -63.5207C0.00187748 -63.5237 0.000700188 -63.5259 0.776305 -63.9153C1.552 -64.3046 1.55281 -64.3039 1.55471 -64.3008L1.5635 -64.2888L1.59936 -64.2397C1.63151 -64.1952 1.67978 -64.1288 1.74436 -64.0413C1.8735 -63.8647 2.0674 -63.6021 2.32597 -63.2543C2.84292 -62.5586 3.61808 -61.5257 4.64899 -60.1766C6.71072 -57.48 9.79508 -53.5225 13.8826 -48.4838C22.0577 -38.4072 34.2444 -24.0079 50.2847 -6.7263C82.3661 27.8369 129.857 73.9209 191.492 120.004C314.772 212.176 494.565 304.292 720.774 304.292V305.801C493.95 305.801 313.744 213.435 190.283 121.127C128.548 74.9697 80.9835 28.814 48.8517 -5.80352C32.7855 -23.1123 20.5761 -37.538 12.3819 -47.6387C8.28484 -52.6895 5.1913 -56.6583 3.12115 -59.3663C2.08607 -60.7199 1.30692 -61.7588 0.785992 -62.4598C0.525616 -62.8099 0.329723 -63.0755 0.198675 -63.2543C0.133196 -63.3441 0.0839271 -63.4113 0.0509612 -63.4565L0.0136493 -63.5078L0.00414162 -63.5207ZM0.0903598 47.4922C0.0880956 47.49 0.0868282 47.4892 0.776305 46.9995C1.46569 46.5106 1.46642 46.5113 1.46823 46.5128L1.47692 46.5211L1.51251 46.5559L1.57545 46.617L1.65696 46.6954C1.71202 46.749 1.77886 46.8131 1.85756 46.8886L1.98336 47.0093C2.05971 47.0825 2.14438 47.1632 2.2374 47.2515C2.75362 47.7427 3.52805 48.4731 4.55814 49.4268C6.61833 51.3335 9.70116 54.1328 13.7871 57.6964C21.959 64.8236 34.1425 75.0096 50.1795 87.2344C82.2542 111.685 129.74 144.29 191.373 176.895C314.64 242.106 494.473 307.31 720.774 307.31V308.819C494.042 308.819 313.876 243.49 190.402 178.169C128.665 145.508 81.0953 112.847 48.9568 88.3473C32.8873 76.0977 20.6747 65.8882 12.4773 58.7384C8.37858 55.1634 5.28357 52.3536 3.21188 50.4364C2.17608 49.4774 1.39604 48.7417 0.874477 48.2452C0.613557 47.997 0.417393 47.8084 0.285982 47.6816C0.220322 47.6182 0.170873 47.5707 0.137635 47.5382L0.10005 47.502L0.0903598 47.4922ZM0.776305 123.961C0.193243 124.538 0.19451 124.539 0.196865 124.541L0.206556 124.548L0.24432 124.574L0.342222 124.642L0.393029 124.677C0.524621 124.768 0.721059 124.903 0.982164 125.081C1.50418 125.437 2.28459 125.965 3.32093 126.653C5.39335 128.028 8.48924 130.042 12.5887 132.605C20.7876 137.73 33.0012 145.049 49.0714 153.829C81.2118 171.391 128.78 194.801 190.513 218.208C313.978 265.025 494.105 311.837 720.774 311.837V310.328C494.409 310.328 314.538 263.579 191.263 216.835C129.625 193.463 82.1377 170.091 50.0648 152.568C34.0285 143.805 21.8461 136.505 13.6757 131.398C9.59058 128.844 6.50848 126.839 4.4491 125.472C3.41946 124.789 2.64549 124.266 2.12972 123.914C2.01905 123.839 1.92023 123.771 1.83338 123.711C1.71782 123.632 1.62336 123.567 1.55 123.516C1.4857 123.472 1.43761 123.438 1.40591 123.416L1.37041 123.391L1.36182 123.385C1.36182 123.385 1.36082 123.384 1.34289 123.402C1.33437 123.41 1.32188 123.422 1.30349 123.44C1.26953 123.473 1.21564 123.526 1.12961 123.611L0.776305 123.961ZM0.389046 208.395C0.389046 208.395 0.388502 208.395 0.389046 208.393C0.389589 208.392 0.391035 208.389 0.394386 208.382C0.401088 208.369 0.415492 208.343 0.445559 208.291C0.49682 208.2 0.593816 208.03 0.776305 207.713C0.952911 207.405 1.04982 207.237 1.10325 207.145C1.12816 207.102 1.14355 207.075 1.15324 207.059C1.16257 207.043 1.16637 207.037 1.16809 207.034C1.16917 207.033 1.16964 207.033 1.16964 207.033L1.17823 207.037L1.21382 207.051L1.3581 207.108C1.48671 207.158 1.68015 207.234 1.93817 207.334C2.45421 207.534 3.22855 207.832 4.25855 208.221C6.31856 208.997 9.40148 210.138 13.4876 211.59C21.6598 214.495 33.8449 218.646 49.8845 223.629C81.9639 233.594 129.462 246.884 191.115 260.176C314.42 286.759 494.342 313.346 720.774 313.346V314.855C494.172 314.855 314.096 288.248 190.661 261.637C128.943 248.332 81.3855 235.025 49.2518 225.043C33.1849 220.051 20.9739 215.892 12.7768 212.979C8.67835 211.522 5.58336 210.376 3.51148 209.595C2.47559 209.204 1.69545 208.904 1.17361 208.702C0.912782 208.601 0.716442 208.524 0.58494 208.472L0.43641 208.414L0.398736 208.399L0.389046 208.395ZM0.776305 274.865C0.653317 275.405 0.62035 275.552 0.612471 275.592C0.609483 275.607 0.610568 275.607 0.610568 275.607L0.619985 275.608L0.657117 275.614L0.804652 275.638C0.935432 275.658 1.13105 275.688 1.39124 275.728L1.63504 275.766L1.93518 275.812C2.10082 275.837 2.28205 275.865 2.47867 275.894C2.84166 275.949 3.25708 276.012 3.72477 276.082C5.79356 276.392 8.88564 276.847 12.9809 277.424C21.1716 278.581 33.3759 280.232 49.4354 282.213C81.5547 286.176 129.096 291.459 190.795 296.743C314.194 307.308 494.224 317.873 720.774 317.873V316.364C494.291 316.364 314.323 305.802 190.981 295.241C129.309 289.961 81.7947 284.681 49.7008 280.721C33.6539 278.741 21.4621 277.092 13.2835 275.937C9.19418 275.359 6.10817 274.906 4.04527 274.597C3.01382 274.443 2.23803 274.324 1.72063 274.244C1.46188 274.205 1.26772 274.175 1.1383 274.154L0.993032 274.132L0.956978 274.126L0.948102 274.124C0.948102 274.124 0.947106 274.124 0.943393 274.139C0.939861 274.153 0.933349 274.18 0.920942 274.234L0.893406 274.353C0.868229 274.462 0.831007 274.625 0.776305 274.865ZM0.786175 315.609C0.784092 315.609 0.783098 315.609 0.776305 316.364C0.769422 317.118 0.770509 317.118 0.772502 317.118H0.781646H0.796861L0.818236 317.119H0.845768H0.879276H0.91894L0.964676 317.12H1.01648L1.07435 317.121H1.1383L1.2083 317.121H1.28447L1.36661 317.122L1.45483 317.123L1.5491 317.124H1.64945L1.75577 317.124L1.86816 317.125L1.98663 317.126L2.11125 317.127L2.24175 317.127L2.37832 317.129L2.52088 317.13L2.66949 317.13L2.82408 317.131L2.98484 317.133L3.15148 317.133L3.32418 317.134L3.50278 317.136L3.68744 317.136L3.87818 317.138L4.07488 317.14L4.27748 317.14L4.48614 317.142L4.70078 317.143L4.9214 317.145L5.14801 317.146L5.38057 317.148L5.61912 317.149L5.86365 317.151L6.11407 317.152L6.37054 317.154L6.63291 317.155L6.90127 317.157L7.17549 317.158L7.45571 317.161L7.7419 317.162L8.03397 317.164L8.33203 317.166L8.63596 317.168L8.94587 317.17L9.26165 317.172L9.58334 317.174L9.911 317.176L10.2446 317.178L10.584 317.18L10.9294 317.183L11.2807 317.185L11.6378 317.187L12.0009 317.189L12.3699 317.192L12.7447 317.194L13.1254 317.196L13.512 317.198L13.9044 317.201L14.3028 317.204L14.707 317.206L15.1171 317.209L15.5331 317.211L15.9548 317.214L16.3825 317.216L16.8159 317.219L17.2552 317.223L17.7005 317.225L18.1515 317.228L18.6084 317.231L19.071 317.234L19.5396 317.237L20.0139 317.239L20.4941 317.242L20.98 317.246L21.4718 317.249L21.9695 317.252L22.4728 317.255L22.9821 317.258L23.4971 317.262L24.0179 317.265L24.5445 317.268L25.077 317.272L25.6151 317.275L26.159 317.278L26.7088 317.281L27.2643 317.285L27.8256 317.289L28.3927 317.292L28.9655 317.296L29.544 317.299L30.1284 317.303L30.7184 317.307L31.3142 317.311L31.9158 317.315L32.5231 317.318L33.1361 317.322L33.755 317.326L34.3794 317.33L35.0098 317.333L35.6457 317.338L36.2874 317.342L36.9347 317.346L37.5879 317.35L38.2467 317.354L38.9112 317.358L39.5814 317.363L40.2574 317.367L40.939 317.371L41.6263 317.376L42.3193 317.379L43.018 317.384L43.7224 317.389L44.4324 317.393L45.148 317.398L45.8694 317.402L46.5965 317.407L47.3292 317.411L48.0676 317.416L48.8116 317.42L49.5613 317.425L50.3166 317.43L51.0776 317.435L51.8442 317.44L52.6165 317.444L53.3943 317.45L54.1778 317.454L54.9669 317.459L55.7617 317.464L56.562 317.469L57.3681 317.475L58.1796 317.48L58.9968 317.484L59.8196 317.49L60.6481 317.495L61.4821 317.5L62.3217 317.505L63.1669 317.511L64.0176 317.516L64.874 317.521L65.7359 317.527L66.6034 317.533L67.4766 317.538L68.3551 317.543L69.2393 317.549L70.1291 317.554L71.0245 317.561L71.9254 317.566L72.8318 317.572L73.7438 317.577L74.6613 317.583L75.5844 317.589L76.5129 317.594L77.4471 317.601L78.3867 317.607L79.332 317.613L80.2827 317.619L81.2388 317.625L82.2006 317.631L83.1678 317.637L84.1406 317.643L85.1189 317.649L86.1026 317.655L87.0918 317.661L88.0866 317.668L89.0868 317.674L90.0925 317.68L91.104 317.687L92.1201 317.693L93.1426 317.699L94.1705 317.705L95.203 317.712L96.2418 317.719L97.286 317.725L98.3357 317.732L99.3898 317.739L100.45 317.745L101.516 317.752L102.588 317.759L103.665 317.766L104.747 317.773L105.834 317.779L106.927 317.786L108.025 317.793L109.129 317.8L110.239 317.807L111.353 317.814L112.473 317.821L113.599 317.828L114.73 317.835L115.866 317.842L117.008 317.85L118.154 317.856L119.307 317.864L120.464 317.871L121.628 317.878L122.797 317.886L123.97 317.893L125.149 317.901L126.334 317.908L127.524 317.915L128.72 317.923L129.92 317.93L131.127 317.938L132.338 317.946L133.555 317.954L134.777 317.961L136.005 317.969L137.237 317.976L138.475 317.985L139.719 317.992L140.968 318L142.222 318.008L143.481 318.016L144.746 318.024L146.016 318.032L147.291 318.04L148.572 318.048L149.858 318.056L151.149 318.064L152.446 318.072L153.747 318.08L155.054 318.089L156.367 318.097L157.684 318.105L159.007 318.114L160.335 318.122L161.669 318.13L163.008 318.138L164.352 318.147L165.701 318.156L167.055 318.164L168.415 318.172L169.78 318.182L171.15 318.19L172.525 318.198L173.906 318.207L175.292 318.215L176.683 318.225L178.08 318.234L179.481 318.242L180.888 318.251L182.3 318.26L183.717 318.269L185.139 318.278L186.567 318.286L187.999 318.295L189.438 318.304L190.881 318.314L192.329 318.323L193.783 318.332L195.242 318.341L196.705 318.351L198.174 318.36L199.649 318.369L201.128 318.378L202.612 318.387L204.102 318.397L205.597 318.406L207.097 318.416L208.602 318.425L210.113 318.435L211.628 318.444L213.149 318.454L214.674 318.464L216.205 318.473L217.74 318.483L219.282 318.492L220.828 318.502L222.379 318.512L223.936 318.522L225.497 318.532L227.064 318.541L228.635 318.551L230.212 318.561L231.794 318.571L233.381 318.581L234.973 318.591L236.57 318.601L238.172 318.611L239.779 318.621L241.391 318.631L243.009 318.642L244.632 318.652L246.259 318.662L247.891 318.672L249.53 318.683L251.172 318.693L252.82 318.704L254.473 318.713L256.13 318.724L257.793 318.735L259.461 318.745L261.134 318.756L262.812 318.766L264.495 318.777L266.183 318.787L267.876 318.798L269.574 318.809L271.276 318.819L272.984 318.83L274.697 318.841L276.415 318.852L278.139 318.863L279.867 318.873L281.599 318.884L283.337 318.895L285.079 318.906L286.827 318.917L288.581 318.928L290.338 318.939L292.101 318.95L293.869 318.962L295.641 318.972L297.419 318.984L299.201 318.995L300.989 319.006L302.781 319.018L304.578 319.029L306.381 319.04L308.188 319.051L310 319.063L311.817 319.074L313.639 319.085L315.466 319.097L317.297 319.109L319.134 319.12L320.976 319.132L322.823 319.144L324.674 319.155L326.53 319.167L328.392 319.178L330.257 319.19L332.128 319.202L334.004 319.214L335.885 319.226L337.771 319.237L339.661 319.249L341.556 319.261L343.456 319.273L345.361 319.285L347.271 319.297L349.186 319.309L351.105 319.322L353.03 319.334L354.959 319.346L356.893 319.358L358.832 319.37L360.775 319.382L362.724 319.394L364.678 319.407L366.636 319.419L368.598 319.431L370.566 319.444L372.539 319.456L374.516 319.469L376.498 319.481L378.485 319.494L380.477 319.506L382.474 319.519L384.475 319.531L386.481 319.543L388.492 319.556L390.508 319.569L392.528 319.582L394.553 319.595L396.583 319.608L398.618 319.62L400.658 319.633L402.702 319.646L404.751 319.659L406.804 319.672L408.863 319.685L410.926 319.697L412.995 319.71L415.067 319.724L417.144 319.737L419.226 319.749L421.313 319.763L423.405 319.776L425.501 319.789L427.602 319.802L429.707 319.816L431.818 319.829L433.933 319.842L436.053 319.856L438.177 319.869L440.306 319.882L442.44 319.896L444.578 319.909L446.721 319.922L448.869 319.936L451.022 319.949L453.179 319.963L455.341 319.977L457.508 319.99L459.678 320.004L461.854 320.017L464.035 320.032L466.22 320.045L468.41 320.059L470.603 320.072L472.803 320.087L475.007 320.1L477.215 320.115L479.427 320.128L481.645 320.142L483.867 320.156L486.094 320.17L488.325 320.184L490.56 320.198L492.801 320.212L495.046 320.226L497.296 320.241L499.55 320.255L501.809 320.269L504.073 320.283L506.341 320.297L508.613 320.312L510.891 320.326L513.172 320.34L515.458 320.355L517.749 320.369L520.044 320.383L522.344 320.398L524.649 320.413L526.958 320.427L529.272 320.441L531.589 320.456L533.912 320.471L536.239 320.485L538.571 320.5L540.908 320.514L543.248 320.53L545.594 320.544L547.943 320.559L550.298 320.574L552.656 320.588L555.02 320.604L557.387 320.619L559.76 320.633L562.136 320.648L564.517 320.663L566.904 320.678L569.294 320.693L571.688 320.708L574.087 320.723L576.491 320.739L578.899 320.754L581.312 320.769L583.729 320.784L586.15 320.799L588.576 320.815L591.007 320.83L593.441 320.845L595.88 320.86L598.325 320.876L600.773 320.891L603.225 320.907L605.682 320.922L608.143 320.938L610.609 320.953L613.08 320.969L615.554 320.984L618.033 321L620.517 321.015L623.005 321.031L625.496 321.046L627.993 321.062L630.494 321.078L632.999 321.094L635.509 321.11L638.023 321.126L640.542 321.141L643.065 321.157L645.593 321.173L648.124 321.189L650.66 321.205L653.2 321.221L655.745 321.237L658.294 321.253L660.848 321.269L663.405 321.285L665.967 321.301L668.534 321.317L671.104 321.333L673.68 321.35L676.259 321.366L678.843 321.382L681.43 321.398L684.023 321.415L686.62 321.431L689.221 321.447L691.826 321.464L694.436 321.48L697.049 321.496L699.668 321.513L702.29 321.529L704.917 321.546L707.548 321.563L710.183 321.579L712.822 321.596L715.467 321.612L718.115 321.629L720.767 321.646L720.78 320.136L718.129 320.12L715.48 320.103L712.836 320.087L710.197 320.07L707.561 320.053L704.93 320.037L702.304 320.02L699.681 320.004L697.063 319.988L694.449 319.971L691.84 319.955L689.234 319.938L686.633 319.922L684.037 319.906L681.444 319.889L678.857 319.873L676.273 319.857L673.693 319.841L671.118 319.824L668.547 319.808L665.981 319.792L663.419 319.776L660.861 319.76L658.308 319.744L655.759 319.728L653.214 319.712L650.673 319.696L648.138 319.68L645.606 319.664L643.079 319.648L640.555 319.632L638.037 319.617L635.523 319.601L633.013 319.585L630.508 319.569L628.007 319.553L625.51 319.537L623.018 319.522L620.53 319.506L618.047 319.491L615.567 319.475L613.093 319.46L610.622 319.444L608.157 319.429L605.696 319.413L603.239 319.398L600.786 319.382L598.338 319.367L595.894 319.351L593.455 319.336L591.02 319.321L588.59 319.306L586.163 319.29L583.743 319.275L581.325 319.26L578.913 319.245L576.505 319.23L574.101 319.214L571.702 319.199L569.307 319.184L566.917 319.169L564.531 319.154L562.15 319.139L559.773 319.124L557.401 319.11L555.033 319.094L552.669 319.079L550.311 319.065L547.956 319.05L545.607 319.035L543.261 319.021L540.921 319.005L538.585 318.991L536.254 318.976L533.926 318.962L531.603 318.947L529.285 318.932L526.971 318.918L524.663 318.904L522.358 318.889L520.059 318.874L517.763 318.86L515.472 318.845L513.186 318.831L510.904 318.817L508.626 318.802L506.354 318.788L504.086 318.774L501.823 318.76L499.564 318.746L497.309 318.732L495.06 318.717L492.815 318.703L490.575 318.689L488.339 318.675L486.107 318.661L483.88 318.647L481.659 318.633L479.441 318.619L477.228 318.606L475.02 318.591L472.817 318.578L470.618 318.563L468.423 318.55L466.234 318.536L464.048 318.523L461.868 318.509L459.692 318.495L457.521 318.481L455.355 318.467L453.193 318.454L451.036 318.44L448.883 318.427L446.736 318.413L444.592 318.4L442.454 318.387L440.32 318.373L438.191 318.36L436.066 318.347L433.947 318.333L431.831 318.32L429.721 318.307L427.615 318.293L425.514 318.28L423.419 318.267L421.327 318.254L419.24 318.24L417.158 318.228L415.08 318.215L413.008 318.201L410.94 318.188L408.876 318.175L406.818 318.163L404.765 318.15L402.715 318.137L400.671 318.124L398.632 318.111L396.597 318.099L394.567 318.086L392.542 318.073L390.522 318.06L388.506 318.047L386.495 318.034L384.489 318.022L382.487 318.009L380.49 317.997L378.499 317.985L376.512 317.972L374.53 317.96L372.552 317.947L370.58 317.935L368.612 317.922L366.649 317.91L364.691 317.898L362.738 317.885L360.789 317.873L358.845 317.861L356.906 317.849L354.973 317.837L353.044 317.825L351.119 317.813L349.199 317.8L347.285 317.788L345.375 317.776L343.47 317.764L341.57 317.752L339.674 317.74L337.784 317.729L335.899 317.717L334.018 317.705L332.142 317.693L330.271 317.681L328.405 317.669L326.544 317.658L324.687 317.646L322.836 317.634L320.99 317.623L319.148 317.611L317.312 317.6L315.48 317.588L313.653 317.576L311.831 317.565L310.014 317.554L308.202 317.542L306.394 317.531L304.592 317.52L302.795 317.508L301.003 317.497L299.215 317.486L297.433 317.475L295.655 317.463L293.882 317.453L292.115 317.441L290.352 317.43L288.594 317.419L286.841 317.408L285.093 317.397L283.351 317.386L281.613 317.375L279.88 317.364L278.152 317.354L276.429 317.342L274.711 317.332L272.998 317.321L271.29 317.31L269.587 317.299L267.889 317.289L266.197 317.278L264.508 317.268L262.826 317.257L261.147 317.247L259.475 317.236L257.806 317.226L256.144 317.215L254.486 317.204L252.834 317.195L251.186 317.184L249.543 317.173L247.906 317.164L246.273 317.153L244.646 317.143L243.023 317.133L241.405 317.122L239.793 317.112L238.186 317.103L236.583 317.092L234.987 317.082L233.395 317.072L231.808 317.062L230.226 317.052L228.649 317.042L227.078 317.032L225.511 317.023L223.949 317.013L222.393 317.003L220.841 316.993L219.295 316.983L217.755 316.974L216.219 316.964L214.687 316.955L213.162 316.945L211.642 316.935L210.126 316.926L208.616 316.916L207.111 316.907L205.611 316.897L204.116 316.888L202.626 316.878L201.141 316.869L199.662 316.86L198.188 316.851L196.719 316.841L195.255 316.832L193.796 316.823L192.343 316.814L190.895 316.805L189.451 316.795L188.014 316.786L186.581 316.777L185.153 316.769L183.731 316.76L182.314 316.751L180.902 316.742L179.495 316.733L178.093 316.725L176.697 316.715L175.306 316.707L173.92 316.698L172.539 316.689L171.164 316.681L169.794 316.672L168.429 316.663L167.069 316.655L165.715 316.647L164.365 316.638L163.021 316.629L161.683 316.621L160.35 316.613L159.021 316.605L157.698 316.596L156.38 316.588L155.068 316.58L153.761 316.571L152.46 316.563L151.163 316.555L149.871 316.547L148.585 316.539L147.305 316.531L146.029 316.523L144.76 316.515L143.494 316.506L142.236 316.499L140.981 316.491L139.732 316.483L138.489 316.476L137.251 316.467L136.018 316.46L134.791 316.452L133.568 316.445L132.352 316.437L131.14 316.429L129.934 316.421L128.733 316.414L127.538 316.406L126.348 316.399L125.163 316.392L123.984 316.384L122.81 316.377L121.642 316.369L120.478 316.362L119.321 316.355L118.168 316.347L117.021 316.34L115.879 316.333L114.743 316.326L113.612 316.319L112.487 316.312L111.367 316.305L110.252 316.297L109.143 316.291L108.039 316.284L106.94 316.277L105.848 316.27L104.76 316.264L103.678 316.257L102.601 316.25L101.53 316.243L100.464 316.236L99.4034 316.23L98.3493 316.223L97.2996 316.216L96.2554 316.21L95.2166 316.203L94.1841 316.197L93.1562 316.19L92.1337 316.184L91.1176 316.177L90.1062 316.171L89.1005 316.165L88.1003 316.159L87.1055 316.153L86.1163 316.146L85.1325 316.14L84.1542 316.134L83.1816 316.128L82.2142 316.122L81.2525 316.116L80.2963 316.11L79.3456 316.104L78.4004 316.098L77.4608 316.091L76.5266 316.085L75.5981 316.08L74.675 316.074L73.7575 316.068L72.8455 316.063L71.939 316.057L71.0382 316.051L70.1428 316.045L69.253 316.04L68.3688 316.034L67.4902 316.029L66.6171 316.024L65.7496 316.018L64.8877 316.012L64.0313 316.007L63.1805 316.002L62.3353 315.996L61.4957 315.991L60.6617 315.986L59.8334 315.981L59.0106 315.975L58.1933 315.971L57.3817 315.965L56.5757 315.96L55.7754 315.955L54.9807 315.95L54.1915 315.945L53.4079 315.941L52.6301 315.935L51.8579 315.931L51.0912 315.925L50.3303 315.921L49.575 315.916L48.8253 315.912L48.0812 315.907L47.3429 315.902L46.6102 315.898L45.8832 315.893L45.1617 315.889L44.4461 315.884L43.736 315.879L43.0317 315.875L42.333 315.87L41.64 315.867L40.9527 315.862L40.271 315.858L39.5951 315.854L38.9249 315.849L38.2603 315.845L37.6016 315.841L36.9484 315.837L36.301 315.833L35.6593 315.829L35.0233 315.825L34.3932 315.821L33.7686 315.817L33.1498 315.813L32.5368 315.809L31.9294 315.806L31.3279 315.802L30.7321 315.798L30.1419 315.794L29.5577 315.79L28.9791 315.787L28.4062 315.783L27.8392 315.78L27.278 315.776L26.7224 315.772L26.1727 315.769L25.6288 315.766L25.0905 315.762L24.5581 315.759L24.0316 315.756L23.5107 315.753L22.9958 315.749L22.4865 315.746L21.9831 315.743L21.4855 315.74L20.9937 315.737L20.5077 315.734L20.0276 315.731L19.5532 315.728L19.0847 315.725L18.622 315.722L18.1652 315.719L17.7141 315.716L17.2689 315.713L16.8296 315.71L16.3961 315.707L15.9684 315.705L15.5466 315.702L15.1308 315.7L14.7207 315.697L14.3164 315.695L13.9181 315.692L13.5257 315.689L13.139 315.687L12.7583 315.685L12.3835 315.683L12.0146 315.68L11.6515 315.678L11.2943 315.676L10.9431 315.673L10.5977 315.671L10.2582 315.669L9.92468 315.667L9.59701 315.665L9.27532 315.663L8.95955 315.661L8.64964 315.659L8.3457 315.657L8.04765 315.655L7.75557 315.653L7.46939 315.652L7.18917 315.65L6.91484 315.648L6.64659 315.646L6.38413 315.645L6.12783 315.643L5.87723 315.642L5.6328 315.64L5.39425 315.639L5.16167 315.637L4.93509 315.636L4.71447 315.634L4.49982 315.633L4.29115 315.631L4.08848 315.63L3.89185 315.629L3.70122 315.628L3.51646 315.627L3.33777 315.625L3.16516 315.624L2.99842 315.624L2.83786 315.622L2.68317 315.621L2.53455 315.621L2.39199 315.62L2.25534 315.618L2.12482 315.618L2.00039 315.617L1.88184 315.616L1.76945 315.615H1.66304L1.56277 315.615L1.46849 315.614L1.38028 315.613L1.29806 315.612H1.22198L1.15197 315.612H1.08804L1.03016 315.611H0.97827L0.932625 315.61H0.892953H0.859441H0.83191L0.810629 315.609H0.795323H0.786175ZM0.776305 518.576C0.193243 517.999 0.19451 517.998 0.196865 517.996L0.206556 517.99L0.24432 517.963L0.253195 517.956L0.332984 517.901L0.393029 517.86L0.504063 517.783L0.630222 517.696C0.730297 517.627 0.847669 517.547 0.982164 517.455C1.50418 517.099 2.28459 516.572 3.32093 515.884C5.39335 514.509 8.48916 512.495 12.5887 509.932C20.7876 504.806 33.0012 497.488 49.0714 488.707C81.2118 471.146 128.78 447.737 190.513 424.328C313.978 377.512 494.105 330.7 720.774 330.7V332.209C494.409 332.209 314.538 378.957 191.263 425.702C129.625 449.074 82.1377 472.445 50.0648 489.969C34.0285 498.731 21.8461 506.031 13.6757 511.139C9.59058 513.692 6.50848 515.699 4.4491 517.064C3.41946 517.748 2.64549 518.271 2.12972 518.623C1.87179 518.799 1.67842 518.932 1.55 519.021C1.49838 519.056 1.45726 519.085 1.42665 519.106L1.40591 519.12L1.37041 519.145L1.36182 519.151C1.36182 519.151 1.36055 519.152 1.31708 519.11C1.25694 519.051 1.11466 518.911 0.776305 518.576ZM0.389046 433.387C0.386691 433.388 0.385424 433.389 0.776305 434.069C1.1671 434.75 1.16782 434.75 1.16964 434.749L1.17823 434.745L1.21382 434.732L1.3581 434.674C1.48671 434.624 1.68015 434.548 1.93817 434.448C2.15 434.366 2.4053 434.268 2.70399 434.153C2.88648 434.083 3.08518 434.007 3.3 433.925C3.59009 433.815 3.9096 433.694 4.25855 433.562C6.31856 432.785 9.40148 431.644 13.4876 430.192C21.6598 427.288 33.8449 423.136 49.8845 418.153C81.9639 408.188 129.462 394.898 191.115 381.606C314.42 355.023 494.342 328.436 720.774 328.436V326.927C494.172 326.927 314.096 353.534 190.661 380.145C128.943 393.45 81.3855 406.757 49.2518 416.739C33.1849 421.731 20.9739 425.89 12.7768 428.804C8.67835 430.26 5.58336 431.406 3.51148 432.187C2.47559 432.578 1.69545 432.878 1.17361 433.08C1.0268 433.137 0.900469 433.187 0.794598 433.228C0.712274 433.26 0.642449 433.288 0.58494 433.31L0.43641 433.368L0.398736 433.383L0.389046 433.387ZM0.776305 366.162C0.607219 365.421 0.608394 365.421 0.610568 365.421L0.619985 365.419L0.657117 365.413L0.804652 365.39C0.935432 365.37 1.13105 365.339 1.39124 365.299C1.91163 365.219 2.69032 365.1 3.72477 364.945C5.79356 364.635 8.88564 364.181 12.9809 363.603C21.1716 362.447 33.3759 360.795 49.4354 358.814C81.5547 354.851 129.096 349.568 190.795 344.285C314.194 333.719 494.224 323.155 720.774 323.155V324.664C494.291 324.664 314.323 335.225 190.981 345.786C129.309 351.067 81.7947 356.347 49.7008 360.306C33.6539 362.286 21.4621 363.936 13.2835 365.091C9.19418 365.668 6.10817 366.122 4.04527 366.43C3.42227 366.524 2.89256 366.604 2.45666 366.67C2.17093 366.714 1.92549 366.752 1.72063 366.783C1.46188 366.823 1.26772 366.853 1.1383 366.873L0.993032 366.896L0.956978 366.902L0.948102 366.903C0.9462 366.903 0.945304 366.904 0.776305 366.162Z" fill="url(#paint0_linear_1151_1246)"/>
<defs>
<linearGradient id="paint0_linear_1151_1246" x1="709.907" y1="219.774" x2="13.9812" y2="219.774" gradientUnits="userSpaceOnUse">
<stop offset="0.0182341" stop-color="#444444" stop-opacity="0"/>
<stop offset="0.127609" stop-color="#444444"/>
<stop offset="0.563305" stop-color="#444444" stop-opacity="0.65"/>
<stop offset="0.943305" stop-color="#444444" stop-opacity="0"/>
</linearGradient>
</defs>
</svg>
