<svg width="721" height="520" viewBox="0 0 721 520" fill="none" xmlns="http://www.w3.org/2000/svg">
<path opacity="0.2" fill-rule="evenodd" clip-rule="evenodd" d="M720.789 -63.5207C720.791 -63.5237 720.792 -63.5259 720.017 -63.9153C719.241 -64.3046 719.24 -64.3039 719.238 -64.3008L719.229 -64.2888L719.194 -64.2397C719.161 -64.1952 719.113 -64.1288 719.049 -64.0413C718.919 -63.8647 718.726 -63.6021 718.467 -63.2543C717.95 -62.5586 717.175 -61.5257 716.144 -60.1766C714.082 -57.48 710.998 -53.5225 706.91 -48.4838C698.735 -38.4072 686.549 -24.0079 670.508 -6.7263C638.427 27.8369 590.936 73.9209 529.301 120.004C406.021 212.176 226.228 304.292 0.019043 304.292V305.801C226.843 305.801 407.049 213.435 530.51 121.127C592.245 74.9697 639.81 28.814 671.941 -5.80352C688.008 -23.1123 700.217 -37.538 708.411 -47.6387C712.508 -52.6895 715.602 -56.6583 717.672 -59.3663C718.707 -60.7199 719.486 -61.7588 720.007 -62.4598C720.267 -62.8099 720.463 -63.0755 720.594 -63.2543C720.66 -63.3441 720.709 -63.4113 720.742 -63.4565L720.779 -63.5078L720.789 -63.5207ZM720.703 47.4922C720.705 47.49 720.706 47.4892 720.017 46.9995C719.327 46.5106 719.327 46.5113 719.325 46.5128L719.316 46.5211L719.28 46.5559L719.218 46.617L719.136 46.6954C719.081 46.749 719.014 46.8131 718.935 46.8886L718.81 47.0093C718.733 47.0825 718.649 47.1632 718.556 47.2515C718.039 47.7427 717.265 48.4731 716.235 49.4268C714.175 51.3335 711.092 54.1328 707.006 57.6964C698.834 64.8236 686.65 75.0096 670.613 87.2344C638.539 111.685 591.053 144.29 529.42 176.895C406.153 242.106 226.32 307.31 0.019043 307.31V308.819C226.751 308.819 406.917 243.49 530.391 178.169C592.128 145.508 639.698 112.847 671.836 88.3473C687.906 76.0977 700.118 65.8882 708.316 58.7384C712.414 55.1634 715.509 52.3536 717.581 50.4364C718.617 49.4774 719.397 48.7417 719.918 48.2452C720.179 47.997 720.376 47.8084 720.507 47.6816C720.573 47.6182 720.622 47.5707 720.655 47.5382L720.693 47.502L720.703 47.4922ZM720.017 123.961C720.6 124.538 720.598 124.539 720.596 124.541L720.586 124.548L720.549 124.574L720.451 124.642L720.4 124.677C720.268 124.768 720.072 124.903 719.811 125.081C719.289 125.437 718.508 125.965 717.472 126.653C715.4 128.028 712.304 130.042 708.204 132.605C700.005 137.73 687.792 145.049 671.722 153.829C639.581 171.391 592.013 194.801 530.28 218.208C406.815 265.025 226.688 311.837 0.019043 311.837V310.328C226.384 310.328 406.255 263.579 529.53 216.835C591.168 193.463 638.655 170.091 670.728 152.568C686.764 143.805 698.947 136.505 707.117 131.398C711.202 128.844 714.284 126.839 716.344 125.472C717.374 124.789 718.147 124.266 718.663 123.914C718.774 123.839 718.873 123.771 718.96 123.711C719.075 123.632 719.17 123.567 719.243 123.516C719.307 123.472 719.355 123.438 719.387 123.416L719.423 123.391L719.431 123.385C719.431 123.385 719.432 123.384 719.45 123.402C719.459 123.41 719.471 123.422 719.489 123.44C719.523 123.473 719.577 123.526 719.663 123.611L720.017 123.961ZM720.404 208.395C720.404 208.395 720.404 208.395 720.404 208.393C720.403 208.392 720.402 208.389 720.399 208.382C720.392 208.369 720.377 208.343 720.347 208.291C720.296 208.2 720.199 208.03 720.017 207.713C719.84 207.405 719.743 207.237 719.69 207.145C719.665 207.102 719.649 207.075 719.64 207.059C719.63 207.043 719.627 207.037 719.625 207.034C719.624 207.033 719.623 207.033 719.623 207.033L719.615 207.037L719.579 207.051L719.435 207.108C719.306 207.158 719.113 207.234 718.855 207.334C718.339 207.534 717.564 207.832 716.534 208.221C714.474 208.997 711.391 210.138 707.305 211.59C699.133 214.495 686.948 218.646 670.908 223.629C638.829 233.594 591.331 246.884 529.678 260.176C406.373 286.759 226.451 313.346 0.019043 313.346V314.855C226.621 314.855 406.697 288.248 530.132 261.637C591.85 248.332 639.408 235.025 671.541 225.043C687.608 220.051 699.819 215.892 708.016 212.979C712.115 211.522 715.21 210.376 717.281 209.595C718.317 209.204 719.098 208.904 719.619 208.702C719.88 208.601 720.077 208.524 720.208 208.472L720.357 208.414L720.394 208.399L720.404 208.395ZM720.017 274.865C720.14 275.405 720.173 275.552 720.18 275.592C720.183 275.607 720.182 275.607 720.182 275.607L720.173 275.608L720.136 275.614L719.988 275.638C719.858 275.658 719.662 275.688 719.402 275.728L719.158 275.766L718.858 275.812C718.692 275.837 718.511 275.865 718.314 275.894C717.951 275.949 717.536 276.012 717.068 276.082C714.999 276.392 711.907 276.847 707.812 277.424C699.621 278.581 687.417 280.232 671.358 282.213C639.238 286.176 591.697 291.459 529.998 296.743C406.599 307.308 226.569 317.873 0.019043 317.873V316.364C226.502 316.364 406.47 305.802 529.812 295.241C591.484 289.961 638.998 284.681 671.092 280.721C687.139 278.741 699.331 277.092 707.509 275.937C711.599 275.359 714.685 274.906 716.748 274.597C717.779 274.443 718.555 274.324 719.072 274.244C719.331 274.205 719.525 274.175 719.655 274.154L719.8 274.132L719.836 274.126L719.845 274.124C719.845 274.124 719.846 274.124 719.85 274.139C719.853 274.153 719.86 274.18 719.872 274.234L719.9 274.353C719.925 274.462 719.962 274.625 720.017 274.865ZM720.007 315.609C720.009 315.609 720.01 315.609 720.017 316.364C720.024 317.118 720.022 317.118 720.02 317.118H720.011H719.996L719.975 317.119H719.947H719.914H719.874L719.828 317.12H719.776L719.719 317.121H719.655L719.585 317.121H719.508L719.426 317.122L719.338 317.123L719.244 317.124H719.144L719.037 317.124L718.925 317.125L718.806 317.126L718.682 317.127L718.551 317.127L718.415 317.129L718.272 317.13L718.123 317.13L717.969 317.131L717.808 317.133L717.641 317.133L717.469 317.134L717.29 317.136L717.106 317.136L716.915 317.138L716.718 317.14L716.515 317.14L716.307 317.142L716.092 317.143L715.872 317.145L715.645 317.146L715.412 317.148L715.174 317.149L714.929 317.151L714.679 317.152L714.422 317.154L714.16 317.155L713.892 317.157L713.617 317.158L713.337 317.161L713.051 317.162L712.759 317.164L712.461 317.166L712.157 317.168L711.847 317.17L711.531 317.172L711.21 317.174L710.882 317.176L710.548 317.178L710.209 317.18L709.864 317.183L709.512 317.185L709.155 317.187L708.792 317.189L708.423 317.192L708.048 317.194L707.668 317.196L707.281 317.198L706.889 317.201L706.49 317.204L706.086 317.206L705.676 317.209L705.26 317.211L704.838 317.214L704.411 317.216L703.977 317.219L703.538 317.223L703.092 317.225L702.641 317.228L702.185 317.231L701.722 317.234L701.253 317.237L700.779 317.239L700.299 317.242L699.813 317.246L699.321 317.249L698.824 317.252L698.32 317.255L697.811 317.258L697.296 317.262L696.775 317.265L696.248 317.268L695.716 317.272L695.178 317.275L694.634 317.278L694.084 317.281L693.529 317.285L692.967 317.289L692.4 317.292L691.827 317.296L691.249 317.299L690.665 317.303L690.075 317.307L689.479 317.311L688.877 317.315L688.27 317.318L687.657 317.322L687.038 317.326L686.414 317.33L685.783 317.333L685.147 317.338L684.506 317.342L683.858 317.346L683.205 317.35L682.546 317.354L681.882 317.358L681.212 317.363L680.536 317.367L679.854 317.371L679.167 317.376L678.474 317.379L677.775 317.384L677.071 317.389L676.361 317.393L675.645 317.398L674.924 317.402L674.197 317.407L673.464 317.411L672.725 317.416L671.981 317.42L671.232 317.425L670.476 317.43L669.715 317.435L668.949 317.44L668.177 317.444L667.399 317.45L666.615 317.454L665.826 317.459L665.031 317.464L664.231 317.469L663.425 317.475L662.613 317.48L661.796 317.484L660.973 317.49L660.145 317.495L659.311 317.5L658.471 317.505L657.626 317.511L656.775 317.516L655.919 317.521L655.057 317.527L654.19 317.533L653.316 317.538L652.438 317.543L651.554 317.549L650.664 317.554L649.768 317.561L648.868 317.566L647.961 317.572L647.049 317.577L646.132 317.583L645.209 317.589L644.28 317.594L643.346 317.601L642.406 317.607L641.461 317.613L640.51 317.619L639.554 317.625L638.592 317.631L637.625 317.637L636.652 317.643L635.674 317.649L634.69 317.655L633.701 317.661L632.706 317.668L631.706 317.674L630.7 317.68L629.689 317.687L628.673 317.693L627.65 317.699L626.622 317.705L625.59 317.712L624.551 317.719L623.507 317.725L622.457 317.732L621.403 317.739L620.343 317.745L619.277 317.752L618.205 317.759L617.128 317.766L616.046 317.773L614.959 317.779L613.866 317.786L612.768 317.793L611.664 317.8L610.554 317.807L609.44 317.814L608.32 317.821L607.194 317.828L606.063 317.835L604.927 317.842L603.785 317.85L602.639 317.856L601.486 317.864L600.328 317.871L599.165 317.878L597.996 317.886L596.823 317.893L595.644 317.901L594.459 317.908L593.269 317.915L592.073 317.923L590.873 317.93L589.666 317.938L588.455 317.946L587.238 317.954L586.016 317.961L584.788 317.969L583.556 317.976L582.318 317.985L581.074 317.992L579.825 318L578.571 318.008L577.312 318.016L576.047 318.024L574.777 318.032L573.502 318.04L572.221 318.048L570.935 318.056L569.644 318.064L568.347 318.072L567.046 318.08L565.739 318.089L564.426 318.097L563.109 318.105L561.786 318.114L560.458 318.122L559.124 318.13L557.785 318.138L556.441 318.147L555.092 318.156L553.738 318.164L552.378 318.172L551.013 318.182L549.642 318.19L548.268 318.198L546.887 318.207L545.501 318.215L544.11 318.225L542.713 318.234L541.312 318.242L539.905 318.251L538.493 318.26L537.076 318.269L535.654 318.278L534.226 318.286L532.794 318.295L531.355 318.304L529.912 318.314L528.464 318.323L527.01 318.332L525.551 318.341L524.088 318.351L522.619 318.36L521.144 318.369L519.665 318.378L518.181 318.387L516.691 318.397L515.196 318.406L513.696 318.416L512.191 318.425L510.68 318.435L509.165 318.444L507.644 318.454L506.119 318.464L504.588 318.473L503.053 318.483L501.511 318.492L499.965 318.502L498.414 318.512L496.857 318.522L495.296 318.532L493.729 318.541L492.158 318.551L490.581 318.561L488.999 318.571L487.412 318.581L485.82 318.591L484.223 318.601L482.621 318.611L481.014 318.621L479.402 318.631L477.784 318.642L476.161 318.652L474.534 318.662L472.902 318.672L471.263 318.683L469.621 318.693L467.973 318.704L466.32 318.713L464.663 318.724L463 318.735L461.332 318.745L459.659 318.756L457.981 318.766L456.298 318.777L454.61 318.787L452.917 318.798L451.219 318.809L449.517 318.819L447.809 318.83L446.096 318.841L444.378 318.852L442.654 318.863L440.926 318.873L439.194 318.884L437.456 318.895L435.714 318.906L433.966 318.917L432.212 318.928L430.455 318.939L428.692 318.95L426.924 318.962L425.152 318.972L423.374 318.984L421.592 318.995L419.804 319.006L418.012 319.018L416.215 319.029L414.412 319.04L412.605 319.051L410.793 319.063L408.976 319.074L407.154 319.085L405.327 319.097L403.496 319.109L401.659 319.12L399.817 319.132L397.97 319.144L396.119 319.155L394.262 319.167L392.401 319.178L390.536 319.19L388.665 319.202L386.789 319.214L384.908 319.226L383.022 319.237L381.132 319.249L379.237 319.261L377.337 319.273L375.432 319.285L373.522 319.297L371.607 319.309L369.687 319.322L367.763 319.334L365.834 319.346L363.9 319.358L361.961 319.37L360.018 319.382L358.069 319.394L356.115 319.407L354.157 319.419L352.195 319.431L350.227 319.444L348.254 319.456L346.277 319.469L344.295 319.481L342.308 319.494L340.316 319.506L338.319 319.519L336.318 319.531L334.312 319.543L332.301 319.556L330.285 319.569L328.264 319.582L326.239 319.595L324.21 319.608L322.175 319.62L320.135 319.633L318.091 319.646L316.042 319.659L313.989 319.672L311.93 319.685L309.867 319.697L307.798 319.71L305.726 319.724L303.649 319.737L301.567 319.749L299.48 319.763L297.388 319.776L295.292 319.789L293.191 319.802L291.085 319.816L288.975 319.829L286.86 319.842L284.74 319.856L282.616 319.869L280.487 319.882L278.353 319.896L276.215 319.909L274.072 319.922L271.924 319.936L269.771 319.949L267.614 319.963L265.452 319.977L263.285 319.99L261.115 320.004L258.939 320.017L256.758 320.032L254.573 320.045L252.383 320.059L250.19 320.072L247.99 320.087L245.786 320.1L243.578 320.115L241.366 320.128L239.148 320.142L236.926 320.156L234.699 320.17L232.468 320.184L230.233 320.198L227.992 320.212L225.747 320.226L223.497 320.241L221.243 320.255L218.984 320.269L216.72 320.283L214.452 320.297L212.18 320.312L209.902 320.326L207.621 320.34L205.335 320.355L203.044 320.369L200.749 320.383L198.448 320.398L196.144 320.413L193.835 320.427L191.521 320.441L189.204 320.456L186.881 320.471L184.554 320.485L182.222 320.5L179.885 320.514L177.545 320.53L175.199 320.544L172.85 320.559L170.495 320.574L168.137 320.588L165.773 320.604L163.406 320.619L161.033 320.633L158.657 320.648L156.276 320.663L153.889 320.678L151.499 320.693L149.105 320.708L146.706 320.723L144.302 320.739L141.894 320.754L139.481 320.769L137.064 320.784L134.643 320.799L132.217 320.815L129.786 320.83L127.352 320.845L124.913 320.86L122.468 320.876L120.02 320.891L117.568 320.907L115.111 320.922L112.65 320.938L110.184 320.953L107.713 320.969L105.239 320.984L102.76 321L100.276 321.015L97.7883 321.031L95.2969 321.046L92.8 321.062L90.2986 321.078L87.7935 321.094L85.2839 321.11L82.7698 321.126L80.2512 321.141L77.728 321.157L75.2003 321.173L72.6691 321.189L70.1332 321.205L67.5928 321.221L65.0479 321.237L62.4985 321.253L59.9454 321.269L57.3879 321.285L54.8257 321.301L52.2592 321.317L49.6888 321.333L47.1132 321.35L44.5339 321.366L41.9501 321.382L39.3626 321.398L36.7697 321.415L34.1732 321.431L31.5721 321.447L28.9674 321.464L26.3574 321.48L23.7436 321.496L21.1254 321.513L18.5026 321.529L15.8762 321.546L13.2452 321.563L10.6098 321.579L7.9707 321.596L5.32617 321.612L2.67798 321.629L0.0262451 321.646L0.0126343 320.136L2.66443 320.12L5.31262 320.103L7.95709 320.087L10.5962 320.07L13.2316 320.053L15.8626 320.037L18.489 320.02L21.1118 320.004L23.73 319.988L26.3438 319.971L28.9529 319.955L31.5585 319.938L34.1596 319.922L36.7561 319.906L39.349 319.889L41.9365 319.873L44.5203 319.857L47.0996 319.841L49.6753 319.824L52.2455 319.808L54.8121 319.792L57.3743 319.776L59.9318 319.76L62.4849 319.744L65.0344 319.728L67.5792 319.712L70.1196 319.696L72.6555 319.68L75.1868 319.664L77.7144 319.648L80.2376 319.632L82.7562 319.617L85.2704 319.601L87.7799 319.585L90.285 319.569L92.7864 319.553L95.2833 319.537L97.7748 319.522L100.263 319.506L102.746 319.491L105.226 319.475L107.7 319.46L110.17 319.444L112.636 319.429L115.097 319.413L117.554 319.398L120.007 319.382L122.455 319.367L124.899 319.351L127.338 319.336L129.773 319.321L132.203 319.306L134.63 319.29L137.05 319.275L139.468 319.26L141.88 319.245L144.288 319.23L146.692 319.214L149.091 319.199L151.486 319.184L153.876 319.169L156.262 319.154L158.643 319.139L161.02 319.124L163.392 319.11L165.76 319.094L168.124 319.079L170.482 319.065L172.837 319.05L175.186 319.035L177.531 319.021L179.872 319.005L182.208 318.991L184.539 318.976L186.867 318.962L189.19 318.947L191.508 318.932L193.822 318.918L196.13 318.904L198.435 318.889L200.734 318.874L203.03 318.86L205.321 318.845L207.607 318.831L209.889 318.817L212.167 318.802L214.439 318.788L216.707 318.774L218.97 318.76L221.229 318.746L223.484 318.732L225.733 318.717L227.978 318.703L230.218 318.689L232.454 318.675L234.686 318.661L236.913 318.647L239.134 318.633L241.352 318.619L243.565 318.606L245.773 318.591L247.976 318.578L250.175 318.563L252.37 318.55L254.559 318.536L256.745 318.523L258.925 318.509L261.101 318.495L263.272 318.481L265.438 318.467L267.6 318.454L269.757 318.44L271.91 318.427L274.057 318.413L276.201 318.4L278.339 318.387L280.473 318.373L282.602 318.36L284.727 318.347L286.846 318.333L288.962 318.32L291.072 318.307L293.178 318.293L295.279 318.28L297.374 318.267L299.466 318.254L301.553 318.24L303.635 318.228L305.713 318.215L307.785 318.201L309.853 318.188L311.917 318.175L313.975 318.163L316.028 318.15L318.078 318.137L320.122 318.124L322.161 318.111L324.196 318.099L326.226 318.086L328.251 318.073L330.271 318.06L332.287 318.047L334.298 318.034L336.304 318.022L338.306 318.009L340.303 317.997L342.294 317.985L344.281 317.972L346.263 317.96L348.241 317.947L350.213 317.935L352.181 317.922L354.144 317.91L356.102 317.898L358.055 317.885L360.004 317.873L361.948 317.861L363.887 317.849L365.82 317.837L367.749 317.825L369.674 317.813L371.594 317.8L373.508 317.788L375.418 317.776L377.323 317.764L379.223 317.752L381.119 317.74L383.009 317.729L384.894 317.717L386.775 317.705L388.651 317.693L390.522 317.681L392.388 317.669L394.249 317.658L396.105 317.646L397.957 317.634L399.803 317.623L401.645 317.611L403.481 317.6L405.313 317.588L407.14 317.576L408.962 317.565L410.779 317.554L412.591 317.542L414.399 317.531L416.201 317.52L417.998 317.508L419.79 317.497L421.578 317.486L423.36 317.475L425.138 317.463L426.91 317.453L428.678 317.441L430.441 317.43L432.199 317.419L433.952 317.408L435.7 317.397L437.442 317.386L439.18 317.375L440.913 317.364L442.641 317.354L444.364 317.342L446.082 317.332L447.795 317.321L449.503 317.31L451.206 317.299L452.904 317.289L454.596 317.278L456.285 317.268L457.967 317.257L459.646 317.247L461.318 317.236L462.986 317.226L464.649 317.215L466.307 317.204L467.959 317.195L469.607 317.184L471.25 317.173L472.887 317.164L474.52 317.153L476.147 317.143L477.77 317.133L479.388 317.122L481 317.112L482.607 317.103L484.21 317.092L485.806 317.082L487.398 317.072L488.985 317.062L490.567 317.052L492.144 317.042L493.715 317.032L495.282 317.023L496.844 317.013L498.4 317.003L499.952 316.993L501.498 316.983L503.038 316.974L504.574 316.964L506.106 316.955L507.631 316.945L509.151 316.935L510.667 316.926L512.177 316.916L513.682 316.907L515.182 316.897L516.677 316.888L518.167 316.878L519.652 316.869L521.131 316.86L522.605 316.851L524.074 316.841L525.537 316.832L526.997 316.823L528.45 316.814L529.898 316.805L531.342 316.795L532.779 316.786L534.212 316.777L535.64 316.769L537.062 316.76L538.479 316.751L539.891 316.742L541.298 316.733L542.7 316.725L544.096 316.715L545.487 316.707L546.873 316.698L548.254 316.689L549.629 316.681L550.999 316.672L552.364 316.663L553.724 316.655L555.078 316.647L556.428 316.638L557.772 316.629L559.11 316.621L560.443 316.613L561.772 316.605L563.095 316.596L564.413 316.588L565.725 316.58L567.032 316.571L568.333 316.563L569.63 316.555L570.922 316.547L572.208 316.539L573.488 316.531L574.764 316.523L576.033 316.515L577.299 316.506L578.557 316.499L579.812 316.491L581.061 316.483L582.304 316.476L583.542 316.467L584.775 316.46L586.002 316.452L587.225 316.445L588.441 316.437L589.653 316.429L590.859 316.421L592.06 316.414L593.255 316.406L594.445 316.399L595.63 316.392L596.809 316.384L597.983 316.377L599.151 316.369L600.315 316.362L601.472 316.355L602.625 316.347L603.772 316.34L604.914 316.333L606.05 316.326L607.181 316.319L608.306 316.312L609.426 316.305L610.541 316.297L611.65 316.291L612.754 316.284L613.853 316.277L614.945 316.27L616.033 316.264L617.115 316.257L618.192 316.25L619.263 316.243L620.329 316.236L621.39 316.23L622.444 316.223L623.493 316.216L624.538 316.21L625.576 316.203L626.609 316.197L627.637 316.19L628.659 316.184L629.675 316.177L630.687 316.171L631.692 316.165L632.693 316.159L633.687 316.153L634.677 316.146L635.66 316.14L636.639 316.134L637.611 316.128L638.579 316.122L639.54 316.116L640.497 316.11L641.447 316.104L642.393 316.098L643.332 316.091L644.266 316.085L645.195 316.08L646.118 316.074L647.035 316.068L647.947 316.063L648.854 316.057L649.755 316.051L650.65 316.045L651.54 316.04L652.424 316.034L653.303 316.029L654.176 316.024L655.043 316.018L655.905 316.012L656.762 316.007L657.612 316.002L658.458 315.996L659.297 315.991L660.131 315.986L660.96 315.981L661.782 315.975L662.6 315.971L663.411 315.965L664.217 315.96L665.018 315.955L665.812 315.95L666.601 315.945L667.385 315.941L668.163 315.935L668.935 315.931L669.702 315.925L670.463 315.921L671.218 315.916L671.968 315.912L672.712 315.907L673.45 315.902L674.183 315.898L674.91 315.893L675.631 315.889L676.347 315.884L677.057 315.879L677.761 315.875L678.46 315.87L679.153 315.867L679.84 315.862L680.522 315.858L681.198 315.854L681.868 315.849L682.533 315.845L683.191 315.841L683.845 315.837L684.492 315.833L685.134 315.829L685.77 315.825L686.4 315.821L687.024 315.817L687.643 315.813L688.256 315.809L688.864 315.806L689.465 315.802L690.061 315.798L690.651 315.794L691.235 315.79L691.814 315.787L692.387 315.783L692.954 315.78L693.515 315.776L694.071 315.772L694.62 315.769L695.164 315.766L695.702 315.762L696.235 315.759L696.761 315.756L697.282 315.753L697.797 315.749L698.306 315.746L698.81 315.743L699.307 315.74L699.799 315.737L700.285 315.734L700.765 315.731L701.24 315.728L701.708 315.725L702.171 315.722L702.628 315.719L703.079 315.716L703.524 315.713L703.963 315.71L704.397 315.707L704.825 315.705L705.246 315.702L705.662 315.7L706.072 315.697L706.477 315.695L706.875 315.692L707.267 315.689L707.654 315.687L708.035 315.685L708.409 315.683L708.778 315.68L709.141 315.678L709.499 315.676L709.85 315.673L710.195 315.671L710.535 315.669L710.868 315.667L711.196 315.665L711.518 315.663L711.833 315.661L712.143 315.659L712.447 315.657L712.745 315.655L713.037 315.653L713.324 315.652L713.604 315.65L713.878 315.648L714.146 315.646L714.409 315.645L714.665 315.643L714.916 315.642L715.16 315.64L715.399 315.639L715.631 315.637L715.858 315.636L716.079 315.634L716.293 315.633L716.502 315.631L716.704 315.63L716.901 315.629L717.092 315.628L717.277 315.627L717.455 315.625L717.628 315.624L717.795 315.624L717.955 315.622L718.11 315.621L718.258 315.621L718.401 315.62L718.538 315.618L718.668 315.618L718.793 315.617L718.911 315.616L719.024 315.615H719.13L719.23 315.615L719.324 315.614L719.413 315.613L719.495 315.612H719.571L719.641 315.612H719.705L719.763 315.611H719.815L719.86 315.61H719.9H719.934H719.961L719.982 315.609H719.998H720.007ZM720.017 518.576C720.6 517.999 720.598 517.998 720.596 517.996L720.586 517.99L720.549 517.963L720.54 517.956L720.46 517.901L720.4 517.86L720.289 517.783L720.163 517.696C720.063 517.627 719.945 517.547 719.811 517.455C719.289 517.099 718.508 516.572 717.472 515.884C715.4 514.509 712.304 512.495 708.204 509.932C700.005 504.806 687.792 497.488 671.722 488.707C639.581 471.146 592.013 447.737 530.28 424.328C406.815 377.512 226.688 330.7 0.019043 330.7V332.209C226.384 332.209 406.255 378.957 529.53 425.702C591.168 449.074 638.655 472.445 670.728 489.969C686.764 498.731 698.947 506.031 707.117 511.139C711.202 513.692 714.284 515.699 716.344 517.064C717.374 517.748 718.147 518.271 718.663 518.623C718.921 518.799 719.115 518.932 719.243 519.021C719.295 519.056 719.336 519.085 719.366 519.106L719.387 519.12L719.423 519.145L719.431 519.151C719.431 519.151 719.432 519.152 719.476 519.11C719.536 519.051 719.678 518.911 720.017 518.576ZM720.404 433.387C720.406 433.388 720.408 433.389 720.017 434.069C719.626 434.75 719.625 434.75 719.623 434.749L719.615 434.745L719.579 434.732L719.435 434.674C719.306 434.624 719.113 434.548 718.855 434.448C718.643 434.366 718.388 434.268 718.089 434.153C717.906 434.083 717.708 434.007 717.493 433.925C717.203 433.815 716.883 433.694 716.534 433.562C714.474 432.785 711.391 431.644 707.305 430.192C699.133 427.288 686.948 423.136 670.908 418.153C638.829 408.188 591.331 394.898 529.678 381.606C406.373 355.023 226.451 328.436 0.019043 328.436V326.927C226.621 326.927 406.697 353.534 530.132 380.145C591.85 393.45 639.408 406.757 671.541 416.739C687.608 421.731 699.819 425.89 708.016 428.804C712.115 430.26 715.21 431.406 717.281 432.187C718.317 432.578 719.098 432.878 719.619 433.08C719.766 433.137 719.892 433.187 719.998 433.228C720.081 433.26 720.151 433.288 720.208 433.31L720.357 433.368L720.394 433.383L720.404 433.387ZM720.017 366.162C720.186 365.421 720.185 365.421 720.182 365.421L720.173 365.419L720.136 365.413L719.988 365.39C719.858 365.37 719.662 365.339 719.402 365.299C718.881 365.219 718.103 365.1 717.068 364.945C714.999 364.635 711.907 364.181 707.812 363.603C699.621 362.447 687.417 360.795 671.358 358.814C639.238 354.851 591.697 349.568 529.998 344.285C406.599 333.719 226.569 323.155 0.019043 323.155V324.664C226.502 324.664 406.47 335.225 529.812 345.786C591.484 351.067 638.998 356.347 671.092 360.306C687.139 362.286 699.331 363.936 707.509 365.091C711.599 365.668 714.685 366.122 716.748 366.43C717.371 366.524 717.9 366.604 718.336 366.67C718.622 366.714 718.867 366.752 719.072 366.783C719.331 366.823 719.525 366.853 719.655 366.873L719.8 366.896L719.836 366.902L719.845 366.903C719.847 366.903 719.848 366.904 720.017 366.162Z" fill="url(#paint0_linear_1151_1245)"/>
<defs>
<linearGradient id="paint0_linear_1151_1245" x1="10.8859" y1="219.774" x2="706.812" y2="219.774" gradientUnits="userSpaceOnUse">
<stop offset="0.0182341" stop-color="#444444" stop-opacity="0"/>
<stop offset="0.127609" stop-color="#444444"/>
<stop offset="0.563305" stop-color="#444444" stop-opacity="0.65"/>
<stop offset="0.943305" stop-color="#444444" stop-opacity="0"/>
</linearGradient>
</defs>
</svg>
