<svg width="827" height="950" viewBox="0 0 827 950" fill="none" xmlns="http://www.w3.org/2000/svg">
<g opacity="0.31">
<circle cx="364" cy="673" r="363" stroke="#009A49" stroke-linecap="round" stroke-linejoin="round" stroke-dasharray="2 3"/>
<circle cx="364" cy="673" r="290.144" fill="#009A49" fill-opacity="0.05" stroke="#009A49" stroke-linecap="round" stroke-linejoin="round" stroke-dasharray="2 3"/>
<circle cx="364" cy="673" r="221.123" fill="#009A49" fill-opacity="0.1"/>
<circle cx="364" cy="673" r="148.268" fill="#009A49" fill-opacity="0.15"/>
</g>
<g opacity="0.07">
<path d="M658.247 223.362C677.267 233.344 686.776 238.334 697.006 238.334V130L595.584 76.6208C595.435 76.8608 595.289 77.1031 595.144 77.3478C588.673 88.3382 588.673 102.014 588.673 129.367V130.634C588.673 157.986 588.673 171.663 595.144 182.654C601.616 193.644 613.271 199.761 636.581 211.992L658.247 223.362Z" fill="#009A49"/>
<path opacity="0.7" d="M757.429 48.0074L735.763 36.6372C716.744 26.6564 707.234 21.6659 697.004 21.6659C686.774 21.6659 677.265 26.6564 658.245 36.6372L636.579 48.0074C613.788 59.9674 602.139 66.0806 595.583 76.6195L697.004 129.999L798.426 76.6195C791.868 66.0806 780.219 59.9674 757.429 48.0074Z" fill="#009A49"/>
<path opacity="0.5" d="M798.861 77.3485C798.717 77.1038 798.571 76.8615 798.422 76.6215L697 130.001V238.334C707.23 238.334 716.739 233.345 735.758 223.363L757.425 211.993C780.735 199.761 792.39 193.645 798.861 182.654C805.333 171.664 805.333 157.987 805.333 130.635V129.367C805.333 102.015 805.333 88.3389 798.861 77.3485Z" fill="#009A49"/>
</g>
</svg>
