<svg width="56" height="56" viewBox="0 0 56 56" fill="none" xmlns="http://www.w3.org/2000/svg">
<path d="M19.652 48.1089C23.7484 50.2588 25.7966 51.3336 28 51.3336V28.0002L6.15534 16.5031C6.12316 16.5548 6.09159 16.607 6.06056 16.6597C4.66663 19.0268 4.66663 21.9725 4.66663 27.8637V28.1367C4.66663 34.0279 4.66663 36.9738 6.06056 39.3409C7.45447 41.7081 9.96476 43.0255 14.9853 45.6601L19.652 48.1089Z" fill="#009A49"/>
<path opacity="0.7" d="M41.014 10.3402L36.3473 7.89127C32.2509 5.74154 30.2027 4.66667 27.9993 4.66667C25.796 4.66667 23.7478 5.74154 19.6513 7.89127L14.9846 10.3402C10.0759 12.9162 7.56682 14.2329 6.15466 16.5028L27.9993 28L49.844 16.5028C48.4316 14.2329 45.9226 12.9162 41.014 10.3402Z" fill="#009A49"/>
<path opacity="0.5" d="M49.9394 16.6597C49.9084 16.607 49.8769 16.5548 49.8447 16.5031L28 28.0002V51.3336C30.2034 51.3336 32.2516 50.2588 36.348 48.1089L41.0146 45.6601C46.0353 43.0255 48.5455 41.7081 49.9394 39.3409C51.3333 36.9738 51.3333 34.0279 51.3333 28.1367V27.8637C51.3333 21.9725 51.3333 19.0268 49.9394 16.6597Z" fill="#009A49"/>
</svg>
