<svg width="281" height="322" viewBox="0 0 281 322" fill="none" xmlns="http://www.w3.org/2000/svg">
<path d="M20.0938 2.20017C18.9419 1.17099 17.5355 0.468943 16.0206 0.166956C14.5057 -0.135031 12.9376 -0.0259529 11.4791 0.482858C6.31778 2.20017 1.37231 9.6606 2.6204 15.9762C3.49313 20.3492 7.54711 26.7961 8.77644 29.2548C10.0058 31.7135 8.27908 35.8707 4.37525 44.5041C0.471425 53.1376 -1.03943 61.2361 10.2779 68.3681C21.5952 75.5001 34.4047 64.1828 40.9736 56.0655C47.5425 47.9481 36.0469 29.2548 35.0616 21.3439C34.0762 13.433 32.3871 -1.73181 20.0938 2.20017Z" fill="#263238"/>
<path d="M46.7026 56.6097C43.8866 59.4272 40.4841 61.5893 36.7373 62.942C32.9905 64.2948 28.9915 64.8049 25.0251 64.4362L22.3131 75.7441L27.4744 101.56L61.1731 84.096L53.5437 64.3892L46.7026 56.6097Z" fill="#92E3A9" stroke="#263238" stroke-linecap="round" stroke-linejoin="round"/>
<path opacity="0.3" d="M46.7026 56.6097C43.8866 59.4272 40.4841 61.5893 36.7373 62.942C32.9905 64.2948 28.9915 64.8049 25.0251 64.4362L22.3131 75.7441L27.4744 101.56L61.1731 84.096L53.5437 64.3892L46.7026 56.6097Z" fill="#263238"/>
<path d="M46.7008 56.6098L41.5395 22.4138L26.2433 25.5481L18.6139 30.4654C18.6139 30.4654 9.51123 37.6068 9.51123 38.3388C9.51123 39.0707 24.9107 64.8397 24.9107 64.8397C28.9172 65.0768 32.9287 64.4664 36.6833 63.0483C40.438 61.6302 43.8514 59.4363 46.7008 56.6098Z" fill="white"/>
<path d="M46.7008 56.6098L41.5395 22.4138L26.2433 25.5481L18.6139 30.4654C18.6139 30.4654 9.51123 37.6068 9.51123 38.3388C9.51123 39.0707 24.9107 64.8397 24.9107 64.8397C28.9172 65.0768 32.9287 64.4664 36.6833 63.0483C40.438 61.6302 43.8514 59.4363 46.7008 56.6098Z" stroke="#263238" stroke-linecap="round" stroke-linejoin="round"/>
<path opacity="0.5" d="M26.1797 55.1457C26.1797 55.1457 36.9621 47.1504 35.9674 49.5152C34.9727 51.88 27.5216 57.7826 25.5228 57.9609C23.524 58.1392 26.1797 55.1457 26.1797 55.1457Z" fill="#92E3A9"/>
<path d="M26.5072 39.9621L26.9295 40.4031L29.5571 43.1809L30.2327 53.8507L33.4515 53.3439L30.9084 43.3498L34.9811 51.8143L38.3688 48.4266L31.0867 41.8202L30.9084 36.5744L27.1829 34.7069" fill="#263238"/>
<path d="M20.5839 27.2935C20.5839 27.2935 17.3839 28.7669 17.3839 31.7135C17.3839 34.6601 20.8467 41.6701 23.0144 43.1434C25.1822 44.6168 28.8983 37.8695 28.8983 37.8695C28.8983 37.8695 34.5288 40.5722 36.0303 38.1135C37.5318 35.6549 32.5863 27.5375 29.3957 25.3229C26.2051 23.1082 20.5839 27.2935 20.5839 27.2935Z" fill="white" stroke="#263238" stroke-linecap="round" stroke-linejoin="round"/>
<path d="M17.8828 24.3375C18.7627 26.5856 19.5023 28.886 20.0975 31.2255C20.5855 33.6842 27.2295 37.8695 27.9614 38.1135C28.6934 38.3575 29.1908 30.2402 29.1908 30.2402L27.2295 20.6495L17.8828 24.3375Z" fill="white"/>
<mask id="mask0_1452_58990" style="mask-type:luminance" maskUnits="userSpaceOnUse" x="17" y="20" width="13" height="19">
<path d="M17.8807 24.3373C18.7606 26.5853 19.5002 28.8857 20.0954 31.2253C20.5834 33.6839 27.2274 37.8693 27.9594 38.1133C28.6913 38.3573 29.1887 30.2399 29.1887 30.2399L27.2274 20.6493L17.8807 24.3373Z" fill="white"/>
</mask>
<g mask="url(#mask0_1452_58990)">
<g style="mix-blend-mode:multiply" opacity="0.5">
<path d="M27.4373 21.6725C27.0245 21.5567 26.6044 21.4689 26.1798 21.4097L19.395 23.8027L18.5035 26.13C18.954 27.3874 19.5264 29.0766 19.8736 30.4467C20.986 31.3435 22.3299 31.9064 23.7493 32.0701C25.7857 32.2109 27.5781 30.6344 28.8449 28.7012L27.4373 21.6725Z" fill="#92E3A9"/>
</g>
</g>
<path d="M17.8828 24.3375C18.7627 26.5856 19.5023 28.886 20.0975 31.2255C20.5855 33.6842 27.2295 37.8695 27.9614 38.1135C28.6934 38.3575 29.1908 30.2402 29.1908 30.2402L27.2295 20.6495L17.8828 24.3375Z" stroke="#263238" stroke-linecap="round" stroke-linejoin="round"/>
<path d="M13.454 20.1523C13.454 20.1523 10.7419 17.947 10.7419 20.1523C10.7419 22.3576 13.21 23.5963 15.1713 23.5963" fill="white"/>
<path d="M13.454 20.1523C13.454 20.1523 10.7419 17.947 10.7419 20.1523C10.7419 22.3576 13.21 23.5963 15.1713 23.5963" stroke="#263238" stroke-linecap="round" stroke-linejoin="round"/>
<path d="M27.9607 13.0202C27.9607 13.0202 29.6874 10.3175 30.1754 13.2735C30.4001 15.1979 29.8722 17.1347 28.702 18.6788L27.9607 13.0202Z" fill="white" stroke="#263238" stroke-linecap="round" stroke-linejoin="round"/>
<g opacity="0.5">
<path d="M13.454 20.1523C13.454 20.1523 10.7419 17.947 10.7419 20.1523C10.7419 22.3576 13.21 23.5963 15.1713 23.5963" fill="#92E3A9"/>
<path d="M13.454 20.1523C13.454 20.1523 10.7419 17.947 10.7419 20.1523C10.7419 22.3576 13.21 23.5963 15.1713 23.5963" stroke="#263238" stroke-linecap="round" stroke-linejoin="round"/>
</g>
<path opacity="0.5" d="M27.9607 13.0202C27.9607 13.0202 29.6874 10.3175 30.1754 13.2735C30.4001 15.1979 29.8722 17.1347 28.702 18.6788L27.9607 13.0202Z" fill="#92E3A9" stroke="#263238" stroke-linecap="round" stroke-linejoin="round"/>
<path d="M10.4026 13.0391C10.4026 13.0391 12.514 21.8321 17.0466 26.1769C21.5792 30.5218 26.4308 30.5594 28.1106 22.8174C29.49 16.4361 26.0648 7.92468 26.0648 7.92468C26.0648 7.92468 15.0102 -1.17799 10.4026 13.0391Z" fill="white"/>
<mask id="mask1_1452_58990" style="mask-type:luminance" maskUnits="userSpaceOnUse" x="10" y="5" width="19" height="25">
<path d="M10.4054 13.0389C10.4054 13.0389 12.5168 21.8319 17.0494 26.1768C21.582 30.5217 26.4336 30.5592 28.1134 22.8173C29.4928 16.436 26.0676 7.92456 26.0676 7.92456C26.0676 7.92456 15.013 -1.17811 10.4054 13.0389Z" fill="white"/>
</mask>
<g mask="url(#mask1_1452_58990)">
<g style="mix-blend-mode:multiply" opacity="0.5">
<path d="M18.2797 5.06226L19.997 9.37899C19.997 9.37899 22.6996 8.77841 24.2199 12.0441C25.7401 15.3098 27.2697 20.0957 26.397 23.8025C25.5618 27.331 23.5817 28.4946 20.5319 28.5791C23.8539 29.9961 26.8662 28.5791 28.1143 22.7984C29.4938 16.4171 26.0685 7.90567 26.0685 7.90567C26.0685 7.90567 22.3243 4.83704 18.2797 5.06226Z" fill="#92E3A9"/>
</g>
</g>
<path d="M10.4026 13.0391C10.4026 13.0391 12.514 21.8321 17.0466 26.1769C21.5792 30.5218 26.4308 30.5594 28.1106 22.8174C29.49 16.4361 26.0648 7.92468 26.0648 7.92468C26.0648 7.92468 15.0102 -1.17799 10.4026 13.0391Z" stroke="#263238" stroke-linecap="round" stroke-linejoin="round"/>
<path d="M18.7915 17.6841C19.0543 18.1815 19.0073 18.7164 18.6883 18.8853C18.3692 19.0542 17.9 18.7821 17.6466 18.2847C17.3933 17.7874 17.4308 17.2618 17.7499 17.0929C18.0689 16.924 18.5381 17.1962 18.7915 17.6841Z" fill="#263238"/>
<path d="M23.6932 16.1637C23.8809 16.6892 23.7589 17.2147 23.421 17.3273C23.0832 17.4399 22.6515 17.1209 22.4826 16.5954C22.3137 16.0699 22.4169 15.5443 22.7548 15.4317C23.0926 15.3191 23.5055 15.657 23.6932 16.1637Z" fill="#263238"/>
<path d="M24.0314 13.3486C23.6481 13.0911 23.1909 12.9663 22.7299 12.9934C22.2688 13.0205 21.8294 13.198 21.4789 13.4988C20.1276 14.5498 22.6801 19.8143 22.6801 19.8143C22.6801 19.8143 22.727 21.4753 20.5968 20.7058" stroke="#263238" stroke-width="0.5" stroke-linecap="round" stroke-linejoin="round"/>
<path d="M24.0313 22.4138C23.8851 22.7594 23.6606 23.0663 23.3755 23.3102C23.0905 23.5542 22.7526 23.7286 22.3886 23.8196C22.0246 23.9106 21.6444 23.9157 21.278 23.8346C20.9117 23.7535 20.5692 23.5884 20.2776 23.3522" stroke="#263238" stroke-width="0.5" stroke-linecap="round" stroke-linejoin="round"/>
<path d="M18.3162 14.747C18.3162 14.747 15.9138 12.4854 14.8628 16.849" stroke="#263238" stroke-width="0.5" stroke-linecap="round" stroke-linejoin="round"/>
<path d="M26.2074 5.1375C23.5704 2.84776 21.4402 2.87592 20.5112 3.17621C19.6416 2.63358 18.6526 2.31145 17.6302 2.23779C10.2543 1.25245 9.26893 6.92989 9.26893 12.3258C9.26893 17.7217 4.57683 24.1311 7.79561 24.8725C8.67649 25.0838 9.6037 24.9776 10.4139 24.5725C11.2242 24.1673 11.8655 23.4893 12.2249 22.6578C12.2249 22.6578 15.6689 17.0273 15.6689 13.0578C15.6689 9.08825 19.9575 9.46362 19.9575 9.46362C20.1427 9.19028 20.3848 8.96022 20.6672 8.7892C20.9496 8.61818 21.2656 8.51024 21.5936 8.47281C21.9216 8.43537 22.2539 8.46931 22.5676 8.5723C22.8812 8.67529 23.1689 8.8449 23.4109 9.06949C25.3628 10.7399 25.588 12.7012 27.1646 13.2079C28.7411 13.7147 31.3781 11.1809 31.3781 11.1809C29.8759 8.9871 28.1424 6.961 26.2074 5.1375Z" fill="#263238"/>
<path d="M20.1626 6.61076C20.1626 6.61076 17.1972 4.22718 14.5321 6.90167C11.867 9.57617 12.1579 14.6343 11.2664 17.9093C10.3749 21.1844 7.99133 21.7756 7.99133 21.7756" stroke="white" stroke-width="0.5" stroke-linecap="round" stroke-linejoin="round"/>
<path d="M18.0883 5.71927C18.0883 5.71927 14.8883 2.54741 10.8625 6.56384C7.79385 9.64186 9.16394 11.6595 8.56335 16.7175" stroke="white" stroke-width="0.5" stroke-linecap="round" stroke-linejoin="round"/>
<path d="M21.6578 5.11857C21.6578 5.11857 27.2884 2.44407 29.6907 9.28515" stroke="white" stroke-width="0.5" stroke-linecap="round" stroke-linejoin="round"/>
<path d="M9.51146 38.3574L1 72.6097L25.962 79.6854L27.1913 75.2561L10.7971 67.6924L16.3619 47.9856C16.3619 47.9856 15.63 44.2976 11.6698 40.1216" fill="white"/>
<mask id="mask2_1452_58990" style="mask-type:luminance" maskUnits="userSpaceOnUse" x="1" y="38" width="27" height="42">
<path d="M9.51146 38.3574L1 72.6097L25.962 79.6854L27.1913 75.2561L10.7971 67.6924L16.3619 47.9856C16.3619 47.9856 15.63 44.2976 11.6698 40.1216" fill="white"/>
</mask>
<g mask="url(#mask2_1452_58990)">
<g style="mix-blend-mode:multiply" opacity="0.5">
<path d="M27.2308 75.2844L10.8367 67.7207L16.4015 48.0139C15.9656 46.378 15.2582 44.8268 14.3088 43.4251L13.7739 43.0215V48.4644C13.7739 51.9459 9.41964 63.0474 7.89001 65.6562C6.36039 68.265 3.97681 71.5307 3.97681 71.5307L8.76274 69.3536L26.9024 76.617L27.2308 75.2844Z" fill="#92E3A9"/>
</g>
</g>
<path d="M9.51146 38.3574L1 72.6097L25.962 79.6854L27.1913 75.2561L10.7971 67.6924L16.3619 47.9856C16.3619 47.9856 15.63 44.2976 11.6698 40.1216" stroke="#263238" stroke-linecap="round" stroke-linejoin="round"/>
<path d="M79.6939 48.6425L60.7941 44.673L41.4908 22.3668L44.3436 40.3094L56.1865 51.5892L79.9848 52.6777L79.6939 48.6425Z" fill="white"/>
<mask id="mask3_1452_58990" style="mask-type:luminance" maskUnits="userSpaceOnUse" x="41" y="22" width="39" height="31">
<path d="M79.6934 48.6427L60.7936 44.6732L41.4904 22.367L44.3431 40.3096L56.186 51.5894L79.9843 52.678L79.6934 48.6427Z" fill="white"/>
</mask>
<g mask="url(#mask3_1452_58990)">
<g style="mix-blend-mode:multiply" opacity="0.5">
<path d="M41.4904 22.367L43.7895 36.6873L45.2534 41.1635L45.4411 41.3325C45.9948 40.76 49.1197 37.5131 49.9174 37.5131C50.715 37.5131 59.7145 45.3489 58.4101 45.9589L57.0963 46.6064L79.5151 50.3038L79.6746 48.5864L60.8124 44.6263L41.4904 22.367Z" fill="#92E3A9"/>
</g>
</g>
<path d="M79.6939 48.6425L60.7941 44.673L41.4908 22.3668L44.3436 40.3094L56.1865 51.5892L79.9848 52.6777L79.6939 48.6425Z" stroke="#263238" stroke-linecap="round" stroke-linejoin="round"/>
<path d="M256.127 238.569L15.4502 203.303C14.6851 203.19 13.9963 202.777 13.5353 202.156C13.0743 201.535 12.8787 200.756 12.9916 199.991L33.0362 63.2536C33.0913 62.8751 33.2206 62.5113 33.4165 62.1828C33.6124 61.8543 33.8712 61.5677 34.178 61.3393C34.4848 61.1109 34.8336 60.9453 35.2045 60.8519C35.5754 60.7585 35.9611 60.7392 36.3394 60.795L40.9002 61.4613C41.4778 61.548 42.0682 61.4582 42.594 61.2036C43.1198 60.9491 43.5565 60.5417 43.8468 60.0349L49.8996 49.5715C50.0834 49.243 50.3325 48.9555 50.6316 48.7269C52.0485 47.7023 53.8095 47.2713 55.5395 47.5257L116.208 56.4219C117.569 56.6173 118.837 57.2267 119.84 58.1674C120.107 58.4354 120.318 58.7545 120.459 59.1058L125.855 72.4689C126.045 72.9416 126.355 73.3561 126.755 73.6707C127.156 73.9853 127.632 74.189 128.136 74.2613L277.016 96.0889C277.781 96.2004 278.47 96.6108 278.933 97.2301C279.396 97.8494 279.594 98.627 279.484 99.3922L259.439 236.12C259.323 236.883 258.91 237.57 258.289 238.029C257.668 238.488 256.891 238.682 256.127 238.569Z" fill="#263238" stroke="#263238" stroke-miterlimit="10"/>
<path d="M258.692 237.903H20.1367C19.4441 237.903 18.7583 237.767 18.1185 237.502C17.4786 237.237 16.8972 236.848 16.4075 236.358C15.9178 235.869 15.5293 235.287 15.2642 234.647C14.9992 234.008 14.8628 233.322 14.8628 232.629V99.1483C14.8628 97.7496 15.4184 96.4082 16.4075 95.4191C17.3965 94.4301 18.738 93.8744 20.1367 93.8744H20.7842C21.8401 93.8723 22.8713 93.555 23.7457 92.9632C24.6201 92.3713 25.2978 91.5319 25.6922 90.5524L29.3238 81.4216C29.7298 80.3677 30.4719 79.4772 31.4353 78.8879C32.4702 78.2768 33.6493 77.9529 34.8511 77.9494H96.1675C96.9915 77.9486 97.8088 78.098 98.5792 78.3905C99.6494 78.8218 100.542 79.6023 101.113 80.6052L107.353 91.2375C107.818 92.0316 108.483 92.6902 109.282 93.1479C110.08 93.6056 110.984 93.8463 111.905 93.8463H258.692C260.091 93.8463 261.433 94.4019 262.422 95.391C263.411 96.38 263.966 97.7214 263.966 99.1202V232.629C263.966 233.322 263.83 234.008 263.565 234.647C263.3 235.287 262.911 235.869 262.422 236.358C261.932 236.848 261.35 237.237 260.711 237.502C260.071 237.767 259.385 237.903 258.692 237.903Z" fill="#92E3A9"/>
<mask id="mask4_1452_58990" style="mask-type:luminance" maskUnits="userSpaceOnUse" x="14" y="77" width="250" height="161">
<path d="M258.689 237.903H20.1334C19.4408 237.903 18.755 237.767 18.1152 237.502C17.4753 237.237 16.8939 236.848 16.4042 236.358C15.9145 235.869 15.526 235.287 15.2609 234.647C14.9959 234.008 14.8595 233.322 14.8595 232.629V99.1483C14.8595 97.7496 15.4151 96.4082 16.4042 95.4191C17.3932 94.4301 18.7347 93.8744 20.1334 93.8744H20.7809C21.8368 93.8723 22.868 93.555 23.7424 92.9632C24.6168 92.3713 25.2946 91.5319 25.6889 90.5524L29.3205 81.4216C29.7265 80.3677 30.4686 79.4772 31.432 78.8879C32.4669 78.2768 33.646 77.9529 34.8478 77.9494H96.1642C96.9882 77.9486 97.8055 78.098 98.5759 78.3905C99.6461 78.8218 100.539 79.6023 101.11 80.6052L107.35 91.2375C107.815 92.0316 108.48 92.6902 109.278 93.1479C110.077 93.6056 110.981 93.8463 111.901 93.8463H258.689C260.088 93.8463 261.429 94.4019 262.418 95.391C263.407 96.38 263.963 97.7214 263.963 99.1202V232.629C263.963 233.322 263.827 234.008 263.562 234.647C263.296 235.287 262.908 235.869 262.418 236.358C261.929 236.848 261.347 237.237 260.707 237.502C260.067 237.767 259.382 237.903 258.689 237.903Z" fill="white"/>
</mask>
<g mask="url(#mask4_1452_58990)">
<path opacity="0.1" d="M258.689 237.903H20.1334C19.4408 237.903 18.755 237.767 18.1152 237.502C17.4753 237.237 16.8939 236.848 16.4042 236.358C15.9145 235.869 15.526 235.287 15.2609 234.647C14.9959 234.008 14.8595 233.322 14.8595 232.629V99.1483C14.8595 97.7496 15.4151 96.4082 16.4042 95.4191C17.3932 94.4301 18.7347 93.8744 20.1334 93.8744H20.7809C21.8368 93.8723 22.868 93.555 23.7424 92.9632C24.6168 92.3713 25.2946 91.5319 25.6889 90.5524L29.3205 81.4216C29.7265 80.3677 30.4686 79.4772 31.432 78.8879C32.4669 78.2768 33.646 77.9529 34.8478 77.9494H96.1642C96.9882 77.9486 97.8055 78.098 98.5759 78.3905C99.6461 78.8218 100.539 79.6023 101.11 80.6052L107.35 91.2375C107.815 92.0316 108.48 92.6902 109.278 93.1479C110.077 93.6056 110.981 93.8463 111.901 93.8463H258.689C260.088 93.8463 261.429 94.4019 262.418 95.391C263.407 96.38 263.963 97.7214 263.963 99.1202V232.629C263.963 233.322 263.827 234.008 263.562 234.647C263.296 235.287 262.908 235.869 262.418 236.358C261.929 236.848 261.347 237.237 260.707 237.502C260.067 237.767 259.382 237.903 258.689 237.903Z" fill="#263238"/>
</g>
<path d="M258.692 237.903H20.1367C19.4441 237.903 18.7583 237.767 18.1185 237.502C17.4786 237.237 16.8972 236.848 16.4075 236.358C15.9178 235.869 15.5293 235.287 15.2642 234.647C14.9992 234.008 14.8628 233.322 14.8628 232.629V99.1483C14.8628 97.7496 15.4184 96.4082 16.4075 95.4191C17.3965 94.4301 18.738 93.8744 20.1367 93.8744H20.7842C21.8401 93.8723 22.8713 93.555 23.7457 92.9632C24.6201 92.3713 25.2979 91.5319 25.6922 90.5524L29.3238 81.4216C29.7298 80.3677 30.4719 79.4772 31.4353 78.8879C32.4702 78.2768 33.6493 77.9529 34.8511 77.9494H96.1675C96.9915 77.9486 97.8088 78.098 98.5792 78.3905C99.6494 78.8218 100.542 79.6023 101.113 80.6052L107.353 91.2375C107.818 92.0316 108.483 92.6902 109.282 93.1479C110.08 93.6056 110.984 93.8463 111.905 93.8463H258.692C260.091 93.8463 261.433 94.4019 262.422 95.391C263.411 96.38 263.966 97.7214 263.966 99.1202V232.629C263.966 233.322 263.83 234.008 263.565 234.647C263.3 235.287 262.911 235.869 262.422 236.358C261.932 236.848 261.35 237.237 260.711 237.502C260.071 237.767 259.385 237.903 258.692 237.903Z" stroke="#263238" stroke-miterlimit="10"/>
<path d="M82.2655 93.4239H44.0906C43.1797 93.4239 42.3061 93.0621 41.662 92.418C41.0179 91.7738 40.656 90.9002 40.656 89.9893C40.6548 89.5375 40.7427 89.0899 40.9148 88.6721C41.0868 88.2543 41.3396 87.8745 41.6587 87.5546C41.9777 87.2347 42.3568 86.9809 42.7741 86.8077C43.1914 86.6345 43.6388 86.5453 44.0906 86.5453H82.2655C83.1789 86.5453 84.0549 86.9082 84.7008 87.554C85.3467 88.1999 85.7095 89.0759 85.7095 89.9893C85.7095 90.4411 85.6204 90.8885 85.4472 91.3059C85.274 91.7232 85.0202 92.1022 84.7002 92.4213C84.3803 92.7403 84.0006 92.9931 83.5828 93.1652C83.165 93.3372 82.7174 93.4252 82.2655 93.4239Z" fill="white"/>
<path d="M258.692 261.195H20.1367C18.738 261.195 17.3965 260.639 16.4075 259.65C15.4184 258.661 14.8628 257.319 14.8628 255.921V122.44C14.8628 121.041 15.4184 119.7 16.4075 118.711C17.3965 117.722 18.738 117.166 20.1367 117.166H20.7842C21.8404 117.165 22.8721 116.848 23.7468 116.256C24.6214 115.664 25.2989 114.824 25.6922 113.844L29.3238 104.723C29.7273 103.667 30.47 102.776 31.4353 102.189C32.4685 101.574 33.6488 101.25 34.8511 101.25H96.1675C96.9915 101.25 97.8088 101.399 98.5792 101.691C99.6521 102.123 100.546 102.908 101.113 103.916L107.353 114.557C107.818 115.351 108.483 116.01 109.282 116.468C110.08 116.925 110.984 117.166 111.905 117.166H258.692C260.091 117.166 261.433 117.722 262.422 118.711C263.411 119.7 263.966 121.041 263.966 122.44V255.921C263.966 257.319 263.411 258.661 262.422 259.65C261.433 260.639 260.091 261.195 258.692 261.195Z" fill="#263238" stroke="#263238" stroke-miterlimit="10"/>
<path d="M100.557 65.8999L62.6825 61.2078C61.7778 61.0929 60.9553 60.6249 60.3945 59.9058C59.8337 59.1868 59.58 58.2751 59.6889 57.3697C59.8036 56.4639 60.2734 55.6407 60.9949 55.0811C61.7163 54.5215 62.6305 54.2713 63.5364 54.3855L101.402 59.0776C102.307 59.1902 103.131 59.6576 103.693 60.3773C104.254 61.0969 104.507 62.0099 104.395 62.9158C104.34 63.3639 104.196 63.7966 103.973 64.1892C103.75 64.5818 103.451 64.9266 103.095 65.2038C102.738 65.481 102.331 65.6851 101.895 65.8046C101.46 65.924 101.005 65.9564 100.557 65.8999Z" fill="#92E3A9"/>
<path opacity="0.5" d="M100.557 65.8999L62.6825 61.2078C61.7778 61.0929 60.9553 60.6249 60.3945 59.9058C59.8337 59.1868 59.58 58.2751 59.6889 57.3697C59.8036 56.4639 60.2734 55.6407 60.9949 55.0811C61.7163 54.5215 62.6305 54.2713 63.5364 54.3855L101.402 59.0776C102.307 59.1902 103.131 59.6576 103.693 60.3773C104.254 61.0969 104.507 62.0099 104.395 62.9158C104.34 63.3639 104.196 63.7966 103.973 64.1892C103.75 64.5818 103.451 64.9266 103.095 65.2038C102.738 65.481 102.331 65.6851 101.895 65.8046C101.46 65.924 101.005 65.9564 100.557 65.8999Z" fill="white"/>
<path d="M82.2655 116.725H44.0906C43.6388 116.725 43.1914 116.636 42.7741 116.463C42.3568 116.289 41.9777 116.036 41.6587 115.716C41.3396 115.396 41.0868 115.016 40.9148 114.598C40.7427 114.18 40.6548 113.733 40.656 113.281C40.656 112.369 41.0176 111.495 41.6614 110.849C42.3053 110.203 43.1789 109.839 44.0906 109.837H82.2655C83.1789 109.837 84.0549 110.2 84.7008 110.846C85.3467 111.492 85.7095 112.368 85.7095 113.281C85.7095 114.194 85.3467 115.07 84.7008 115.716C84.0549 116.362 83.1789 116.725 82.2655 116.725Z" fill="#92E3A9"/>
<path opacity="0.5" d="M82.2655 116.725H44.0906C43.6388 116.725 43.1914 116.636 42.7741 116.463C42.3568 116.289 41.9777 116.036 41.6587 115.716C41.3396 115.396 41.0868 115.016 40.9148 114.598C40.7427 114.18 40.6548 113.733 40.656 113.281C40.656 112.369 41.0176 111.495 41.6614 110.849C42.3053 110.203 43.1789 109.839 44.0906 109.837H82.2655C83.1789 109.837 84.0549 110.2 84.7008 110.846C85.3467 111.492 85.7095 112.368 85.7095 113.281C85.7095 114.194 85.3467 115.07 84.7008 115.716C84.0549 116.362 83.1789 116.725 82.2655 116.725Z" fill="white"/>
<path d="M266.486 157.312H12.3247C9.59344 157.312 7.37927 159.526 7.37927 162.257V316.055C7.37927 318.786 9.59344 321 12.3247 321H266.486C269.218 321 271.432 318.786 271.432 316.055V162.257C271.432 159.526 269.218 157.312 266.486 157.312Z" fill="white"/>
<mask id="mask5_1452_58990" style="mask-type:luminance" maskUnits="userSpaceOnUse" x="7" y="157" width="265" height="164">
<path d="M266.487 157.312H12.3255C9.59417 157.312 7.38 159.526 7.38 162.257V316.055C7.38 318.786 9.59417 321 12.3255 321H266.487C269.218 321 271.432 318.786 271.432 316.055V162.257C271.432 159.526 269.218 157.312 266.487 157.312Z" fill="white"/>
</mask>
<g mask="url(#mask5_1452_58990)">
<g style="mix-blend-mode:multiply">
<path d="M271.429 201.37C242.16 228.726 208.904 251.476 172.801 268.842C119.452 294.358 58.4736 311.944 22.9451 321H266.474C267.125 321.001 267.769 320.874 268.37 320.626C268.971 320.378 269.517 320.014 269.977 319.555C270.438 319.095 270.803 318.55 271.052 317.949C271.301 317.348 271.429 316.705 271.429 316.054V201.37Z" fill="#92E3A9"/>
</g>
<path opacity="0.2" d="M271.429 201.37C242.16 228.726 208.904 251.476 172.801 268.842C119.452 294.358 58.4736 311.944 22.9451 321H266.474C267.125 321.001 267.769 320.874 268.37 320.626C268.971 320.378 269.517 320.014 269.977 319.555C270.438 319.095 270.803 318.55 271.052 317.949C271.301 317.348 271.429 316.705 271.429 316.054V201.37Z" fill="white"/>
</g>
<path d="M266.486 157.312H12.3247C9.59344 157.312 7.37927 159.526 7.37927 162.257V316.055C7.37927 318.786 9.59344 321 12.3247 321H266.486C269.218 321 271.432 318.786 271.432 316.055V162.257C271.432 159.526 269.218 157.312 266.486 157.312Z" stroke="#263238" stroke-miterlimit="10"/>
<path d="M11.2009 171.688V165.119C11.2034 163.807 11.7265 162.549 12.6555 161.622C13.5844 160.695 14.8433 160.174 16.1558 160.174H26.9007" stroke="#263238" stroke-miterlimit="10"/>
<path d="M11.2009 271.452V179.693" stroke="#263238" stroke-miterlimit="10"/>
<path d="M267.603 302.757V313.145C267.605 313.796 267.478 314.44 267.23 315.041C266.982 315.642 266.618 316.188 266.158 316.648C265.699 317.109 265.153 317.474 264.553 317.723C263.952 317.972 263.308 318.1 262.658 318.1H253.996" stroke="#263238" stroke-miterlimit="10"/>
<path d="M267.606 169.38V295.034" stroke="#263238" stroke-miterlimit="10"/>
<path d="M178.66 217.164H100.143C98.7277 217.164 97.5807 218.311 97.5807 219.726V259.787C97.5807 261.202 98.7277 262.349 100.143 262.349H178.66C180.075 262.349 181.222 261.202 181.222 259.787V219.726C181.222 218.311 180.075 217.164 178.66 217.164Z" fill="#263238" stroke="#263238" stroke-miterlimit="10"/>
<path d="M178.66 217.164H100.143C98.7277 217.164 97.5807 218.311 97.5807 219.726V228.341C97.5807 229.755 98.7277 230.902 100.143 230.902H178.66C180.075 230.902 181.222 229.755 181.222 228.341V219.726C181.222 218.311 180.075 217.164 178.66 217.164Z" fill="white" stroke="#263238" stroke-miterlimit="10"/>
<path d="M25.9617 79.6855L27.679 82.8855L31.3294 85.513C31.5589 85.6816 31.8338 85.7772 32.1184 85.7872C32.403 85.7972 32.684 85.7213 32.9247 85.5694L33.2438 85.3629C33.4759 85.222 33.6487 85.0013 33.7298 84.7423C33.811 84.4832 33.795 84.2034 33.6849 83.9553L31.611 79.1881L33.0092 80.2767C33.2312 80.4478 33.511 80.5258 33.7894 80.4943C34.0679 80.4627 34.3232 80.3241 34.5013 80.1077C34.6559 79.9147 34.7401 79.6747 34.7401 79.4274C34.7401 79.1801 34.6559 78.9401 34.5013 78.747L31.245 74.6274L27.1722 75.2561L25.9617 79.6855Z" fill="white" stroke="#263238" stroke-miterlimit="10"/>
<path d="M33.2785 85.3628L30.0128 81.0742" stroke="#263238" stroke-width="0.5" stroke-linecap="round" stroke-linejoin="round"/>
<path d="M31.3673 85.513L28.8054 82.1159" stroke="#263238" stroke-width="0.5" stroke-linecap="round" stroke-linejoin="round"/>
<path d="M79.6968 48.6427L84.8018 48.943L91.0141 52.9125C91.0141 52.9125 91.3613 54.1231 90.498 54.292C89.6346 54.4609 84.9707 52.7436 84.9707 52.7436L79.9877 52.6779L79.6968 48.6427Z" fill="white" stroke="#263238" stroke-miterlimit="10"/>
<path d="M79.9595 52.0492L85.3179 54.4703C85.3179 54.4703 86.1812 53.2597 84.9706 52.7436L83.2064 51.533" fill="white"/>
<path d="M79.9595 52.0492L85.3179 54.4703C85.3179 54.4703 86.1812 53.2597 84.9706 52.7436L83.2064 51.533" stroke="#263238" stroke-linejoin="round"/>
</svg>
